<?xml version="1.0" standalone="no"?>
<!DOCTYPE svg PUBLIC "-//W3C//DTD SVG 1.1//EN" "http://www.w3.org/Graphics/SVG/1.1/DTD/svg11.dtd" >
<svg>
<metadata>
Created by FontForge 20090914 at Fri May 18 05:41:29 2018
 By www-data
Copyright 2015 Google Inc. All Rights Reserved.
</metadata>
<defs>
<font id="NotoSansDisplay-Regular" horiz-adv-x="0" >
  <font-face 
    font-family="Noto Sans Disp"
    font-weight="400"
    font-stretch="normal"
    units-per-em="1000"
    panose-1="2 11 5 2 4 5 4 2 2 4"
    ascent="800"
    descent="-200"
    x-height="536"
    cap-height="714"
    bbox="-623 -389 2743 1072"
    underline-thickness="50"
    underline-position="-75"
    unicode-range="U+000D-U+FFFD"
  />
<missing-glyph horiz-adv-x="563" 
d="M88 0v714h386v-714h-386zM136 51h290v612h-290v-612z" />
    <glyph glyph-name="f_f" unicode="ff" horiz-adv-x="652" 
d="M315 468l-126 0.00292969v-468h-88v468h-87v41l87 30v31c0 69.333 14.5 119.166 43.5 149.499s69.5 45.5 121.5 45.5c20.667 0 39.5 -1.83301 56.5 -5.5s31.833 -7.83398 44.5 -12.501l-23 -69c-10.667 3.33301 -22.5 6.66602 -35.5 9.99902s-26.5 5 -40.5 5
c-26.667 0 -46.5 -9.83301 -59.5 -29.5s-19.5 -50.5 -19.5 -92.5v-35h126v-68zM641 468.003l-126 0.00292969v-468h-88v468h-87v41l87 30v31c0 69.333 14.5 119.166 43.5 149.499s69.5 45.5 121.5 45.5c20.667 0 39.5 -1.83301 56.5 -5.5s31.833 -7.83398 44.5 -12.501
l-23 -69c-10.667 3.33301 -22.5 6.66602 -35.5 9.99902s-26.5 5 -40.5 5c-26.667 0 -46.5 -9.83301 -59.5 -29.5s-19.5 -50.5 -19.5 -92.5v-35h126v-68z" />
    <glyph glyph-name="f_i" unicode="fi" horiz-adv-x="572" 
d="M315 468l-126 0.00292969v-468h-88v468h-87v41l87 30v31c0 69.333 14.5 119.166 43.5 149.499s69.5 45.5 121.5 45.5c20.667 0 39.5 -1.83301 56.5 -5.5s31.833 -7.83398 44.5 -12.501l-23 -69c-10.667 3.33301 -22.5 6.66602 -35.5 9.99902s-26.5 5 -40.5 5
c-26.667 0 -46.5 -9.83301 -59.5 -29.5s-19.5 -50.5 -19.5 -92.5v-35h126v-68zM450 737.003c13.333 0 25 -4.5 35 -13.5s15 -23.167 15 -42.5s-5 -33.5 -15 -42.5s-21.667 -13.5 -35 -13.5c-14 0 -26 4.5 -36 13.5s-15 23.167 -15 42.5s5 33.5 15 42.5s22 13.5 36 13.5z
M493 536.003v-536h-87v536h87z" />
    <glyph glyph-name="f_l" unicode="fl" horiz-adv-x="571" 
d="M315 468l-126 0.00292969v-468h-88v468h-87v41l87 30v31c0 69.333 14.5 119.166 43.5 149.499s69.5 45.5 121.5 45.5c20.667 0 39.5 -1.83301 56.5 -5.5s31.833 -7.83398 44.5 -12.501l-23 -69c-10.667 3.33301 -22.5 6.66602 -35.5 9.99902s-26.5 5 -40.5 5
c-26.667 0 -46.5 -9.83301 -59.5 -29.5s-19.5 -50.5 -19.5 -92.5v-35h126v-68zM492 0.00292969h-87v760h87v-760z" />
    <glyph glyph-name="f_f_i" unicode="ffi" horiz-adv-x="898" 
d="M315 468l-126 0.00292969v-468h-88v468h-87v41l87 30v31c0 69.333 14.5 119.166 43.5 149.499s69.5 45.5 121.5 45.5c20.667 0 39.5 -1.83301 56.5 -5.5s31.833 -7.83398 44.5 -12.501l-23 -69c-10.667 3.33301 -22.5 6.66602 -35.5 9.99902s-26.5 5 -40.5 5
c-26.667 0 -46.5 -9.83301 -59.5 -29.5s-19.5 -50.5 -19.5 -92.5v-35h126v-68zM641 468.003l-126 0.00292969v-468h-88v468h-87v41l87 30v31c0 69.333 14.5 119.166 43.5 149.499s69.5 45.5 121.5 45.5c20.667 0 39.5 -1.83301 56.5 -5.5s31.833 -7.83398 44.5 -12.501
l-23 -69c-10.667 3.33301 -22.5 6.66602 -35.5 9.99902s-26.5 5 -40.5 5c-26.667 0 -46.5 -9.83301 -59.5 -29.5s-19.5 -50.5 -19.5 -92.5v-35h126v-68zM776 737.006c13.333 0 25 -4.5 35 -13.5s15 -23.167 15 -42.5s-5 -33.5 -15 -42.5s-21.667 -13.5 -35 -13.5
c-14 0 -26 4.5 -36 13.5s-15 23.167 -15 42.5s5 33.5 15 42.5s22 13.5 36 13.5zM819 536.006v-536h-87v536h87z" />
    <glyph glyph-name="f_f_l" unicode="ffl" horiz-adv-x="897" 
d="M315 468l-126 0.00292969v-468h-88v468h-87v41l87 30v31c0 69.333 14.5 119.166 43.5 149.499s69.5 45.5 121.5 45.5c20.667 0 39.5 -1.83301 56.5 -5.5s31.833 -7.83398 44.5 -12.501l-23 -69c-10.667 3.33301 -22.5 6.66602 -35.5 9.99902s-26.5 5 -40.5 5
c-26.667 0 -46.5 -9.83301 -59.5 -29.5s-19.5 -50.5 -19.5 -92.5v-35h126v-68zM641 468.003l-126 0.00292969v-468h-88v468h-87v41l87 30v31c0 69.333 14.5 119.166 43.5 149.499s69.5 45.5 121.5 45.5c20.667 0 39.5 -1.83301 56.5 -5.5s31.833 -7.83398 44.5 -12.501
l-23 -69c-10.667 3.33301 -22.5 6.66602 -35.5 9.99902s-26.5 5 -40.5 5c-26.667 0 -46.5 -9.83301 -59.5 -29.5s-19.5 -50.5 -19.5 -92.5v-35h126v-68zM818 0.00585938h-87v760h87v-760z" />
    <glyph glyph-name=".notdef" horiz-adv-x="563" 
d="M88 0v714h386v-714h-386zM136 51h290v612h-290v-612z" />
    <glyph glyph-name="NULL" 
 />
    <glyph glyph-name="NULL" 
 />
    <glyph glyph-name="CR" unicode="&#xd;" horiz-adv-x="244" 
 />
    <glyph glyph-name="space" unicode=" " horiz-adv-x="244" 
 />
    <glyph glyph-name="exclam" unicode="!" horiz-adv-x="255" 
d="M162 201h-70l-17 513h105zM67 54c0 24.667 5.83301 42 17.5 52s25.834 15 42.501 15c16 0 30 -5 42 -15s18 -27.333 18 -52c0 -24 -6 -41.333 -18 -52s-26 -16 -42 -16c-16.667 0 -30.834 5.33301 -42.501 16s-17.5 28 -17.5 52z" />
    <glyph glyph-name="quotedbl" unicode="&#x22;" horiz-adv-x="388" 
d="M153 714l-19 -258h-54l-19 258h92zM327 714l-19 -258h-55l-18 258h92z" />
    <glyph glyph-name="numbersign" unicode="#" horiz-adv-x="607" 
d="M451 436l-28 -160h128v-67h-141l-38 -209h-69l38 209h-131l-37 -209h-68l36 209h-118v67h130l30 160h-125v66h137l37 212h70l-37 -212h132l37 212h68l-38 -212h119v-66h-132zM223 276h131l28 160h-131z" />
    <glyph glyph-name="dollar" unicode="$" horiz-adv-x="537" 
d="M238 -58l-0.000976562 107c-35.333 0.666992 -69.166 3.83398 -101.499 9.50098s-58.833 13.5 -79.5 23.5v85c21.333 -10.667 48.833 -20 82.5 -28s66.5 -12.333 98.5 -13v202c-62.667 18 -108.5 40.667 -137.5 68s-43.5 64.666 -43.5 111.999c0 49.333 16.333 88 49 116
s76.667 43.667 132 47v88h60v-87c33.333 -1.33301 63.833 -5.33301 91.5 -12s53.167 -15 76.5 -25l-27 -74c-20.667 8.66699 -43 16.167 -67 22.5s-48.667 10.5 -74 12.5v-201c41.333 -12.667 75.833 -26.167 103.5 -40.5s48.667 -32 63 -53s21.5 -48.167 21.5 -81.5
c0 -46.667 -16.167 -84.5 -48.5 -113.5s-78.833 -46.833 -139.5 -53.5v-111h-60zM237.999 417v177c-32.667 -2.66699 -56.834 -11 -72.501 -25s-23.5 -32 -23.5 -54c0 -26.667 6.83301 -47.167 20.5 -61.5s38.834 -26.5 75.501 -36.5zM297.999 131
c35.333 4 61.333 13.167 78 27.5s25 32.833 25 55.5c0 25.333 -7.33301 44.333 -22 57s-41.667 24.667 -81 36v-176z" />
    <glyph glyph-name="percent" unicode="%" horiz-adv-x="787" 
d="M184 724c46.667 0 82 -19.5 106 -58.5s36 -93.833 36 -164.5s-11.333 -125.834 -34 -165.501s-58.667 -59.5 -108 -59.5c-45.333 0 -79.833 19.833 -103.5 59.5s-35.5 94.834 -35.5 165.501s11.167 125.5 33.5 164.5s57.5 58.5 105.5 58.5zM617 714l-372 -714h-75
l372 714h75zM184 662c-23.333 0 -40.333 -13.501 -51 -40.501s-16 -67.167 -16 -120.5s5.33301 -93.666 16 -120.999s27.667 -41 51 -41c46.667 0 70 54 70 162c0 107.333 -23.333 161 -70 161zM599 437.999c46 0 81.333 -19.5 106 -58.5s37 -93.833 37 -164.5
s-11.667 -125.834 -35 -165.501s-59.333 -59.5 -108 -59.5c-44.667 0 -79 19.833 -103 59.5s-36 94.834 -36 165.501s11.167 125.5 33.5 164.5s57.5 58.5 105.5 58.5zM599 374.999c-44 0 -66 -53.333 -66 -160c0 -108 22 -162 66 -162c46.667 0 70 54 70 162
c0 106.667 -23.333 160 -70 160z" />
    <glyph glyph-name="ampersand" unicode="&#x26;" horiz-adv-x="690" 
d="M286 725c50.667 0 90.835 -13.5029 120.502 -40.5029s44.5 -64.833 44.5 -113.5c0 -42 -12.833 -77.667 -38.5 -107s-57.834 -56 -96.501 -80l178 -186c16 20.667 29 44.5 39 71.5s18.667 56.167 26 87.5h88c-9.33301 -43.333 -21.833 -83.166 -37.5 -119.499
s-35.5 -68.166 -59.5 -95.499l138 -142h-117l-79 84c-29.333 -28 -62 -50.667 -98 -68s-79.667 -26 -131 -26c-66 0 -118.167 17 -156.5 51s-57.5 82.333 -57.5 145c0 50.667 12.833 91.667 38.5 123s60.5 60.333 104.5 87c-20.667 24 -39.167 49.667 -55.5 77
s-24.5 59.333 -24.5 96c0 48.667 15.667 86.834 47 114.501s73.666 41.5 126.999 41.5zM284.001 652.997c-25.333 0 -46.332 -7.33301 -62.999 -22s-25 -35 -25 -61c0 -24 5.83301 -46.167 17.5 -66.5s28.5 -42.833 50.5 -67.5c36 22.667 61.833 44 77.5 64
s23.5 43.667 23.5 71c0 24 -7.33301 43.667 -22 59s-34.334 23 -59.001 23zM244.002 340.997c-32.667 -21.333 -58.167 -43 -76.5 -65s-27.5 -51 -27.5 -87c0 -36.667 11.5 -66 34.5 -88s53.5 -33 91.5 -33c38.667 0 72 7 100 21s51.667 30.667 71 50z" />
    <glyph glyph-name="quotesingle" unicode="'" horiz-adv-x="214" 
d="M153 714l-19 -258h-54l-19 258h92z" />
    <glyph glyph-name="parenleft" unicode="(" horiz-adv-x="285" 
d="M38 274c0 81.333 11.166 159.83 33.499 235.497s57.166 143.834 104.499 204.501h81c-43.333 -62.667 -76.166 -131.667 -98.499 -207s-33.5 -152.666 -33.5 -231.999c0 -77.333 11.167 -153.166 33.5 -227.499s54.833 -142.833 97.5 -205.5h-80
c-47.333 58.667 -82.166 125.167 -104.499 199.5s-33.5 151.833 -33.5 232.5z" />
    <glyph glyph-name="parenright" unicode=")" horiz-adv-x="285" 
d="M247 274c0 -80.667 -11.168 -158.164 -33.501 -232.497s-57.166 -140.833 -104.499 -199.5h-80c43.333 62.667 76 131.167 98 205.5s33 150.166 33 227.499c0 79.333 -11.167 156.666 -33.5 231.999s-55.166 144.333 -98.499 207h81
c47.333 -60.667 82.166 -128.834 104.499 -204.501s33.5 -154.167 33.5 -235.5z" />
    <glyph glyph-name="asterisk" unicode="*" horiz-adv-x="518" 
d="M304 760l-19 -192l180 54l13 -92l-172 -15l112 -158l-83 -47l-79 175l-72 -175l-85 47l109 158l-170 15l14 92l177 -54l-19 192h94z" />
    <glyph glyph-name="plus" unicode="+" horiz-adv-x="537" 
d="M303 388h186v-71h-186v-206h-71v206h-186v71h186v207h71v-207z" />
    <glyph glyph-name="comma" unicode="," horiz-adv-x="254" 
d="M176 116l6.99902 -11.001c-8.66699 -35.333 -20.667 -74.166 -36 -116.499s-30.333 -81.5 -45 -117.5h-64c9.33301 38 18.333 79.667 27 125s15.334 85.333 20.001 120h91z" />
    <glyph glyph-name="hyphen" unicode="-" horiz-adv-x="303" 
d="M37 229v78h229v-78h-229z" />
    <glyph glyph-name="period" unicode="." horiz-adv-x="254" 
d="M67 54c0 24.667 5.66699 42 17 52s25.333 15 42 15s31 -5 43 -15s18 -27.333 18 -52c0 -24 -6 -41.333 -18 -52s-26.333 -16 -43 -16s-30.667 5.33301 -42 16s-17 28 -17 52z" />
    <glyph glyph-name="slash" unicode="/" horiz-adv-x="352" 
d="M343 714l-250 -714h-84l250 714h84z" />
    <glyph glyph-name="zero" unicode="0" horiz-adv-x="537" 
d="M492 358c0 -77.333 -7.50098 -143.333 -22.501 -198s-39 -96.667 -72 -126s-76.167 -44 -129.5 -44c-76 0 -132.167 32.5 -168.5 97.5s-54.5 155.167 -54.5 270.5c0 77.333 7.33301 143.333 22 198s38.334 96.5 71.001 125.5s76 43.5 130 43.5
c75.333 0 131.5 -32.167 168.5 -96.5s55.5 -154.5 55.5 -270.5zM131.999 358c0 -98 10.333 -171.333 31 -220s55.667 -73 105 -73s84.333 24.167 105 72.5s31 121.833 31 220.5c0 97.333 -10.333 170.333 -31 219s-55.667 73 -105 73s-84.333 -24.333 -105 -73
s-31 -121.667 -31 -219z" />
    <glyph glyph-name="one" unicode="1" horiz-adv-x="537" 
d="M337 0l-85 0.000976562v499c0 28.667 0.333008 51.667 1 69s1.66699 35.333 3 54c-9.33301 -10.667 -18.333 -19.834 -27 -27.501l-31 -27.5l-71 -62l-46 59l184 150h72v-714z" />
    <glyph glyph-name="two" unicode="2" horiz-adv-x="537" 
d="M491 0l-446.001 -0.000976562v73l175 189c33.333 36 61.5 68 84.5 96s40.5 55.333 52.5 82s18 56.334 18 89.001c0 39.333 -10.667 69.166 -32 89.499s-49.333 30.5 -84 30.5c-32 0 -60.333 -6 -85 -18s-49.667 -28.667 -75 -50l-47 59
c26.667 23.333 57 43.166 91 59.499s73 24.5 117 24.5c62.667 0 112.334 -17 149.001 -51s55 -80.333 55 -139c0 -37.333 -7.33301 -72.166 -22 -104.499s-35 -64.666 -61 -96.999s-56 -66.5 -90 -102.5l-137 -146l1 -4h336v-80z" />
    <glyph glyph-name="three" unicode="3" horiz-adv-x="537" 
d="M465 547c0 -48 -12.668 -86.1729 -38.001 -114.506s-59.333 -47.166 -102 -56.499v-4c54 -6.66699 94.333 -24.667 121 -54s40 -67.666 40 -114.999c0 -62.667 -21 -113.834 -63 -153.501s-107.333 -59.5 -196 -59.5c-35.333 0 -68 2.83301 -98 8.5
s-59 15.834 -87 30.501v82c28 -15.333 58.333 -27 91 -35s64 -12 94 -12c59.333 0 102 12.5 128 37.5s39 59.5 39 103.5c0 44.667 -16.167 76.834 -48.5 96.501s-78.166 29.5 -137.499 29.5h-63v75h64c55.333 0 97 12.333 125 37s42 57.334 42 98.001
c0 34.667 -10.667 61.5 -32 80.5s-50.666 28.5 -87.999 28.5c-36 0 -66.833 -5.66699 -92.5 -17s-50.5 -25.666 -74.5 -42.999l-43 60c24 20 53.667 37.333 89 52s75.666 22 120.999 22c70 0 122.333 -16.667 157 -50s52 -75.666 52 -126.999z" />
    <glyph glyph-name="four" unicode="4" horiz-adv-x="537" 
d="M519 162h-97v-162h-84v162h-319v75l314 481h89v-477h97v-79zM338 241l-0.000976562 225.001c0 34.667 0.666992 64.167 2 88.5s2.33301 47.5 3 69.5h-4c-5.33301 -12.667 -11.666 -26.334 -18.999 -41.001s-14.333 -27 -21 -37l-196 -305h235z" />
    <glyph glyph-name="five" unicode="5" horiz-adv-x="537" 
d="M260 438c68 0 122.499 -18.334 163.499 -55.001s61.5 -88.334 61.5 -155.001c0 -74 -22.167 -132.167 -66.5 -174.5s-106.5 -63.5 -186.5 -63.5c-34.667 0 -67 3.33301 -97 10s-55.667 16.334 -77 29.001v83c22.667 -14.667 50.167 -26.167 82.5 -34.5
s63.166 -12.5 92.499 -12.5c48.667 0 88 12.5 118 37.5s45 63.833 45 116.5c0 46.667 -13.333 82.5 -40 107.5s-68.667 37.5 -126 37.5c-18 0 -38.167 -1.66699 -60.5 -5s-40.166 -6.66602 -53.499 -9.99902l-42 28l25 337h339v-80h-264l-16 -207
c10.667 2 24.834 4.33301 42.501 7s37.5 4 59.5 4z" />
    <glyph glyph-name="six" unicode="6" horiz-adv-x="537" 
d="M50 305c0 51.333 4.33203 101.834 12.999 151.501s24.167 94.667 46.5 135s53.666 72.5 93.999 96.5s92.5 36 156.5 36c13.333 0 27.833 -0.666992 43.5 -2s28.834 -3.66602 39.501 -6.99902v-75c-11.333 4 -24.166 7 -38.499 9s-28.5 3 -42.5 3
c-43.333 0 -79.166 -7.66699 -107.499 -23s-50.833 -36.333 -67.5 -63s-28.834 -57.334 -36.501 -92.001s-12.5 -71.667 -14.5 -111h6c14 23.333 33.667 43.166 59 59.499s58.333 24.5 99 24.5c58.667 0 105.667 -18.833 141 -56.5s53 -91.167 53 -160.5
c0 -74.667 -19.333 -133.334 -58 -176.001s-90.667 -64 -156 -64c-42.667 0 -81.5 11.333 -116.5 34s-62.667 57.334 -83 104.001s-30.5 105.667 -30.5 177zM278.999 64.001c38.667 0 69.832 13.499 93.499 40.499s35.5 68.833 35.5 125.5c0 45.333 -10.5 81.333 -31.5 108
s-52.833 40 -95.5 40c-28.667 0 -53.667 -6.5 -75 -19.5s-38 -29.667 -50 -50s-18 -40.833 -18 -61.5c0 -28.667 5.33301 -57.167 16 -85.5s26.334 -51.666 47.001 -69.999s46.667 -27.5 78 -27.5z" />
    <glyph glyph-name="seven" unicode="7" horiz-adv-x="537" 
d="M126 0l274 634h-360v80h453v-68l-271 -646h-96z" />
    <glyph glyph-name="eight" unicode="8" horiz-adv-x="537" 
d="M268 724c58.667 0 107 -14.6689 145 -44.002s57 -71.666 57 -126.999c0 -43.333 -12.5 -78.666 -37.5 -105.999s-54.833 -50.333 -89.5 -69c27.333 -14.667 52.333 -30.667 75 -48s40.667 -37.666 54 -60.999s20 -51.333 20 -84c0 -60 -20.167 -107.5 -60.5 -142.5
s-93.833 -52.5 -160.5 -52.5c-72.667 0 -128.5 16.833 -167.5 50.5s-58.5 80.834 -58.5 141.501c0 32 6.33301 60.167 19 84.5s29.5 45.166 50.5 62.499s43.833 32 68.5 44c-32.667 20 -60.167 44.167 -82.5 72.5s-33.5 64.5 -33.5 108.5c0 36 8.83301 66.667 26.5 92
s41.5 44.666 71.5 57.999s64.333 20 103 20zM267 652.998c-34 0 -61.834 -8.83105 -83.501 -26.498s-32.5 -43.167 -32.5 -76.5c0 -24.667 5.5 -45.334 16.5 -62.001s25.5 -30.834 43.5 -42.501s38 -22.834 60 -33.501c32 14.667 58.833 32.334 80.5 53.001s32.5 49 32.5 85
c0 33.333 -10.667 58.833 -32 76.5s-49.666 26.5 -84.999 26.5zM129.999 181c0 -34.667 11.333 -63.5 34 -86.5s57.667 -34.5 105 -34.5c44.667 0 78.834 11.5 102.501 34.5s35.5 52.833 35.5 89.5c0 34.667 -12.833 63.5 -38.5 86.5s-58.834 43.167 -99.501 60.5l-14 6
c-40.667 -19.333 -71.667 -41 -93 -65s-32 -54.333 -32 -91z" />
    <glyph glyph-name="nine" unicode="9" horiz-adv-x="537" 
d="M490 409c0 -51.333 -4.33496 -101.834 -13.002 -151.501s-24 -94.667 -46 -135s-53.333 -72.5 -94 -96.5s-93 -36 -157 -36c-13.333 0 -28.166 0.833008 -44.499 2.5s-29.833 4.16699 -40.5 7.5v75c24 -8.66699 51.333 -13 82 -13c44 0 80.167 7.66699 108.5 23
s50.833 36.166 67.5 62.499s28.834 57 36.501 92s12.167 71.833 13.5 110.5h-6c-14 -22.667 -33.667 -42.167 -59 -58.5s-58.666 -24.5 -99.999 -24.5c-57.333 0 -103.666 18.833 -138.999 56.5s-53 90.834 -53 159.501c0 74.667 19.667 133.5 59 176.5
s91.333 64.5 156 64.5c43.333 0 82.166 -11.5 116.499 -34.5s61.666 -57.667 81.999 -104s30.5 -105.166 30.5 -176.499zM261.998 649.999c-38.667 0 -70.002 -13.668 -94.002 -41.001s-36 -69 -36 -125c0 -45.333 10.333 -81.166 31 -107.499s52.334 -39.5 95.001 -39.5
c29.333 0 54.833 6.33301 76.5 19s38.334 29 50.001 49s17.5 40.667 17.5 62c0 28.667 -5.16699 57 -15.5 85s-26 51.333 -47 70s-46.833 28 -77.5 28z" />
    <glyph glyph-name="colon" unicode=":" horiz-adv-x="254" 
d="M67 482c0 25.333 5.66699 43 17 53s25.333 15 42 15s31 -5 43 -15s18 -27.667 18 -53c0 -24 -6 -41.333 -18 -52s-26.333 -16 -43 -16s-30.667 5.33301 -42 16s-17 28 -17 52zM67 54c0 24.667 5.66699 42 17 52s25.333 15 42 15s31 -5 43 -15s18 -27.333 18 -52
c0 -24 -6 -41.333 -18 -52s-26.333 -16 -43 -16s-30.667 5.33301 -42 16s-17 28 -17 52z" />
    <glyph glyph-name="semicolon" unicode=";" horiz-adv-x="254" 
d="M65 482c0 25.333 5.66699 43 17 53s25.333 15 42 15c17.333 0 31.833 -5 43.5 -15s17.5 -27.667 17.5 -53c0 -24 -5.83301 -41.333 -17.5 -52s-26.167 -16 -43.5 -16c-16.667 0 -30.667 5.33301 -42 16s-17 28 -17 52zM168 116l7.00098 -10.999
c-8.66699 -35.333 -20.667 -74.333 -36 -117s-30.333 -81.667 -45 -117h-65c6 24.667 12 51.667 18 81l17 86.5c5.33301 28.333 9.66602 54.166 12.999 77.499h91z" />
    <glyph glyph-name="less" unicode="&#x3c;" horiz-adv-x="537" 
d="M490 116l-444 207v50l444 235v-78l-352 -178l352 -158v-78z" />
    <glyph glyph-name="equal" unicode="=" horiz-adv-x="538" 
d="M52 416v71h432v-71h-432zM52 217v71h432v-71h-432z" />
    <glyph glyph-name="greater" unicode="&#x3e;" horiz-adv-x="537" 
d="M46 194l351 157l-351 179v78l444 -235v-50l-444 -207v78z" />
    <glyph glyph-name="question" unicode="?" horiz-adv-x="411" 
d="M132 201l-0.000976562 27.001c0 25.333 2.33301 47.166 7 65.499s12.667 35.666 24 51.999s27.333 33.833 48 52.5c23.333 21.333 41.833 39.5 55.5 54.5s23.334 29.5 29.001 43.5s8.5 31 8.5 51c0 32 -9.66699 56.667 -29 74s-46.666 26 -81.999 26
c-31.333 0 -58.833 -4.16699 -82.5 -12.5s-46.5 -18.166 -68.5 -29.499l-31 70c25.333 14 53.5 25.667 84.5 35s65.5 14 103.5 14c60 0 106.333 -15.667 139 -47s49 -74 49 -128c0 -30 -4.66699 -55.5 -14 -76.5s-22.166 -40.333 -38.499 -58s-35.833 -36.5 -58.5 -56.5
c-20.667 -18.667 -36.334 -35 -47.001 -49s-17.834 -28 -21.501 -42s-5.5 -30.333 -5.5 -49v-17h-70zM109.999 54.001c0 24.667 5.83301 42 17.5 52s26.167 15 43.5 15c15.333 0 29 -5 41 -15s18 -27.333 18 -52c0 -24 -6 -41.333 -18 -52s-25.667 -16 -41 -16
c-17.333 0 -31.833 5.33301 -43.5 16s-17.5 28 -17.5 52z" />
    <glyph glyph-name="at" unicode="@" horiz-adv-x="845" 
d="M791 357c0 -30.667 -3.3252 -60.665 -9.99219 -89.998s-16.834 -55.833 -30.501 -79.5s-30.667 -42.667 -51 -57s-44.166 -21.5 -71.499 -21.5c-28.667 0 -51.334 8.83301 -68.001 26.5s-27 37.834 -31 60.501h-5c-10.667 -24.667 -27 -45.334 -49 -62.001
s-49.667 -25 -83 -25c-48.667 0 -86 17 -112 51s-39 79 -39 135c0 43.333 8.16699 82 24.5 116s39.5 60.667 69.5 80s65.667 29 107 29c28 0 55.333 -2.5 82 -7.5s47.667 -10.5 63 -16.5l-9 -203c-0.666992 -12 -1 -20.5 -1 -25.5v-10.5c0 -35.333 5.5 -58.5 16.5 -69.5
s24.167 -16.5 39.5 -16.5c19.333 0 35.666 8.5 48.999 25.5s23.5 39.5 30.5 67.5s10.5 59.333 10.5 94c0 61.333 -11.667 113.666 -35 156.999s-55.5 76.333 -96.5 99s-87.167 34 -138.5 34c-71.333 0 -131.333 -15.667 -180 -47s-85.667 -74.5 -111 -129.5
s-38 -117.833 -38 -188.5c0 -98.667 24.333 -174.334 73 -227.001s119 -79 211 -79c37.333 0 73.666 4.5 108.999 13.5s66.666 18.833 93.999 29.5v-68c-27.333 -12 -57.833 -21.833 -91.5 -29.5s-70.834 -11.5 -111.501 -11.5c-74.667 0 -138.334 14.667 -191.001 44
s-93 71.5 -121 126.5s-42 121.167 -42 198.5c0 62 9.16699 119.5 27.5 172.5s44.666 99 78.999 138s76.166 69.333 125.499 91s105 32.5 167 32.5c65.333 0 123.5 -14.333 174.5 -43s91 -69.667 120 -123s43.5 -117 43.5 -191zM317.008 293.002
c0 -43.333 7.83008 -74.5 23.4971 -93.5s36.834 -28.5 63.501 -28.5c34.667 0 59.834 14 75.501 42s24.5 64.333 26.5 109l6 125c-8.66699 2.66699 -19.167 5 -31.5 7s-24.833 3 -37.5 3c-31.333 0 -56.166 -8 -74.499 -24s-31.5 -36.5 -39.5 -61.5s-12 -51.167 -12 -78.5z
" />
    <glyph glyph-name="A" unicode="A" horiz-adv-x="604" 
d="M511 0l-78 221h-265l-77 -221h-91l260 717h84l259 -717h-92zM407 301l-73.999 216.001c-2 5.33301 -5 15 -9 29l-13 43.5c-4.66699 15 -8 26.5 -10 34.5c-4.66699 -20.667 -9.83398 -40.834 -15.501 -60.501s-10.5 -35.167 -14.5 -46.5l-74 -216h210z" />
    <glyph glyph-name="B" unicode="B" horiz-adv-x="613" 
d="M91 714l193 0.000976562c84 0 147.667 -13.333 191 -40s65 -72.334 65 -137.001c0 -42 -10.667 -76.833 -32 -104.5s-52.666 -45.5 -93.999 -53.5v-5c28 -5.33301 53.167 -14.333 75.5 -27s40 -30.667 53 -54s19.5 -53.333 19.5 -90
c0 -64.667 -20.833 -114.667 -62.5 -150s-98.834 -53 -171.501 -53h-237v714zM180 410.001l121 -0.000976562c56 0 94.5 9.83301 115.5 29.5s31.5 48.834 31.5 87.501c0 39.333 -12.833 67.5 -38.5 84.5s-66.167 25.5 -121.5 25.5h-108v-227zM180 335l0.000976562 -259h132
c58 0 98.5 12.333 121.5 37s34.5 57 34.5 97c0 37.333 -11.833 67.5 -35.5 90.5s-65.834 34.5 -126.501 34.5h-126z" />
    <glyph glyph-name="C" unicode="C" horiz-adv-x="594" 
d="M378 645c-70.667 0 -126.168 -25.667 -166.501 -77s-60.5 -121.666 -60.5 -210.999c0 -88.667 18.833 -158.834 56.5 -210.501s94.167 -77.5 169.5 -77.5c28.667 0 56.334 2.66699 83.001 8s53 12 79 20v-78c-25.333 -10 -51.5 -17.333 -78.5 -22s-58.833 -7 -95.5 -7
c-68.667 0 -125.834 15 -171.501 45s-79.834 72.667 -102.501 128s-34 120.333 -34 195c0 72 12.333 135.5 37 190.5s61 98 109 129s106.667 46.5 176 46.5c70 0 132 -14 186 -42l-35 -76c-21.333 10 -44.666 19 -69.999 27s-52.666 12 -81.999 12z" />
    <glyph glyph-name="D" unicode="D" horiz-adv-x="687" 
d="M630 364c0 -120.667 -31 -211.5 -93 -272.5s-148.333 -91.5 -259 -91.5h-187v714h207c68 0 126.833 -13.333 176.5 -40s88 -66 115 -118s40.5 -116 40.5 -192zM536 361c0 95.333 -21.668 165.167 -65.001 209.5s-104.666 66.5 -183.999 66.5h-107v-560h89
c178 0 267 94.667 267 284z" />
    <glyph glyph-name="E" unicode="E" horiz-adv-x="523" 
d="M467 0h-376v714h376v-79h-287v-223h270v-78h-270v-255h287v-79z" />
    <glyph glyph-name="F" unicode="F" horiz-adv-x="491" 
d="M180 0h-89v714h376v-79h-287v-253h269v-79h-269v-303z" />
    <glyph glyph-name="G" unicode="G" horiz-adv-x="684" 
d="M379 377l235 0.000976562v-350c-36 -12.667 -72.667 -22 -110 -28s-79.333 -9 -126 -9c-69.333 0 -127.833 14.833 -175.5 44.5s-83.834 72 -108.501 127s-37 120.167 -37 195.5c0 74 13.667 138.5 41 193.5s67 97.667 119 128s114.667 45.5 188 45.5
c37.333 0 72.833 -3.66699 106.5 -11s64.834 -17.666 93.501 -30.999l-33 -78c-23.333 10.667 -49.833 20.167 -79.5 28.5s-60.167 12.5 -91.5 12.5c-79.333 0 -141 -25.833 -185 -77.5s-66 -121.834 -66 -210.501c0 -56.667 8.33301 -106.834 25 -150.501
s43.167 -77.667 79.5 -102s83.833 -36.5 142.5 -36.5c28.667 0 53 1.66699 73 5s38.333 7.33301 55 12v212h-146v80z" />
    <glyph glyph-name="H" unicode="H" horiz-adv-x="699" 
d="M607 0h-89v333h-338v-333h-89v714h89v-302h338v302h89v-714z" />
    <glyph glyph-name="I" unicode="I" horiz-adv-x="322" 
d="M284 0h-247v52l79 19v571l-79 20v52h247v-52l-79 -20v-571l79 -19v-52z" />
    <glyph glyph-name="J" unicode="J" horiz-adv-x="260" 
d="M-2 -190c-15.333 0 -28.833 1.16797 -40.5 3.50098s-21.834 5.5 -30.501 9.5v76c10 -3.33301 20.667 -5.83301 32 -7.5s23.333 -2.5 36 -2.5c15.333 0 30 3.33301 44 10s25.333 18.167 34 34.5s13 39.833 13 70.5v710h89v-703c0 -68.667 -16.167 -119.334 -48.5 -152.001
s-75.166 -49 -128.499 -49z" />
    <glyph glyph-name="K" unicode="K" horiz-adv-x="585" 
d="M585 0h-104l-233 341l-68 -64v-277h-89v714h89v-352l55 68l56 68l181 216h104l-264 -311z" />
    <glyph glyph-name="L" unicode="L" horiz-adv-x="496" 
d="M91 0v714h89v-634h292v-80h-381z" />
    <glyph glyph-name="M" unicode="M" horiz-adv-x="856" 
d="M386 0l-216 626h-4c2 -20.667 3.66699 -48.5 5 -83.5s2 -71.5 2 -109.5v-433h-82v714h130l203 -585h4l207 585h130v-714h-88v439c0 34.667 0.833008 69 2.5 103s3.16699 61.667 4.5 83h-4l-220 -625h-74z" />
    <glyph glyph-name="N" unicode="N" horiz-adv-x="719" 
d="M628 0l-105 0.000976562l-354 593h-4l5 -87c2 -34.667 3 -70.334 3 -107.001v-399h-82v714h104l353 -591h4c-0.666992 10.667 -1.5 26.667 -2.5 48s-2 44.5 -3 69.5s-1.5 48.5 -1.5 70.5v403h83v-714z" />
    <glyph glyph-name="O" unicode="O" horiz-adv-x="735" 
d="M678 358c0 -74 -11.667 -138.5 -35 -193.5s-58 -97.833 -104 -128.5s-103 -46 -171 -46c-70 0 -128 15.333 -174 46s-80.333 73.667 -103 129s-34 120 -34 194c0 72.667 11.333 136.5 34 191.5s57.167 97.833 103.5 128.5s104.5 46 174.5 46
c67.333 0 124 -15.167 170 -45.5s80.667 -73 104 -128s35 -119.5 35 -193.5zM151 358c0 -90 17.499 -160.833 52.499 -212.5s89.833 -77.5 164.5 -77.5s129.334 25.833 164.001 77.5s52 122.5 52 212.5s-17.167 160.5 -51.5 211.5s-88.833 76.5 -163.5 76.5
c-75.333 0 -130.5 -25.5 -165.5 -76.5s-52.5 -121.5 -52.5 -211.5z" />
    <glyph glyph-name="P" unicode="P" horiz-adv-x="571" 
d="M271 714c88 0 152 -18.334 192 -55.001s60 -88.334 60 -155.001c0 -39.333 -8.33301 -76.166 -25 -110.499s-44.5 -62.166 -83.5 -83.499s-91.833 -32 -158.5 -32h-76v-278h-89v714h180zM264 636.999h-84v-282h66c62 0 108.333 11 139 33s46 59.333 46 112
c0 46 -13.5 80.333 -40.5 103s-69.167 34 -126.5 34z" />
    <glyph glyph-name="Q" unicode="Q" horiz-adv-x="735" 
d="M678 358c0 -87.333 -16.333 -161.832 -49 -223.499s-80.667 -103.834 -144 -126.501l161 -178h-126l-130 161c-3.33301 0 -7 -0.166992 -11 -0.5s-7.66699 -0.5 -11 -0.5c-70 0 -128 15.333 -174 46s-80.333 73.667 -103 129s-34 120 -34 194
c0 72.667 11.333 136.5 34 191.5s57.167 97.833 103.5 128.5s104.5 46 174.5 46c67.333 0 124 -15.167 170 -45.5s80.667 -73 104 -128s35 -119.5 35 -193.5zM151 358.001c0 -90 17.499 -160.833 52.499 -212.5s89.833 -77.5 164.5 -77.5s129.334 25.833 164.001 77.5
s52 122.5 52 212.5s-17.167 160.5 -51.5 211.5s-88.833 76.5 -163.5 76.5c-75.333 0 -130.5 -25.5 -165.5 -76.5s-52.5 -121.5 -52.5 -211.5z" />
    <glyph glyph-name="R" unicode="R" horiz-adv-x="588" 
d="M277 714c84 0 146 -16.834 186 -50.501s60 -84.5 60 -152.5c0 -38 -6.5 -69.667 -19.5 -95s-29.667 -45.666 -50 -60.999s-41.833 -27 -64.5 -35l186 -320h-104l-162 295h-129v-295h-89v714h186zM272 635.999l-92 -0.000976562v-265h96c54 0 93.333 11.5 118 34.5
s37 56.833 37 101.5c0 46.667 -13 79.834 -39 99.501s-66 29.5 -120 29.5z" />
    <glyph glyph-name="S" unicode="S" horiz-adv-x="517" 
d="M473 191c0 -63.333 -21.668 -112.664 -65.001 -147.997s-101.666 -53 -174.999 -53c-37.333 0 -72.166 3 -104.499 9s-59.166 14.333 -80.499 25v86c23.333 -10.667 51.833 -20.334 85.5 -29.001s68.167 -13 103.5 -13c48.667 0 85.334 10.333 110.001 31
s37 48.667 37 84c0 23.333 -4.83301 43 -14.5 59s-25.834 30.667 -48.501 44s-53.667 28 -93 44c-55.333 22 -97.833 49 -127.5 81s-44.5 75.667 -44.5 131c0 37.333 9.16699 69.666 27.5 96.999s43.666 48.333 75.999 63s69.833 22 112.5 22
c36.667 0 70.334 -3.66699 101.001 -11s59 -17 85 -29l-28 -77c-24 10.667 -49.5 19.667 -76.5 27s-54.833 11 -83.5 11c-41.333 0 -72.333 -9.5 -93 -28.5s-31 -44.167 -31 -75.5c0 -24 4.66699 -44 14 -60s24.666 -30.5 45.999 -43.5s49.666 -26.5 84.999 -40.5
c39.333 -15.333 72.5 -31.833 99.5 -49.5s47.5 -38.834 61.5 -63.501s21 -55.667 21 -93z" />
    <glyph glyph-name="T" unicode="T" horiz-adv-x="524" 
d="M307 0h-89v635h-208v79h503v-79h-206v-635z" />
    <glyph glyph-name="U" unicode="U" horiz-adv-x="689" 
d="M604 714v-461.999c0 -49.333 -9.5 -93.833 -28.5 -133.5s-48 -71 -87 -94s-88.167 -34.5 -147.5 -34.5c-84 0 -147.833 24.167 -191.5 72.5s-65.5 112.166 -65.5 191.499v460h89v-463c0 -58 14.333 -103 43 -135s72 -48 130 -48c59.333 0 102.333 17.167 129 51.5
s40 78.5 40 132.5v462h89z" />
    <glyph glyph-name="V" unicode="V" horiz-adv-x="568" 
d="M568 714l-238.999 -714h-90l-239 714h93l149 -458c9.33301 -29.333 17.5 -56.833 24.5 -82.5s12.833 -50.167 17.5 -73.5c4 23.333 9.66699 48 17 74s15.666 54 24.999 84l148 456h94z" />
    <glyph glyph-name="W" unicode="W" horiz-adv-x="876" 
d="M865 714l-177.998 -713.998h-91l-127 468c-5.33301 18.667 -10.5 37.834 -15.5 57.501s-9.16699 37 -12.5 52s-5.33301 25.5 -6 31.5c-1.33301 -8.66699 -5 -27.167 -11 -55.5s-13 -57.833 -21 -88.5l-124 -465h-92l-177 714h93l103 -436
c6.66699 -30.667 12.667 -60.334 18 -89.001s9.66602 -55.667 12.999 -81c3.33301 26 8.16602 54.333 14.499 85s13.5 60.667 21.5 90l116 431h92l121 -434c8.66699 -30.667 16 -61.334 22 -92.001s10.667 -57.334 14 -80.001c2.66699 24.667 7 51.5 13 80.5
s12.667 59.167 20 90.5l102 435h92z" />
    <glyph glyph-name="X" unicode="X" horiz-adv-x="556" 
d="M553 0h-101l-176 310l-179 -310h-94l223 372l-209 342h99l163 -280l164 280h94l-208 -340z" />
    <glyph glyph-name="Y" unicode="Y" horiz-adv-x="536" 
d="M268 363l172 351h96l-223 -437v-277h-89v273l-224 441h97z" />
    <glyph glyph-name="Z" unicode="Z" horiz-adv-x="539" 
d="M503 0h-468v68l351 566h-340v80h448v-68l-351 -566h360v-80z" />
    <glyph glyph-name="bracketleft" unicode="[" horiz-adv-x="309" 
d="M285 -158h-211v872h211v-72h-127v-728h127v-72z" />
    <glyph glyph-name="backslash" unicode="\" horiz-adv-x="352" 
d="M93 714l251 -714h-85l-250 714h84z" />
    <glyph glyph-name="bracketright" unicode="]" horiz-adv-x="309" 
d="M24 -86h128v728h-128v72h211v-872h-211v72z" />
    <glyph glyph-name="asciicircum" unicode="^" horiz-adv-x="538" 
d="M35 267l199 452h49l220 -452h-76l-167 359l-149 -359h-76z" />
    <glyph glyph-name="underscore" unicode="_" horiz-adv-x="415" 
d="M417 -154h-419v64h419v-64z" />
    <glyph glyph-name="grave" unicode="`" horiz-adv-x="275" 
d="M143 766c7.33301 -14.667 16.333 -31.167 27 -49.5s21.667 -36.333 33 -54s22 -32.5 32 -44.5v-12h-59c-14.667 12 -31 27.5 -49 46.5s-35 38 -51 57s-28 34.5 -36 46.5v10h103z" />
    <glyph glyph-name="a" unicode="a" horiz-adv-x="531" 
d="M272 545c61.333 0 107.167 -14.333 137.5 -43s45.5 -74.334 45.5 -137.001v-365h-63l-17 76h-4c-22 -29.333 -45 -51 -69 -65s-57.333 -21 -100 -21c-45.333 0 -83.166 12.833 -113.499 38.5s-45.5 65.834 -45.5 120.501c0 53.333 19.667 94.5 59 123.5
s100 44.833 182 47.5l85 3v32c0 44.667 -8.83301 75.667 -26.5 93s-42.834 26 -75.501 26c-26 0 -51 -4.16699 -75 -12.5s-46.333 -17.833 -67 -28.5l-27 66c22.667 12.667 49 23.5 79 32.5s61.667 13.5 95 13.5zM369.001 262l-73.001 -2.99902
c-61.333 -2.66699 -103.833 -13.334 -127.5 -32.001s-35.5 -45 -35.5 -79c0 -30 8.33301 -52 25 -66s38.334 -21 65.001 -21c41.333 0 76 12.5 104 37.5s42 63.5 42 115.5v48z" />
    <glyph glyph-name="b" unicode="b" horiz-adv-x="579" 
d="M166 760l-0.000976562 -184.998c0 -22.667 -0.666992 -43.834 -2 -63.501s-2.33301 -35.167 -3 -46.5h5c14 22.667 33.5 41.667 58.5 57s57.167 23 96.5 23c62.667 0 112.834 -23.167 150.501 -69.5s56.5 -115.5 56.5 -207.5s-19 -161.333 -57 -208s-88 -70 -150 -70
c-39.333 0 -71.5 7.66699 -96.5 23s-44.5 33.666 -58.5 54.999h-7l-17 -68h-63v760h87zM304.999 472.002c-52.667 0 -89.001 -16.332 -109.001 -48.999s-30 -83.334 -30 -152.001v-4c0 -66 9.83301 -116.5 29.5 -151.5s56.834 -52.5 111.501 -52.5c43.333 0 76 17.667 98 53
s33 86.333 33 153c0 135.333 -44.333 203 -133 203z" />
    <glyph glyph-name="c" unicode="c" horiz-adv-x="454" 
d="M282 -10c-45.333 0 -85.334 9.66797 -120.001 29.001s-61.834 49.333 -81.501 90s-29.5 92.667 -29.5 156c0 66 10.333 119.667 31 161s48.834 71.666 84.501 90.999s76.167 29 121.5 29c26 0 51.167 -2.83301 75.5 -8.5s44.166 -12.5 59.499 -20.5l-27 -73
c-15.333 6 -33.166 11.667 -53.499 17s-39.166 8 -56.499 8c-96.667 0 -145 -67.667 -145 -203c0 -64.667 11.833 -114.167 35.5 -148.5s58.834 -51.5 105.501 -51.5c27.333 0 51.666 3 72.999 9s41 13.333 59 22v-78c-17.333 -9.33301 -36.333 -16.5 -57 -21.5
s-45.667 -7.5 -75 -7.5z" />
    <glyph glyph-name="d" unicode="d" horiz-adv-x="579" 
d="M257 -10c-62 0 -111.833 23.167 -149.5 69.5s-56.5 115.5 -56.5 207.5s19 161.5 57 208.5s88 70.5 150 70.5c38.667 0 70.334 -7.66699 95.001 -23s44.667 -34 60 -56h6c-0.666992 8.66699 -1.83398 21.5 -3.50098 38.5s-2.5 30.5 -2.5 40.5v214h87v-760h-70l-13 72h-4
c-15.333 -22.667 -35.333 -42 -60 -58s-56.667 -24 -96 -24zM273 63c52 0 88.499 15.499 109.499 46.499s31.5 77.833 31.5 140.5v16c0 66.667 -10 117.834 -30 153.501s-57.333 53.5 -112 53.5c-44 0 -76.833 -18.833 -98.5 -56.5s-32.5 -88.167 -32.5 -151.5
c0 -64 10.833 -113.667 32.5 -149s54.834 -53 99.501 -53z" />
    <glyph glyph-name="e" unicode="e" horiz-adv-x="532" 
d="M275 546c43.333 0 80.667 -10 112 -30s55.5 -48.167 72.5 -84.5s25.5 -78.833 25.5 -127.5v-53h-344c1.33301 -60.667 15.666 -106.834 42.999 -138.501s65.666 -47.5 114.999 -47.5c32 0 60.5 3.16699 85.5 9.5s50.833 15.5 77.5 27.5v-77
c-26 -12 -51.5 -20.833 -76.5 -26.5s-55.167 -8.5 -90.5 -8.5c-48.667 0 -91.167 10.333 -127.5 31s-64.833 51.334 -85.5 92.001s-31 91 -31 151c0 58.667 9.33301 109 28 151s44.834 74.333 78.501 97s72.834 34 117.501 34zM275.001 474
c-39.333 0 -70.167 -13.499 -92.5 -40.499s-35.5 -64.5 -39.5 -112.5h252c-0.666992 45.333 -10.667 82.166 -30 110.499s-49.333 42.5 -90 42.5z" />
    <glyph glyph-name="f" unicode="f" horiz-adv-x="326" 
d="M315 468l-126 0.00292969v-468h-88v468h-87v41l87 30v31c0 69.333 14.5 119.166 43.5 149.499s69.5 45.5 121.5 45.5c20.667 0 39.5 -1.83301 56.5 -5.5s31.833 -7.83398 44.5 -12.501l-23 -69c-10.667 3.33301 -22.5 6.66602 -35.5 9.99902s-26.5 5 -40.5 5
c-26.667 0 -46.5 -9.83301 -59.5 -29.5s-19.5 -50.5 -19.5 -92.5v-35h126v-68z" />
    <glyph glyph-name="g" unicode="g" horiz-adv-x="579" 
d="M257 546c32.667 0 62.3301 -6.66602 88.9971 -19.999s49.334 -33.666 68.001 -60.999h5l11 71h70v-545c0 -76.667 -18.667 -134.334 -56 -173.001s-94.666 -58 -171.999 -58c-73.333 0 -134 11.333 -182 34v81c50.667 -28 113 -42 187 -42
c42.667 0 76.167 13.5 100.5 40.5s36.5 63.833 36.5 110.5v21c0 8 0.333008 19.5 1 34.5s1.33398 25.5 2.00098 31.5h-4c-34.667 -54 -86.334 -81 -155.001 -81c-65.333 0 -116.166 24.333 -152.499 73s-54.5 116.667 -54.5 204c0 85.333 18.167 153.166 54.5 203.499
s86.833 75.5 151.5 75.5zM270.996 472.001c-41.333 0 -73.333 -17.833 -96 -53.5s-34 -86.5 -34 -152.5s11.167 -116.5 33.5 -151.5s55.166 -52.5 98.499 -52.5c49.333 0 85.333 14.5 108 43.5s34 75.833 34 140.5v21c0 72.667 -11.667 125 -35 157s-59.666 48 -108.999 48z
" />
    <glyph glyph-name="h" unicode="h" horiz-adv-x="584" 
d="M166 760v-222.999c0 -26.667 -1.66699 -51.667 -5 -75h6c16 27.333 38 48 66 62s58 21 90 21c60.667 0 106.667 -15.5 138 -46.5s47 -80.833 47 -149.5v-349h-87v343c0 86 -36.667 129 -110 129c-55.333 0 -93.333 -16.833 -114 -50.5s-31 -81.834 -31 -144.501v-277h-87
v760h87z" />
    <glyph glyph-name="i" unicode="i" horiz-adv-x="246" 
d="M124 737c13.333 0 25 -4.5 35 -13.5s15 -23.167 15 -42.5s-5 -33.5 -15 -42.5s-21.667 -13.5 -35 -13.5c-14 0 -26 4.5 -36 13.5s-15 23.167 -15 42.5s5 33.5 15 42.5s22 13.5 36 13.5zM167 536v-536h-87v536h87z" />
    <glyph glyph-name="j" unicode="j" horiz-adv-x="246" 
d="M73 681c0 19.333 5 33.5 15 42.5s22 13.5 36 13.5c13.333 0 25 -4.5 35 -13.5s15 -23.167 15 -42.5s-5 -33.5 -15 -42.5s-21.667 -13.5 -35 -13.5c-14 0 -26 4.5 -36 13.5s-15 23.167 -15 42.5zM22 -240c-16 0 -30.167 1.16699 -42.5 3.5s-22.833 5.16602 -31.5 8.49902
v71c9.33301 -3.33301 19 -5.83301 29 -7.5s21 -2.5 33 -2.5c20.667 0 37.5 5.83301 50.5 17.5s19.5 33.834 19.5 66.501v619h87v-616c0 -50 -11.5 -89.167 -34.5 -117.5s-59.833 -42.5 -110.5 -42.5z" />
    <glyph glyph-name="k" unicode="k" horiz-adv-x="508" 
d="M165 760v-397c0 -10.667 -0.5 -24.667 -1.5 -42s-1.83301 -32.333 -2.5 -45h4l17 23l23 30.5c8 10.333 15 18.833 21 25.5l159 181h101l-204 -229l218 -307h-104l-173 250l-58 -53v-197h-86v760h86z" />
    <glyph glyph-name="l" unicode="l" horiz-adv-x="245" 
d="M166 0h-87v760h87v-760z" />
    <glyph glyph-name="m" unicode="m" horiz-adv-x="882" 
d="M636 546c57.333 0 99.999 -15.667 127.999 -47s42 -81.333 42 -150v-349h-86v345c0 84.667 -33.667 127 -101 127c-48 0 -82.167 -15 -102.5 -45s-30.5 -73.667 -30.5 -131v-296h-87v345c0 84.667 -33.667 127 -101 127c-50 0 -84.5 -16.667 -103.5 -50
s-28.5 -81.333 -28.5 -144v-278h-87v536h70l13 -73h5c15.333 28 36.333 48.833 63 62.5s55 20.5 85 20.5c38.667 0 71 -7.33301 97 -22s45 -37.334 57 -68.001h6c16.667 30.667 39.334 53.334 68.001 68.001s59.667 22 93 22z" />
    <glyph glyph-name="n" unicode="n" horiz-adv-x="584" 
d="M325 546c60 0 105.5 -15.667 136.5 -47s46.5 -81.333 46.5 -150v-349h-87v343c0 86 -36.667 129 -110 129c-55.333 0 -93.333 -16.667 -114 -50s-31 -81.333 -31 -144v-278h-87v536h70l13 -73h5c16 28 38.333 48.833 67 62.5s59 20.5 91 20.5z" />
    <glyph glyph-name="o" unicode="o" horiz-adv-x="570" 
d="M520 269c0 -88.667 -21.3311 -157.334 -63.998 -206.001s-100.334 -73 -173.001 -73c-44.667 0 -84.5 10.833 -119.5 32.5s-62.5 53.334 -82.5 95.001s-30 92.167 -30 151.5c0 88.667 21 157 63 205s99.333 72 172 72c45.333 0 85.666 -10.833 120.999 -32.5
s63 -53 83 -94s30 -91.167 30 -150.5zM141.002 269c0 -63.333 11.5 -113.5 34.5 -150.5s59.5 -55.5 109.5 -55.5s86.667 18.5 110 55.5s35 87.167 35 150.5s-11.667 113 -35 149s-60.333 54 -111 54c-50 0 -86.333 -18 -109 -54s-34 -85.667 -34 -149z" />
    <glyph glyph-name="p" unicode="p" horiz-adv-x="579" 
d="M322 546c62 0 111.835 -23.001 149.502 -69.001s56.5 -115.333 56.5 -208c0 -91.333 -19 -160.666 -57 -207.999s-88 -71 -150 -71c-39.333 0 -71.333 7.66699 -96 23s-44.334 33.666 -59.001 54.999h-6c1.33301 -11.333 2.66602 -25.666 3.99902 -42.999
s2 -32.333 2 -45v-220h-87v776h71l12 -73h4c14.667 23.333 34.167 43 58.5 59s56.833 24 97.5 24zM305.002 471.999c-50 0 -85.666 -15.332 -106.999 -45.999s-32 -77.334 -32 -140.001v-17c0 -66 10 -116.833 30 -152.5s57 -53.5 111 -53.5c30 0 54.667 8.83301 74 26.5
s33.666 42.167 42.999 73.5s14 67 14 107c0 61.333 -10.833 110.333 -32.5 147s-55.167 55 -100.5 55z" />
    <glyph glyph-name="q" unicode="q" horiz-adv-x="579" 
d="M413 -240l0.00195312 229c0 12 0.333008 26 1 42s2 29.667 4 41h-6c-14.667 -22.667 -34.5 -42 -59.5 -58s-57.5 -24 -97.5 -24c-60.667 0 -109.834 23.167 -147.501 69.5s-56.5 115.5 -56.5 207.5s19.167 161.5 57.5 208.5s88.166 70.5 149.499 70.5
c39.333 0 71.5 -8 96.5 -24s44.833 -35.667 59.5 -59h4l12 73h70v-776h-87zM274.002 63c50.667 0 86.667 15.167 108 45.5s32 76.833 32 139.5v18c0 68 -10.333 119.5 -31 154.5s-57.667 52.5 -111 52.5c-44.667 0 -77.667 -18.833 -99 -56.5s-32 -88.167 -32 -151.5
s10.833 -112.833 32.5 -148.5s55.167 -53.5 100.5 -53.5z" />
    <glyph glyph-name="r" unicode="r" horiz-adv-x="391" 
d="M318 546c9.33301 0 19.333 -0.499023 30 -1.49902s20 -2.5 28 -4.5l-10 -81c-8 2 -16.833 3.66699 -26.5 5s-18.834 2 -27.501 2c-25.333 0 -49.166 -7.5 -71.499 -22.5s-40.333 -36 -54 -63s-20.5 -58.5 -20.5 -94.5v-286h-87v536h71l10 -98h4
c16 29.333 37 54.666 63 75.999s56.333 32 91 32z" />
    <glyph glyph-name="s" unicode="s" horiz-adv-x="452" 
d="M410 148c0 -52 -18.0029 -91.332 -54.0029 -117.999s-85.333 -40 -148 -40c-35.333 0 -65.833 3 -91.5 9s-48.167 14.333 -67.5 25v80c20.667 -10.667 45.334 -20.5 74.001 -29.5s57.667 -13.5 87 -13.5c40.667 0 70.167 7.16699 88.5 21.5s27.5 33.5 27.5 57.5
c0 13.333 -3.5 25.333 -10.5 36s-19.333 21.334 -37 32.001s-43.167 22.667 -76.5 36c-32 13.333 -59.5 26.666 -82.5 39.999s-40.667 29.333 -53 48s-18.5 42.667 -18.5 72c0 45.333 17.333 80.333 52 105s80.667 37 138 37c30.667 0 59.334 -3.33301 86.001 -10
s52 -15.334 76 -26.001l-29 -70c-21.333 9.33301 -43.666 17.333 -66.999 24s-47 10 -71 10c-32.667 0 -57.667 -5.83301 -75 -17.5s-26 -27.5 -26 -47.5c0 -15.333 4 -28.166 12 -38.499s21.167 -20.333 39.5 -30s43.5 -20.834 75.5 -33.501s59.167 -25.667 81.5 -39
s39.5 -29.5 51.5 -48.5s18 -42.833 18 -71.5z" />
    <glyph glyph-name="t" unicode="t" horiz-adv-x="345" 
d="M252 62c12.667 0 25.668 1.00098 39.001 3.00098s24.333 4.66699 33 8v-67c-9.33301 -4.66699 -22.5 -8.5 -39.5 -11.5s-33.167 -4.5 -48.5 -4.5c-26.667 0 -51.334 4.83301 -74.001 14.5s-40.834 26.5 -54.501 50.5s-20.5 57.667 -20.5 101v312h-71v42l73 35l33 114h52
v-123h146v-68h-146v-310c0 -32.667 7.33301 -56.834 22 -72.501s33.334 -23.5 56.001 -23.5z" />
    <glyph glyph-name="u" unicode="u" horiz-adv-x="583" 
d="M504 536l0.00195312 -536h-70l-13 71h-4c-16.667 -28 -39.334 -48.5 -68.001 -61.5s-59.334 -19.5 -92.001 -19.5c-60 0 -105.5 15.5 -136.5 46.5s-46.5 80.5 -46.5 148.5v351h88v-345c0 -85.333 36.667 -128 110 -128c54.667 0 92.5 16.667 113.5 50
s31.5 81.333 31.5 144v279h87z" />
    <glyph glyph-name="v" unicode="v" horiz-adv-x="482" 
d="M191 0l-191 536.001h93l106 -316l15.5 -49c5.66699 -18 10.667 -35.333 15 -52s7.16602 -30.334 8.49902 -41.001h4c2 10.667 5.33301 24.5 10 41.5s9.83398 34.333 15.501 52l15.5 48.5l106 316h93l-192 -536h-99z" />
    <glyph glyph-name="w" unicode="w" horiz-adv-x="743" 
d="M492 1l-83.001 302l-21.5 80c-7 26 -11.833 46.667 -14.5 62h-4c-2.66699 -15.333 -7.16699 -36 -13.5 -62s-13.5 -53 -21.5 -81l-87 -301h-98l-139 536h90l69 -286c7.33301 -28.667 13.833 -57.667 19.5 -87s9.83398 -53.666 12.501 -72.999h4
c2 11.333 4.83301 25.333 8.5 42l12 52.5c4.33301 18.333 8.5 34.833 12.5 49.5l87 302h96l84 -302c6.66699 -23.333 13.167 -48.333 19.5 -75s10.833 -49.334 13.5 -68.001h3c2 16.667 6.33301 39.667 13 69l21 90l70 286h88l-140 -536h-101z" />
    <glyph glyph-name="x" unicode="x" horiz-adv-x="501" 
d="M198 274l-174 262h99l128 -202l126 202h99l-174 -262l183 -274h-99l-135 214l-137 -214h-98z" />
    <glyph glyph-name="y" unicode="y" horiz-adv-x="484" 
d="M1 536l94.002 -0.000976562l107 -305c9.33301 -27.333 17.666 -53 24.999 -77s12.666 -47 15.999 -69h3c4 16.667 9.66699 38.5 17 65.5s15.666 54.167 24.999 81.5l101 304h95l-217 -610c-18 -50.667 -41.333 -91 -70 -121s-67.334 -45 -116.001 -45
c-15.333 0 -28.666 0.833008 -39.999 2.5s-21 3.5 -29 5.5v70c6.66699 -1.33301 15 -2.66602 25 -3.99902s20.333 -2 31 -2c28.667 0 51.834 8.66699 69.501 26s31.5 40.333 41.5 69l25 71z" />
    <glyph glyph-name="z" unicode="z" horiz-adv-x="443" 
d="M407 0h-371v58l268 410h-252v68h349v-66l-265 -402h271v-68z" />
    <glyph glyph-name="braceleft" unicode="{" horiz-adv-x="358" 
d="M327 -158c-59.333 0.666992 -105.335 14.001 -138.002 40.001s-49 65.667 -49 119v147c0 34 -10 58.167 -30 72.5s-48.333 21.5 -85 21.5v73c36.667 0.666992 65 8 85 22s30 37.667 30 71v148c0 53.333 17 93 51 119s79.333 39 136 39v-72
c-31.333 -1.33301 -56.166 -9.16602 -74.499 -23.499s-27.5 -37.833 -27.5 -70.5v-144c0 -68.667 -34.333 -109.334 -103 -122.001v-6c68.667 -12.667 103 -53.334 103 -122.001v-147c0 -32.667 8.83301 -56.167 26.5 -70.5s42.834 -21.833 75.501 -22.5v-72z" />
    <glyph glyph-name="bar" unicode="|" horiz-adv-x="517" 
d="M223 760h71v-1001h-71v1001z" />
    <glyph glyph-name="braceright" unicode="}" horiz-adv-x="358" 
d="M31 -158l0.000976562 72c32 1.33301 57 9.16602 75 23.499s27 37.833 27 70.5v145c0 68 34.333 108.667 103 122v6c-68.667 12.667 -103 53.334 -103 122.001v146c0 32.667 -8.83301 56.167 -26.5 70.5s-42.834 21.833 -75.501 22.5v72
c59.333 -0.666992 105.333 -14 138 -40s49 -65.667 49 -119v-146c0 -34 10 -58.167 30 -72.5s48.333 -21.5 85 -21.5v-73c-36.667 -0.666992 -65 -8 -85 -22s-30 -37.667 -30 -71v-149c0 -53.333 -17 -93 -51 -119s-79.333 -39 -136 -39z" />
    <glyph glyph-name="asciitilde" unicode="~" horiz-adv-x="537" 
d="M253 319c-23.333 10.667 -42.5 17.834 -57.5 21.501s-29.167 5.5 -42.5 5.5c-17.333 0 -35.833 -5.66699 -55.5 -17s-36.834 -25.333 -51.501 -42v78c30 35.333 67.667 53 113 53c18 0 36 -2 54 -6s41.667 -12.667 71 -26c22.667 -10.667 41.334 -17.834 56.001 -21.501
s28.667 -5.5 42 -5.5c18 0 36.833 5.66699 56.5 17s36.834 25.333 51.501 42v-77c-30.667 -36 -68.334 -54 -113.001 -54c-18 0 -36.167 2.16699 -54.5 6.5s-41.5 12.833 -69.5 25.5z" />
    <glyph glyph-name="uni00A0" unicode="&#xa0;" horiz-adv-x="244" 
 />
    <glyph glyph-name="exclamdown" unicode="&#xa1;" horiz-adv-x="255" 
d="M187 478c0 -25.333 -5.83301 -42.833 -17.5 -52.5s-25.834 -14.5 -42.501 -14.5s-30.834 4.83301 -42.501 14.5s-17.5 27.167 -17.5 52.5c0 24 5.83301 41.333 17.5 52s25.834 16 42.501 16s30.834 -5.33301 42.501 -16s17.5 -28 17.5 -52zM93 330h70l16 -512h-106z" />
    <glyph glyph-name="cent" unicode="&#xa2;" horiz-adv-x="538" 
d="M332 724l-0.00292969 -80.0049c24 -1.33301 47 -4.66602 69 -9.99902s41 -11.666 57 -18.999l-26 -73c-17.333 6.66699 -36.166 12.667 -56.499 18s-39.166 8 -56.499 8c-50 0 -86.833 -17 -110.5 -51s-35.5 -85.333 -35.5 -154c0 -69.333 12.167 -119.833 36.5 -151.5
s59.833 -47.5 106.5 -47.5c27.333 0 51.333 2.83301 72 8.5s41 12.834 61 21.501v-77c-17.333 -8.66699 -35.166 -15.667 -53.499 -21s-39.5 -8.33301 -63.5 -9v-97h-65v100c-37.333 6 -69.666 19 -96.999 39s-48.5 48.833 -63.5 86.5s-22.5 86.5 -22.5 146.5
c0 60.667 7.66699 110.334 23 149.001s36.666 68.334 63.999 89.001s59.333 34 96 40v84h65z" />
    <glyph glyph-name="sterling" unicode="&#xa3;" horiz-adv-x="538" 
d="M315 723c34 0 65.001 -3.99805 93.001 -11.998s52.667 -17.667 74 -29l-30 -70c-18.667 9.33301 -39.667 18 -63 26s-47.333 12 -72 12c-34.667 0 -61.167 -9.83301 -79.5 -29.5s-27.5 -51.5 -27.5 -95.5v-139h190v-66h-190v-104c0 -40.667 -6.5 -70.834 -19.5 -90.501
s-27.833 -34.834 -44.5 -45.501h358v-80h-473v74c26.667 6.66699 48.667 20.834 66 42.501s26 54.5 26 98.5v105h-89v66h89v148c0 59.333 17.667 105.666 53 138.999s81.666 50 138.999 50z" />
    <glyph glyph-name="currency" unicode="&#xa4;" horiz-adv-x="538" 
d="M85 353c0 20 2.83398 39.5 8.50098 58.5s13.5 36.167 23.5 51.5l-62 68l48 47l61 -64c30.667 23.333 65.667 35 105 35c19.333 0 37.333 -3.16699 54 -9.5s32.667 -14.833 48 -25.5l63 64l47 -47l-61 -67c9.33301 -15.333 17.166 -32.5 23.499 -51.5
s9.5 -38.833 9.5 -59.5c0 -42 -11 -79.333 -33 -112l60 -66l-46 -47l-63 64c-14.667 -10.667 -30.5 -19 -47.5 -25s-35.167 -9 -54.5 -9c-40 0 -75 11.667 -105 35l-61 -64l-47 47l61 66c-10 15.333 -17.833 32.5 -23.5 51.5s-8.5 38.833 -8.5 59.5zM150.001 353
c0 -24 5.33301 -45.833 16 -65.5s25 -35.167 43 -46.5s38 -17 60 -17s42 5.66699 60 17s32.333 26.833 43 46.5s16 41.5 16 65.5c0 24.667 -5.33301 46.834 -16 66.501s-25 35.334 -43 47.001s-38 17.5 -60 17.5s-42 -5.83301 -60 -17.5s-32.333 -27.334 -43 -47.001
s-16 -41.834 -16 -66.501z" />
    <glyph glyph-name="yen" unicode="&#xa5;" horiz-adv-x="537" 
d="M268 365l164 349h91l-188 -375h115v-64h-140v-82h140v-64h-140v-129h-85v129h-140v64h140v82h-140v64h113l-186 375h92z" />
    <glyph glyph-name="brokenbar" unicode="&#xa6;" horiz-adv-x="517" 
d="M223 760h71v-381h-71v381zM223 140h71v-381h-71v381z" />
    <glyph glyph-name="section" unicode="&#xa7;" horiz-adv-x="481" 
d="M62 395c0 32.667 7.66406 59.333 22.9971 80s32.333 36 51 46c-22.667 12.667 -40.167 28.334 -52.5 47.001s-18.5 41.334 -18.5 68.001c0 40 16.167 71.5 48.5 94.5s77.833 34.5 136.5 34.5c34.667 0 64.334 -3.16699 89.001 -9.5s48.667 -14.5 72 -24.5l-26 -67
c-21.333 9.33301 -42.666 17.166 -63.999 23.499s-46.666 9.5 -75.999 9.5c-36.667 0 -62.5 -5.16699 -77.5 -15.5s-22.5 -24.833 -22.5 -43.5s8.5 -34.5 25.5 -47.5s49.167 -28.833 96.5 -47.5c48 -19.333 85.5 -40.833 112.5 -64.5s40.5 -55.5 40.5 -95.5
c0 -34 -7.16699 -61.833 -21.5 -83.5s-30.5 -38.167 -48.5 -49.5c22 -12.667 39 -27.834 51 -45.501s18 -39.167 18 -64.5c0 -46 -18.167 -81.667 -54.5 -107s-86.5 -38 -150.5 -38c-34.667 0 -64.834 2.83301 -90.501 8.5s-48.5 13.834 -68.5 24.501v75
c20.667 -10 45.667 -19.333 75 -28s58.333 -13 87 -13c46 0 77.5 7 94.5 21s25.5 30.667 25.5 50c0 12.667 -2.83301 23.834 -8.5 33.501s-17.167 19.5 -34.5 29.5s-42.666 21.667 -75.999 35c-33.333 12.667 -61.5 26.167 -84.5 40.5s-40.667 31.166 -53 50.499
s-18.5 43.666 -18.5 72.999zM134.997 404.999c0 -24.667 9.83398 -45.333 29.501 -62s54.167 -35.334 103.5 -56.001l19 -8c14.667 8.66699 28.167 20.334 40.5 35.001s18.5 33.334 18.5 56.001c0 16.667 -4.16699 31.667 -12.5 45s-23 26.166 -44 38.499
s-50.5 24.833 -88.5 37.5c-16.667 -4.66699 -31.834 -14.667 -45.501 -30s-20.5 -34 -20.5 -56z" />
    <glyph glyph-name="dieresis" unicode="&#xa8;" horiz-adv-x="547" 
d="M139 681c0 17.333 4.5 29.833 13.5 37.5s19.833 11.5 32.5 11.5c12 0 22.5 -3.83301 31.5 -11.5s13.5 -20.167 13.5 -37.5c0 -16.667 -4.5 -29.167 -13.5 -37.5s-19.5 -12.5 -31.5 -12.5c-12.667 0 -23.5 4.16699 -32.5 12.5s-13.5 20.833 -13.5 37.5zM316 681
c0 17.333 4.5 29.833 13.5 37.5s19.5 11.5 31.5 11.5c12.667 0 23.5 -3.83301 32.5 -11.5s13.5 -20.167 13.5 -37.5c0 -16.667 -4.5 -29.167 -13.5 -37.5s-19.833 -12.5 -32.5 -12.5c-12 0 -22.5 4.16699 -31.5 12.5s-13.5 20.833 -13.5 37.5z" />
    <glyph glyph-name="copyright" unicode="&#xa9;" horiz-adv-x="782" 
d="M46 357c0 50.667 8.83301 98.167 26.5 142.5s42.334 83.333 74.001 117s68.334 60 110.001 79s86.5 28.5 134.5 28.5s92.833 -9.5 134.5 -28.5s78.334 -45.333 110.001 -79s56.334 -72.667 74.001 -117s26.5 -91.833 26.5 -142.5s-8.83301 -98.167 -26.5 -142.5
s-42.334 -83.333 -74.001 -117s-68.334 -60 -110.001 -79s-86.5 -28.5 -134.5 -28.5s-92.833 9.5 -134.5 28.5s-78.334 45.333 -110.001 79s-56.334 72.667 -74.001 117s-26.5 91.833 -26.5 142.5zM96 357c0 -43.333 7.66699 -84 23 -122s36.5 -71.333 63.5 -100
s58.333 -51.167 94 -67.5s73.834 -24.5 114.501 -24.5s78.834 8.16699 114.501 24.5s67 38.833 94 67.5s48.167 62 63.5 100s23 78.667 23 122s-7.66699 84 -23 122s-36.5 71.333 -63.5 100s-58.333 51.167 -94 67.5s-73.834 24.5 -114.501 24.5
s-78.834 -8.16699 -114.501 -24.5s-67 -38.833 -94 -67.5s-48.167 -62 -63.5 -100s-23 -78.667 -23 -122zM410 515c-37.333 0 -66.167 -14.1689 -86.5 -42.502s-30.5 -66.833 -30.5 -115.5c0 -51.333 9 -90.666 27 -117.999s47.667 -41 89 -41c14.667 0 31 2.16699 49 6.5
s34.667 9.83301 50 16.5v-64c-15.333 -7.33301 -30.833 -13.166 -46.5 -17.499s-34.5 -6.5 -56.5 -6.5c-62 0 -108.333 20.5 -139 61.5s-46 95.167 -46 162.5c0 43.333 7.33301 81.833 22 115.5s36 60 64 79s62.333 28.5 103 28.5s79 -10 115 -30l-27 -61
c-31.333 17.333 -60.333 26 -87 26z" />
    <glyph glyph-name="ordfeminine" unicode="&#xaa;" horiz-adv-x="337" 
d="M168 722c40.667 0 71.334 -8.99902 92.001 -26.999s31 -46.667 31 -86v-220h-45l-12 42c-12.667 -14 -27.834 -25.5 -45.501 -34.5s-38.167 -13.5 -61.5 -13.5c-30 0 -53.833 8.16699 -71.5 24.5s-26.5 41.166 -26.5 74.499c0 66 50 101 150 105l52 2v22
c0 22 -6.5 37.333 -19.5 46s-28.833 13 -47.5 13c-17.333 0 -33.833 -2.5 -49.5 -7.5s-30.834 -11.167 -45.501 -18.5l-21 49c16 8.66699 34.333 15.667 55 21s42.334 8 65.001 8zM231 544.001l-44.999 -2.00293c-37.333 -1.33301 -62.333 -7.16602 -75 -17.499
s-19 -24.5 -19 -42.5c0 -17.333 4.33301 -29.666 13 -36.999s20.667 -11 36 -11c31.333 0 54.166 7.83301 68.499 23.5s21.5 36.834 21.5 63.501v23z" />
    <glyph glyph-name="guillemotleft" unicode="&#xab;" horiz-adv-x="487" 
d="M38 270l159 201l62 -36l-131 -171l131 -171l-62 -37l-159 201v13zM228 270l160 201l62 -36l-132 -171l132 -171l-62 -37l-160 201v13z" />
    <glyph glyph-name="logicalnot" unicode="&#xac;" horiz-adv-x="537" 
d="M489 388v-260h-69v189h-374v71h443z" />
    <glyph glyph-name="uni00AD" unicode="&#xad;" horiz-adv-x="322" 
d="M37 229v78h229v-78h-229z" />
    <glyph glyph-name="registered" unicode="&#xae;" horiz-adv-x="782" 
d="M46 357c0 50.667 8.83301 98.167 26.5 142.5s42.334 83.333 74.001 117s68.334 60 110.001 79s86.5 28.5 134.5 28.5s92.833 -9.5 134.5 -28.5s78.334 -45.333 110.001 -79s56.334 -72.667 74.001 -117s26.5 -91.833 26.5 -142.5s-8.83301 -98.167 -26.5 -142.5
s-42.334 -83.333 -74.001 -117s-68.334 -60 -110.001 -79s-86.5 -28.5 -134.5 -28.5s-92.833 9.5 -134.5 28.5s-78.334 45.333 -110.001 79s-56.334 72.667 -74.001 117s-26.5 91.833 -26.5 142.5zM96 357c0 -43.333 7.66699 -84 23 -122s36.5 -71.333 63.5 -100
s58.333 -51.167 94 -67.5s73.834 -24.5 114.501 -24.5s78.834 8.16699 114.501 24.5s67 38.833 94 67.5s48.167 62 63.5 100s23 78.667 23 122s-7.66699 84 -23 122s-36.5 71.333 -63.5 100s-58.333 51.167 -94 67.5s-73.834 24.5 -114.501 24.5
s-78.834 -8.16699 -114.501 -24.5s-67 -38.833 -94 -67.5s-48.167 -62 -63.5 -100s-23 -78.667 -23 -122zM531 446c0 -31.333 -7.5 -56.166 -22.5 -74.499s-31.833 -31.5 -50.5 -39.5l109 -194h-81l-94 173h-58v-173h-72v437h121c51.333 0 88.833 -10.833 112.5 -32.5
s35.5 -53.834 35.5 -96.501zM334 373h46.999c24.667 0 43.834 6.5 57.501 19.5s20.5 30.167 20.5 51.5c0 23.333 -6.5 40.333 -19.5 51s-32.833 16 -59.5 16h-46v-138z" />
    <glyph glyph-name="overscore" unicode="&#xaf;" horiz-adv-x="470" 
d="M473 760h-476v66h476v-66z" />
    <glyph glyph-name="degree" unicode="&#xb0;" horiz-adv-x="402" 
d="M55 570c0 29.333 6.5 55.5 19.5 78.5s30.5 41.333 52.5 55s46.667 20.5 74 20.5c26.667 0 51 -6.83301 73 -20.5s39.667 -32 53 -55s20 -49.167 20 -78.5s-6.66699 -55.5 -20 -78.5s-31 -41.167 -53 -54.5s-46.333 -20 -73 -20c-27.333 0 -52 6.66699 -74 20
s-39.5 31.5 -52.5 54.5s-19.5 49.167 -19.5 78.5zM114 570c0 -26 8.66699 -48.167 26 -66.5s38 -27.5 62 -27.5s44.333 9.16699 61 27.5s25 40.5 25 66.5c0 26.667 -8.33301 49 -25 67s-37 27 -61 27s-44.667 -9 -62 -27s-26 -40.333 -26 -67z" />
    <glyph glyph-name="plusminus" unicode="&#xb1;" horiz-adv-x="537" 
d="M303 391h186v-71h-186v-206h-71v206h-186v71h186v207h71v-207zM46 0v71h444v-71h-444z" />
    <glyph glyph-name="uni00B2" unicode="&#xb2;" horiz-adv-x="331" 
d="M291 416h-268.001v54l107 112c25.333 26 44.333 47.167 57 63.5s21.334 30.833 26.001 43.5s7 26.667 7 42c0 20.667 -5.5 36.5 -16.5 47.5s-25.833 16.5 -44.5 16.5c-18 0 -34.667 -3.83301 -50 -11.5s-31 -18.167 -47 -31.5l-35 46c18.667 16.667 38.834 30 60.501 40
s46.167 15 73.5 15c40 0 71.667 -10.5 95 -31.5s35 -49.833 35 -86.5c0 -32.667 -9.33301 -62 -28 -88s-45.334 -56.667 -80.001 -92l-75 -77h183v-62z" />
    <glyph glyph-name="uni00B3" unicode="&#xb3;" horiz-adv-x="331" 
d="M157 853c44 0 77.335 -10.333 100.002 -31s34 -47 34 -79c0 -27.333 -6.83301 -49.5 -20.5 -66.5s-29.834 -28.833 -48.501 -35.5v-3c24.667 -5.33301 44.334 -16.333 59.001 -33s22 -38.667 22 -66c0 -38.667 -13.333 -70.167 -40 -94.5s-67.667 -36.5 -123 -36.5
c-22.667 0 -44 2.16699 -64 6.5s-39.667 11.5 -59 21.5v63c43.333 -22.667 84.666 -34 123.999 -34c31.333 0 54.5 6.83301 69.5 20.5s22.5 32.167 22.5 55.5c0 24 -8.83301 41.5 -26.5 52.5s-42.5 16.5 -74.5 16.5h-54v55h53c31.333 0 54.166 6.5 68.499 19.5
s21.5 29.833 21.5 50.5s-6.16699 36 -18.5 46s-27.5 15 -45.5 15c-19.333 0 -37 -3.5 -53 -10.5s-32.667 -16.167 -50 -27.5l-35 46c19.333 14.667 39.833 26.5 61.5 35.5s47.167 13.5 76.5 13.5z" />
    <glyph glyph-name="acute" unicode="&#xb4;" horiz-adv-x="275" 
d="M235 766l0.000976562 -10c-8.66699 -12 -21 -27.5 -37 -46.5s-33 -38 -51 -57s-34.667 -34.5 -50 -46.5h-57v12c9.33301 12 19.666 26.833 30.999 44.5s22.333 35.667 33 54s19.667 34.833 27 49.5h104z" />
    <glyph glyph-name="uni00B5" unicode="&#xb5;" horiz-adv-x="588" 
d="M509 536l-0.00195312 -535.999h-70l-14 72h-5c-15.333 -26.667 -35.166 -47 -59.499 -61s-53.833 -21 -88.5 -21c-24 0 -44.833 4.16699 -62.5 12.5s-32.5 19.166 -44.5 32.499h-4c1.33301 -12 2.5 -28.167 3.5 -48.5s1.5 -43.833 1.5 -70.5v-156h-87v776h87v-346
c0 -84.667 37 -127 111 -127c54.667 0 92.334 16.667 113.001 50s31 81.333 31 144v279h88z" />
    <glyph glyph-name="paragraph" unicode="&#xb6;" horiz-adv-x="616" 
d="M518 -127l-55.999 -0.000976562v831h-95v-831h-56v400c-8.66699 -3.33301 -19 -5.66602 -31 -6.99902s-23.667 -2 -35 -2c-39.333 0 -73.333 7.66699 -102 23s-51 41 -67 77s-24 84.333 -24 145c0 63.333 8.66699 113.333 26 150s41.666 62.667 72.999 78
s67.333 23 108 23h259v-887z" />
    <glyph glyph-name="periodcentered" unicode="&#xb7;" horiz-adv-x="268" 
d="M67 353c0 24.667 5.66699 42 17 52s25.333 15 42 15s31 -5 43 -15s18 -27.333 18 -52c0 -24 -6 -41.333 -18 -52s-26.333 -16 -43 -16s-30.667 5.33301 -42 16s-17 28 -17 52z" />
    <glyph glyph-name="cedilla" unicode="&#xb8;" horiz-adv-x="210" 
d="M199 -139c0 -32 -11.5 -56.835 -34.5 -74.502s-57.833 -26.5 -104.5 -26.5c-20.667 0 -37 1.66699 -49 5v55c13.333 -3.33301 30.333 -5 51 -5c21.333 0 37.833 3.16699 49.5 9.5s17.5 17.833 17.5 34.5c0 17.333 -8 30 -24 38s-36.333 13.667 -61 17l40 86h57l-23 -53
c22 -5.33301 41 -14.666 57 -27.999s24 -32.666 24 -57.999z" />
    <glyph glyph-name="uni00B9" unicode="&#xb9;" horiz-adv-x="331" 
d="M229 844l0.000976562 -428h-70v276c0 17.333 0.166992 33 0.5 47s1.16602 28 2.49902 42c-6 -6 -12.833 -12.5 -20.5 -19.5s-15.167 -13.5 -22.5 -19.5l-50 -39l-34 49l123 92h71z" />
    <glyph glyph-name="ordmasculine" unicode="&#xba;" horiz-adv-x="355" 
d="M326 553c0 -54 -13.668 -95.833 -41.001 -125.5s-63.666 -44.5 -108.999 -44.5c-42.667 0 -77.667 14.5 -105 43.5s-41 71.167 -41 126.5c0 54.667 13.333 96.5 40 125.5s62.667 43.5 108 43.5c44.667 0 80.5 -14.333 107.5 -43s40.5 -70.667 40.5 -126zM91.999 553
c0 -39.333 6.66699 -68.666 20 -87.999s35 -29 65 -29s51.833 9.66699 65.5 29s20.5 48.666 20.5 87.999s-6.83301 68.5 -20.5 87.5s-35.5 28.5 -65.5 28.5c-29.333 0 -50.833 -9.5 -64.5 -28.5s-20.5 -48.167 -20.5 -87.5z" />
    <glyph glyph-name="guillemotright" unicode="&#xbb;" horiz-adv-x="487" 
d="M449 257l-161 -201l-61 37l131 171l-131 171l61 36l161 -201v-13zM258 257l-159 -201l-62 37l131 171l-131 171l62 36l159 -201v-13z" />
    <glyph glyph-name="onequarter" unicode="&#xbc;" horiz-adv-x="706" 
d="M121 0l406 714h74l-407 -714h-73zM155 286l0.000976562 276c0 17.333 0.166992 33 0.5 47s1.16602 28 2.49902 42c-6 -6 -12.833 -12.5 -20.5 -19.5s-15.167 -13.5 -22.5 -19.5l-50 -39l-34 49l123 92h71v-428h-70zM567.001 0v96h-183v52l185 283h72v-275h57v-60h-57v-96
h-74zM452.001 156l115.001 -0.000976562v93c0 14 0.166992 30.333 0.5 49s1.16602 36 2.49902 52c-3.33301 -7.33301 -9.83301 -19.166 -19.5 -35.499l-24.5 -41.5z" />
    <glyph glyph-name="onehalf" unicode="&#xbd;" horiz-adv-x="732" 
d="M95 0l407 714h73l-407 -714h-73zM145 286l0.000976562 276c0 17.333 0.166992 33 0.5 47s1.16602 28 2.49902 42l-20 -19.5c-7.33301 -7 -15 -13.5 -23 -19.5l-50 -39l-34 49l123 92h71v-428h-70zM424.001 0l0.000976562 54l107 112c24.667 26 43.667 47.167 57 63.5
s22.333 30.833 27 43.5s7 26.667 7 42c0 20.667 -5.66699 36.5 -17 47.5s-26.333 16.5 -45 16.5c-18 0 -34.667 -3.83301 -50 -11.5s-31 -18.167 -47 -31.5l-35 46c18.667 16.667 39 30 61 40s46.333 15 73 15c40 0 71.667 -10.5 95 -31.5s35 -49.833 35 -86.5
c0 -32.667 -9.33301 -62 -28 -88s-45.334 -56.667 -80.001 -92l-75 -77h183v-62h-268z" />
    <glyph glyph-name="threequarters" unicode="&#xbe;" horiz-adv-x="738" 
d="M139 278c-23.333 0 -44.998 2.16699 -64.998 6.5s-39.333 11.5 -58 21.5v63c43.333 -22.667 84.666 -34 123.999 -34c31.333 0 54.5 6.83301 69.5 20.5s22.5 32.167 22.5 55.5c0 24 -8.83301 41.5 -26.5 52.5s-42.5 16.5 -74.5 16.5h-54v55h53
c31.333 0 54.166 6.5 68.499 19.5s21.5 29.833 21.5 50.5s-6.16699 36 -18.5 46s-27.5 15 -45.5 15c-18.667 0 -36.334 -3.5 -53.001 -10.5s-33.334 -16.167 -50.001 -27.5l-35 46c18.667 14.667 39 26.5 61 35.5s47.667 13.5 77 13.5c44 0 77.333 -10.333 100 -31
s34 -47 34 -79c0 -27.333 -6.66699 -49.5 -20 -66.5s-29.666 -28.833 -48.999 -35.5v-3c24.667 -5.33301 44.334 -16.333 59.001 -33s22 -38.667 22 -66c0 -38.667 -13.333 -70.167 -40 -94.5s-67.667 -36.5 -123 -36.5zM161.002 0l407 714h74l-407 -714h-74zM599.002 0v96
h-182v52l184 283h72v-275h57v-60h-57v-96h-74zM484.002 156l115.001 -0.000976562v93c0 14 0.166992 30.333 0.5 49s1.16602 36 2.49902 52c-2.66699 -7.33301 -9 -19.166 -19 -35.499l-25 -41.5z" />
    <glyph glyph-name="questiondown" unicode="&#xbf;" horiz-adv-x="434" 
d="M300 331l0.000976562 -27.001c0 -25.333 -2.33301 -47.166 -7 -65.499s-12.667 -35.666 -24 -51.999s-27.333 -33.833 -48 -52.5c-23.333 -21.333 -41.833 -39.5 -55.5 -54.5s-23.334 -29.5 -29.001 -43.5s-8.5 -31 -8.5 -51c0 -32 9.66699 -56.667 29 -74
s46.666 -26 81.999 -26c31.333 0 58.833 4.16699 82.5 12.5s46.5 18.166 68.5 29.499l31 -70c-25.333 -14 -53.5 -25.667 -84.5 -35s-65.5 -14 -103.5 -14c-60 0 -106.333 15.667 -139 47s-49 74 -49 128c0 30 4.66699 55.5 14 76.5s22.166 40.333 38.499 58
s35.833 36.5 58.5 56.5c20.667 18.667 36.334 35 47.001 49s17.834 28 21.501 42s5.5 30.333 5.5 49v17h70zM322.001 477.999c0 -24.667 -5.83301 -42 -17.5 -52s-26.167 -15 -43.5 -15c-15.333 0 -29 5 -41 15s-18 27.333 -18 52c0 24 6 41.333 18 52s25.667 16 41 16
c17.333 0 31.833 -5.33301 43.5 -16s17.5 -28 17.5 -52z" />
    <glyph glyph-name="Agrave" unicode="&#xc0;" horiz-adv-x="604" 
d="M511 0l-78 221h-265l-77 -221h-91l260 717h84l259 -717h-92zM407 301l-73.999 216.001c-2 5.33301 -5 15 -9 29l-13 43.5c-4.66699 15 -8 26.5 -10 34.5c-4.66699 -20.667 -9.83398 -40.834 -15.501 -60.501s-10.5 -35.167 -14.5 -46.5l-74 -216h210zM262.001 944.001
c7.33301 -14.667 16.333 -31.167 27 -49.5s21.667 -36.333 33 -54s22 -32.5 32 -44.5v-12h-59c-14.667 12 -31 27.5 -49 46.5s-35 38 -51 57s-28 34.5 -36 46.5v10h103z" />
    <glyph glyph-name="Aacute" unicode="&#xc1;" horiz-adv-x="604" 
d="M511 0l-78 221h-265l-77 -221h-91l260 717h84l259 -717h-92zM407 301l-73.999 216.001c-2 5.33301 -5 15 -9 29l-13 43.5c-4.66699 15 -8 26.5 -10 34.5c-4.66699 -20.667 -9.83398 -40.834 -15.501 -60.501s-10.5 -35.167 -14.5 -46.5l-74 -216h210zM428.001 944.001
l0.000976562 -10c-8.66699 -12 -21 -27.5 -37 -46.5s-33 -38 -51 -57s-34.667 -34.5 -50 -46.5h-57v12c9.33301 12 19.666 26.833 30.999 44.5s22.333 35.667 33 54s19.667 34.833 27 49.5h104z" />
    <glyph glyph-name="Acircumflex" unicode="&#xc2;" horiz-adv-x="604" 
d="M511 0l-78 221h-265l-77 -221h-91l260 717h84l259 -717h-92zM407 301l-73.999 216.001c-2 5.33301 -5 15 -9 29l-13 43.5c-4.66699 15 -8 26.5 -10 34.5c-4.66699 -20.667 -9.83398 -40.834 -15.501 -60.501s-10.5 -35.167 -14.5 -46.5l-74 -216h210zM345.001 944.001
c8 -14.667 19 -31.168 33 -49.501s28.667 -36.333 44 -54l41 -45.5v-11h-61c-16.667 10.667 -33.667 23.834 -51 39.501s-34.666 32.5 -51.999 50.5c-17.333 -18 -34.333 -34.833 -51 -50.5s-33.334 -28.834 -50.001 -39.501h-59v11c12 12.667 25.333 27.834 40 45.501
l43 54c14 18.333 25 34.833 33 49.5h90z" />
    <glyph glyph-name="Atilde" unicode="&#xc3;" horiz-adv-x="604" 
d="M511 0l-78 221h-265l-77 -221h-91l260 717h84l259 -717h-92zM407 301l-73.999 216.001c-2 5.33301 -5 15 -9 29l-13 43.5c-4.66699 15 -8 26.5 -10 34.5c-4.66699 -20.667 -9.83398 -40.834 -15.501 -60.501s-10.5 -35.167 -14.5 -46.5l-74 -216h210zM475.001 913.001
c-4 -39.333 -15 -70.5 -33 -93.5s-41.667 -34.5 -71 -34.5c-17.333 0 -34.333 4.66699 -51 14s-32.667 18.833 -48 28.5s-30 14.5 -44 14.5c-14.667 0 -25.834 -4.83301 -33.501 -14.5s-13.5 -24.167 -17.5 -43.5h-50c4 39.333 15 70.5 33 93.5s42 34.5 72 34.5
c18 0 35.5 -4.83301 52.5 -14.5l48 -28.5c15 -9.33301 29.167 -14 42.5 -14c14 0 24.833 4.83301 32.5 14.5s13.834 24.167 18.501 43.5h49z" />
    <glyph glyph-name="Adieresis" unicode="&#xc4;" horiz-adv-x="604" 
d="M511 0l-78 221h-265l-77 -221h-91l260 717h84l259 -717h-92zM407 301l-73.999 216.001c-2 5.33301 -5 15 -9 29l-13 43.5c-4.66699 15 -8 26.5 -10 34.5c-4.66699 -20.667 -9.83398 -40.834 -15.501 -60.501s-10.5 -35.167 -14.5 -46.5l-74 -216h210zM167.001 859.001
c0 17.333 4.5 29.833 13.5 37.5s19.833 11.5 32.5 11.5c12 0 22.5 -3.83301 31.5 -11.5s13.5 -20.167 13.5 -37.5c0 -16.667 -4.5 -29.167 -13.5 -37.5s-19.5 -12.5 -31.5 -12.5c-12.667 0 -23.5 4.16699 -32.5 12.5s-13.5 20.833 -13.5 37.5zM344.001 859.001
c0 17.333 4.5 29.833 13.5 37.5s19.5 11.5 31.5 11.5c12.667 0 23.5 -3.83301 32.5 -11.5s13.5 -20.167 13.5 -37.5c0 -16.667 -4.5 -29.167 -13.5 -37.5s-19.833 -12.5 -32.5 -12.5c-12 0 -22.5 4.16699 -31.5 12.5s-13.5 20.833 -13.5 37.5z" />
    <glyph glyph-name="Aring" unicode="&#xc5;" horiz-adv-x="604" 
d="M511 0l-78 221h-265l-77 -221h-91l260 717h84l259 -717h-92zM407 301l-73.999 216.001c-2 5.33301 -5 15 -9 29l-13 43.5c-4.66699 15 -8 26.5 -10 34.5c-4.66699 -20.667 -9.83398 -40.834 -15.501 -60.501s-10.5 -35.167 -14.5 -46.5l-74 -216h210zM299.001 667.001
c-30.667 0 -55.5 9.33398 -74.5 28.001s-28.5 44.667 -28.5 78s9.5 59.166 28.5 77.499s43.833 27.5 74.5 27.5c30 0 55.167 -9.16699 75.5 -27.5s30.5 -43.833 30.5 -76.5c0 -34 -10 -60.333 -30 -79s-45.333 -28 -76 -28zM299.001 717.002c15.333 0 27.833 5 37.5 15
s14.5 23.667 14.5 41s-4.83301 31 -14.5 41s-22.167 15 -37.5 15c-14.667 0 -27 -5 -37 -15s-15 -23.667 -15 -41s4.5 -31 13.5 -41s21.833 -15 38.5 -15z" />
    <glyph glyph-name="AE" unicode="&#xc6;" horiz-adv-x="833" 
d="M777 0h-354v221h-234l-98 -221h-92l317 714h461v-79h-265v-223h247v-78h-247v-255h265v-79zM223 301h200v333h-55z" />
    <glyph glyph-name="Ccedilla" unicode="&#xc7;" horiz-adv-x="594" 
d="M378 645c-70.667 0 -126.168 -25.667 -166.501 -77s-60.5 -121.666 -60.5 -210.999c0 -88.667 18.833 -158.834 56.5 -210.501s94.167 -77.5 169.5 -77.5c28.667 0 56.334 2.66699 83.001 8s53 12 79 20v-78c-25.333 -10 -51.5 -17.333 -78.5 -22s-58.833 -7 -95.5 -7
c-68.667 0 -125.834 15 -171.501 45s-79.834 72.667 -102.501 128s-34 120.333 -34 195c0 72 12.333 135.5 37 190.5s61 98 109 129s106.667 46.5 176 46.5c70 0 132 -14 186 -42l-35 -76c-21.333 10 -44.666 19 -69.999 27s-52.666 12 -81.999 12zM459.999 -139
c0 -32 -11.5 -56.835 -34.5 -74.502s-57.833 -26.5 -104.5 -26.5c-20.667 0 -37 1.66699 -49 5v55c13.333 -3.33301 30.333 -5 51 -5c21.333 0 37.833 3.16699 49.5 9.5s17.5 17.833 17.5 34.5c0 17.333 -8 30 -24 38s-36.333 13.667 -61 17l40 86h57l-23 -53
c22 -5.33301 41 -14.666 57 -27.999s24 -32.666 24 -57.999z" />
    <glyph glyph-name="Egrave" unicode="&#xc8;" horiz-adv-x="523" 
d="M467 0h-376v714h376v-79h-287v-223h270v-78h-270v-255h287v-79zM248 944c7.33301 -14.667 16.333 -31.167 27 -49.5s21.667 -36.333 33 -54s22 -32.5 32 -44.5v-12h-59c-14.667 12 -31 27.5 -49 46.5s-35 38 -51 57s-28 34.5 -36 46.5v10h103z" />
    <glyph glyph-name="Eacute" unicode="&#xc9;" horiz-adv-x="523" 
d="M467 0h-376v714h376v-79h-287v-223h270v-78h-270v-255h287v-79zM414 944l0.000976562 -10c-8.66699 -12 -21 -27.5 -37 -46.5s-33 -38 -51 -57s-34.667 -34.5 -50 -46.5h-57v12c9.33301 12 19.666 26.833 30.999 44.5s22.333 35.667 33 54s19.667 34.833 27 49.5h104z
" />
    <glyph glyph-name="Ecircumflex" unicode="&#xca;" horiz-adv-x="523" 
d="M467 0h-376v714h376v-79h-287v-223h270v-78h-270v-255h287v-79zM331 944c8 -14.667 19 -31.168 33 -49.501s28.667 -36.333 44 -54l41 -45.5v-11h-61c-16.667 10.667 -33.667 23.834 -51 39.501s-34.666 32.5 -51.999 50.5c-17.333 -18 -34.333 -34.833 -51 -50.5
s-33.334 -28.834 -50.001 -39.501h-59v11c12 12.667 25.333 27.834 40 45.501l43 54c14 18.333 25 34.833 33 49.5h90z" />
    <glyph glyph-name="Edieresis" unicode="&#xcb;" horiz-adv-x="523" 
d="M467 0h-376v714h376v-79h-287v-223h270v-78h-270v-255h287v-79zM153 859c0 17.333 4.5 29.833 13.5 37.5s19.833 11.5 32.5 11.5c12 0 22.5 -3.83301 31.5 -11.5s13.5 -20.167 13.5 -37.5c0 -16.667 -4.5 -29.167 -13.5 -37.5s-19.5 -12.5 -31.5 -12.5
c-12.667 0 -23.5 4.16699 -32.5 12.5s-13.5 20.833 -13.5 37.5zM330 859c0 17.333 4.5 29.833 13.5 37.5s19.5 11.5 31.5 11.5c12.667 0 23.5 -3.83301 32.5 -11.5s13.5 -20.167 13.5 -37.5c0 -16.667 -4.5 -29.167 -13.5 -37.5s-19.833 -12.5 -32.5 -12.5
c-12 0 -22.5 4.16699 -31.5 12.5s-13.5 20.833 -13.5 37.5z" />
    <glyph glyph-name="Igrave" unicode="&#xcc;" horiz-adv-x="322" 
d="M284 0h-247v52l79 19v571l-79 20v52h247v-52l-79 -20v-571l79 -19v-52zM123 944c7.33301 -14.667 16.333 -31.167 27 -49.5s21.667 -36.333 33 -54s22 -32.5 32 -44.5v-12h-59c-14.667 12 -31 27.5 -49 46.5s-35 38 -51 57s-28 34.5 -36 46.5v10h103z" />
    <glyph glyph-name="Iacute" unicode="&#xcd;" horiz-adv-x="322" 
d="M284 0h-247v52l79 19v571l-79 20v52h247v-52l-79 -20v-571l79 -19v-52zM289 944l0.000976562 -10c-8.66699 -12 -21 -27.5 -37 -46.5s-33 -38 -51 -57s-34.667 -34.5 -50 -46.5h-57v12c9.33301 12 19.666 26.833 30.999 44.5s22.333 35.667 33 54s19.667 34.833 27 49.5
h104z" />
    <glyph glyph-name="Icircumflex" unicode="&#xce;" horiz-adv-x="322" 
d="M284 0h-247v52l79 19v571l-79 20v52h247v-52l-79 -20v-571l79 -19v-52zM206 944c8 -14.667 19 -31.168 33 -49.501s28.667 -36.333 44 -54l41 -45.5v-11h-61c-16.667 10.667 -33.667 23.834 -51 39.501s-34.666 32.5 -51.999 50.5c-17.333 -18 -34.333 -34.833 -51 -50.5
s-33.334 -28.834 -50.001 -39.501h-59v11c12 12.667 25.333 27.834 40 45.501l43 54c14 18.333 25 34.833 33 49.5h90z" />
    <glyph glyph-name="Idieresis" unicode="&#xcf;" horiz-adv-x="322" 
d="M284 0h-247v52l79 19v571l-79 20v52h247v-52l-79 -20v-571l79 -19v-52zM28 859c0 17.333 4.5 29.833 13.5 37.5s19.833 11.5 32.5 11.5c12 0 22.5 -3.83301 31.5 -11.5s13.5 -20.167 13.5 -37.5c0 -16.667 -4.5 -29.167 -13.5 -37.5s-19.5 -12.5 -31.5 -12.5
c-12.667 0 -23.5 4.16699 -32.5 12.5s-13.5 20.833 -13.5 37.5zM205 859c0 17.333 4.5 29.833 13.5 37.5s19.5 11.5 31.5 11.5c12.667 0 23.5 -3.83301 32.5 -11.5s13.5 -20.167 13.5 -37.5c0 -16.667 -4.5 -29.167 -13.5 -37.5s-19.833 -12.5 -32.5 -12.5
c-12 0 -22.5 4.16699 -31.5 12.5s-13.5 20.833 -13.5 37.5z" />
    <glyph glyph-name="Eth" unicode="&#xd0;" horiz-adv-x="687" 
d="M298 714c67.333 0 125.833 -13.333 175.5 -40s88.167 -66 115.5 -118s41 -116 41 -192c0 -120.667 -31 -211.5 -93 -272.5s-148.667 -91.5 -260 -91.5h-180v314h-69v78h69v322h201zM287 637l-101.001 0.000976562v-245h163v-78h-163v-237h83c178 0 267 94.667 267 284
c0 95.333 -21.667 165.166 -65 209.499s-104.666 66.5 -183.999 66.5z" />
    <glyph glyph-name="Ntilde" unicode="&#xd1;" horiz-adv-x="719" 
d="M628 0l-105 0.000976562l-354 593h-4l5 -87c2 -34.667 3 -70.334 3 -107.001v-399h-82v714h104l353 -591h4c-0.666992 10.667 -1.5 26.667 -2.5 48s-2 44.5 -3 69.5s-1.5 48.5 -1.5 70.5v403h83v-714zM533 913.001c-4 -39.333 -15 -70.5 -33 -93.5
s-41.667 -34.5 -71 -34.5c-17.333 0 -34.333 4.66699 -51 14s-32.667 18.833 -48 28.5s-30 14.5 -44 14.5c-14.667 0 -25.834 -4.83301 -33.501 -14.5s-13.5 -24.167 -17.5 -43.5h-50c4 39.333 15 70.5 33 93.5s42 34.5 72 34.5c18 0 35.5 -4.83301 52.5 -14.5l48 -28.5
c15 -9.33301 29.167 -14 42.5 -14c14 0 24.833 4.83301 32.5 14.5s13.834 24.167 18.501 43.5h49z" />
    <glyph glyph-name="Ograve" unicode="&#xd2;" horiz-adv-x="735" 
d="M678 358c0 -74 -11.667 -138.5 -35 -193.5s-58 -97.833 -104 -128.5s-103 -46 -171 -46c-70 0 -128 15.333 -174 46s-80.333 73.667 -103 129s-34 120 -34 194c0 72.667 11.333 136.5 34 191.5s57.167 97.833 103.5 128.5s104.5 46 174.5 46
c67.333 0 124 -15.167 170 -45.5s80.667 -73 104 -128s35 -119.5 35 -193.5zM151 358c0 -90 17.499 -160.833 52.499 -212.5s89.833 -77.5 164.5 -77.5s129.334 25.833 164.001 77.5s52 122.5 52 212.5s-17.167 160.5 -51.5 211.5s-88.833 76.5 -163.5 76.5
c-75.333 0 -130.5 -25.5 -165.5 -76.5s-52.5 -121.5 -52.5 -211.5zM328.999 955c7.33301 -14.667 16.333 -31.167 27 -49.5s21.667 -36.333 33 -54s22 -32.5 32 -44.5v-12h-59c-14.667 12 -31 27.5 -49 46.5s-35 38 -51 57s-28 34.5 -36 46.5v10h103z" />
    <glyph glyph-name="Oacute" unicode="&#xd3;" horiz-adv-x="735" 
d="M678 358c0 -74 -11.667 -138.5 -35 -193.5s-58 -97.833 -104 -128.5s-103 -46 -171 -46c-70 0 -128 15.333 -174 46s-80.333 73.667 -103 129s-34 120 -34 194c0 72.667 11.333 136.5 34 191.5s57.167 97.833 103.5 128.5s104.5 46 174.5 46
c67.333 0 124 -15.167 170 -45.5s80.667 -73 104 -128s35 -119.5 35 -193.5zM151 358c0 -90 17.499 -160.833 52.499 -212.5s89.833 -77.5 164.5 -77.5s129.334 25.833 164.001 77.5s52 122.5 52 212.5s-17.167 160.5 -51.5 211.5s-88.833 76.5 -163.5 76.5
c-75.333 0 -130.5 -25.5 -165.5 -76.5s-52.5 -121.5 -52.5 -211.5zM494.999 955l0.000976562 -10c-8.66699 -12 -21 -27.5 -37 -46.5s-33 -38 -51 -57s-34.667 -34.5 -50 -46.5h-57v12c9.33301 12 19.666 26.833 30.999 44.5s22.333 35.667 33 54s19.667 34.833 27 49.5h104
z" />
    <glyph glyph-name="Ocircumflex" unicode="&#xd4;" horiz-adv-x="735" 
d="M678 358c0 -74 -11.667 -138.5 -35 -193.5s-58 -97.833 -104 -128.5s-103 -46 -171 -46c-70 0 -128 15.333 -174 46s-80.333 73.667 -103 129s-34 120 -34 194c0 72.667 11.333 136.5 34 191.5s57.167 97.833 103.5 128.5s104.5 46 174.5 46
c67.333 0 124 -15.167 170 -45.5s80.667 -73 104 -128s35 -119.5 35 -193.5zM151 358c0 -90 17.499 -160.833 52.499 -212.5s89.833 -77.5 164.5 -77.5s129.334 25.833 164.001 77.5s52 122.5 52 212.5s-17.167 160.5 -51.5 211.5s-88.833 76.5 -163.5 76.5
c-75.333 0 -130.5 -25.5 -165.5 -76.5s-52.5 -121.5 -52.5 -211.5zM411.999 955c8 -14.667 19 -31.168 33 -49.501s28.667 -36.333 44 -54l41 -45.5v-11h-61c-16.667 10.667 -33.667 23.834 -51 39.501s-34.666 32.5 -51.999 50.5c-17.333 -18 -34.333 -34.833 -51 -50.5
s-33.334 -28.834 -50.001 -39.501h-59v11c12 12.667 25.333 27.834 40 45.501l43 54c14 18.333 25 34.833 33 49.5h90z" />
    <glyph glyph-name="Otilde" unicode="&#xd5;" horiz-adv-x="735" 
d="M678 358c0 -74 -11.667 -138.5 -35 -193.5s-58 -97.833 -104 -128.5s-103 -46 -171 -46c-70 0 -128 15.333 -174 46s-80.333 73.667 -103 129s-34 120 -34 194c0 72.667 11.333 136.5 34 191.5s57.167 97.833 103.5 128.5s104.5 46 174.5 46
c67.333 0 124 -15.167 170 -45.5s80.667 -73 104 -128s35 -119.5 35 -193.5zM151 358c0 -90 17.499 -160.833 52.499 -212.5s89.833 -77.5 164.5 -77.5s129.334 25.833 164.001 77.5s52 122.5 52 212.5s-17.167 160.5 -51.5 211.5s-88.833 76.5 -163.5 76.5
c-75.333 0 -130.5 -25.5 -165.5 -76.5s-52.5 -121.5 -52.5 -211.5zM541.999 924c-4 -39.333 -15 -70.5 -33 -93.5s-41.667 -34.5 -71 -34.5c-17.333 0 -34.333 4.66699 -51 14s-32.667 18.833 -48 28.5s-30 14.5 -44 14.5c-14.667 0 -25.834 -4.83301 -33.501 -14.5
s-13.5 -24.167 -17.5 -43.5h-50c4 39.333 15 70.5 33 93.5s42 34.5 72 34.5c18 0 35.5 -4.83301 52.5 -14.5l48 -28.5c15 -9.33301 29.167 -14 42.5 -14c14 0 24.833 4.83301 32.5 14.5s13.834 24.167 18.501 43.5h49z" />
    <glyph glyph-name="Odieresis" unicode="&#xd6;" horiz-adv-x="735" 
d="M678 358c0 -74 -11.667 -138.5 -35 -193.5s-58 -97.833 -104 -128.5s-103 -46 -171 -46c-70 0 -128 15.333 -174 46s-80.333 73.667 -103 129s-34 120 -34 194c0 72.667 11.333 136.5 34 191.5s57.167 97.833 103.5 128.5s104.5 46 174.5 46
c67.333 0 124 -15.167 170 -45.5s80.667 -73 104 -128s35 -119.5 35 -193.5zM151 358c0 -90 17.499 -160.833 52.499 -212.5s89.833 -77.5 164.5 -77.5s129.334 25.833 164.001 77.5s52 122.5 52 212.5s-17.167 160.5 -51.5 211.5s-88.833 76.5 -163.5 76.5
c-75.333 0 -130.5 -25.5 -165.5 -76.5s-52.5 -121.5 -52.5 -211.5zM233.999 870c0 17.333 4.5 29.833 13.5 37.5s19.833 11.5 32.5 11.5c12 0 22.5 -3.83301 31.5 -11.5s13.5 -20.167 13.5 -37.5c0 -16.667 -4.5 -29.167 -13.5 -37.5s-19.5 -12.5 -31.5 -12.5
c-12.667 0 -23.5 4.16699 -32.5 12.5s-13.5 20.833 -13.5 37.5zM410.999 870c0 17.333 4.5 29.833 13.5 37.5s19.5 11.5 31.5 11.5c12.667 0 23.5 -3.83301 32.5 -11.5s13.5 -20.167 13.5 -37.5c0 -16.667 -4.5 -29.167 -13.5 -37.5s-19.833 -12.5 -32.5 -12.5
c-12 0 -22.5 4.16699 -31.5 12.5s-13.5 20.833 -13.5 37.5z" />
    <glyph glyph-name="multiply" unicode="&#xd7;" horiz-adv-x="538" 
d="M427 574l49 -51l-159 -170l158 -170l-49 -51l-159 169l-156 -169l-50 51l157 170l-158 169l50 52l158 -171z" />
    <glyph glyph-name="Oslash" unicode="&#xd8;" horiz-adv-x="735" 
d="M678 358c0 -74 -11.6689 -138.501 -35.002 -193.501s-58 -97.833 -104 -128.5s-103 -46 -171 -46c-70 0 -127.333 15.667 -172 47l-45 -68l-59 40l48 74c-28 32.667 -48.833 72.334 -62.5 119.001s-20.5 99 -20.5 157c0 72.667 11.333 136.5 34 191.5
s57.167 97.833 103.5 128.5s104.5 46 174.5 46c32.667 0 62.834 -4 90.501 -12s52.834 -19 75.501 -33l43 66l59 -41l-47 -71c58.667 -66 88 -158 88 -276zM150.998 357.999c0 -83.333 14.333 -149.333 43 -198l294 451c-31.333 23.333 -71 35 -119 35
c-75.333 0 -130.5 -25.5 -165.5 -76.5s-52.5 -121.5 -52.5 -211.5zM583.998 357.999c0 42 -3.83398 80 -11.501 114s-19.167 63.333 -34.5 88l-295 -454c16 -12 34.5 -21.333 55.5 -28s44.167 -10 69.5 -10c74.667 0 129.334 25.833 164.001 77.5s52 122.5 52 212.5z" />
    <glyph glyph-name="Ugrave" unicode="&#xd9;" horiz-adv-x="689" 
d="M604 714v-461.999c0 -49.333 -9.5 -93.833 -28.5 -133.5s-48 -71 -87 -94s-88.167 -34.5 -147.5 -34.5c-84 0 -147.833 24.167 -191.5 72.5s-65.5 112.166 -65.5 191.499v460h89v-463c0 -58 14.333 -103 43 -135s72 -48 130 -48c59.333 0 102.333 17.167 129 51.5
s40 78.5 40 132.5v462h89zM306 944.001c7.33301 -14.667 16.333 -31.167 27 -49.5s21.667 -36.333 33 -54s22 -32.5 32 -44.5v-12h-59c-14.667 12 -31 27.5 -49 46.5s-35 38 -51 57s-28 34.5 -36 46.5v10h103z" />
    <glyph glyph-name="Uacute" unicode="&#xda;" horiz-adv-x="689" 
d="M604 714v-461.999c0 -49.333 -9.5 -93.833 -28.5 -133.5s-48 -71 -87 -94s-88.167 -34.5 -147.5 -34.5c-84 0 -147.833 24.167 -191.5 72.5s-65.5 112.166 -65.5 191.499v460h89v-463c0 -58 14.333 -103 43 -135s72 -48 130 -48c59.333 0 102.333 17.167 129 51.5
s40 78.5 40 132.5v462h89zM472 944.001l0.000976562 -10c-8.66699 -12 -21 -27.5 -37 -46.5s-33 -38 -51 -57s-34.667 -34.5 -50 -46.5h-57v12c9.33301 12 19.666 26.833 30.999 44.5s22.333 35.667 33 54s19.667 34.833 27 49.5h104z" />
    <glyph glyph-name="Ucircumflex" unicode="&#xdb;" horiz-adv-x="689" 
d="M604 714v-461.999c0 -49.333 -9.5 -93.833 -28.5 -133.5s-48 -71 -87 -94s-88.167 -34.5 -147.5 -34.5c-84 0 -147.833 24.167 -191.5 72.5s-65.5 112.166 -65.5 191.499v460h89v-463c0 -58 14.333 -103 43 -135s72 -48 130 -48c59.333 0 102.333 17.167 129 51.5
s40 78.5 40 132.5v462h89zM389 944.001c8 -14.667 19 -31.168 33 -49.501s28.667 -36.333 44 -54l41 -45.5v-11h-61c-16.667 10.667 -33.667 23.834 -51 39.501s-34.666 32.5 -51.999 50.5c-17.333 -18 -34.333 -34.833 -51 -50.5s-33.334 -28.834 -50.001 -39.501h-59v11
c12 12.667 25.333 27.834 40 45.501l43 54c14 18.333 25 34.833 33 49.5h90z" />
    <glyph glyph-name="Udieresis" unicode="&#xdc;" horiz-adv-x="689" 
d="M604 714v-461.999c0 -49.333 -9.5 -93.833 -28.5 -133.5s-48 -71 -87 -94s-88.167 -34.5 -147.5 -34.5c-84 0 -147.833 24.167 -191.5 72.5s-65.5 112.166 -65.5 191.499v460h89v-463c0 -58 14.333 -103 43 -135s72 -48 130 -48c59.333 0 102.333 17.167 129 51.5
s40 78.5 40 132.5v462h89zM211 859.001c0 17.333 4.5 29.833 13.5 37.5s19.833 11.5 32.5 11.5c12 0 22.5 -3.83301 31.5 -11.5s13.5 -20.167 13.5 -37.5c0 -16.667 -4.5 -29.167 -13.5 -37.5s-19.5 -12.5 -31.5 -12.5c-12.667 0 -23.5 4.16699 -32.5 12.5
s-13.5 20.833 -13.5 37.5zM388 859.001c0 17.333 4.5 29.833 13.5 37.5s19.5 11.5 31.5 11.5c12.667 0 23.5 -3.83301 32.5 -11.5s13.5 -20.167 13.5 -37.5c0 -16.667 -4.5 -29.167 -13.5 -37.5s-19.833 -12.5 -32.5 -12.5c-12 0 -22.5 4.16699 -31.5 12.5
s-13.5 20.833 -13.5 37.5z" />
    <glyph glyph-name="Yacute" unicode="&#xdd;" horiz-adv-x="536" 
d="M268 363l172 351h96l-223 -437v-277h-89v273l-224 441h97zM395 944l0.000976562 -10c-8.66699 -12 -21 -27.5 -37 -46.5s-33 -38 -51 -57s-34.667 -34.5 -50 -46.5h-57v12c9.33301 12 19.666 26.833 30.999 44.5s22.333 35.667 33 54s19.667 34.833 27 49.5h104z" />
    <glyph glyph-name="Thorn" unicode="&#xde;" horiz-adv-x="571" 
d="M523 382c0 -40 -8.16699 -77.333 -24.5 -112s-43.833 -62.5 -82.5 -83.5s-92 -31.5 -160 -31.5h-76v-155h-89v714h89v-124h90c90 0 154.667 -18.333 194 -55s59 -87.667 59 -153zM180 231h66c64 0 110.833 11.167 140.5 33.5s44.5 59.833 44.5 112.5
c0 46 -13.333 80.167 -40 102.5s-69.667 33.5 -129 33.5h-82v-282z" />
    <glyph glyph-name="germandbls" unicode="&#xdf;" horiz-adv-x="599" 
d="M497 617c0 -22.667 -4.50098 -42.5 -13.501 -59.5s-20 -32 -33 -45s-26 -24.833 -39 -35.5s-24 -21.167 -33 -31.5s-13.5 -21.5 -13.5 -33.5c0 -9.33301 2.16699 -17.5 6.5 -24.5s12.5 -15.333 24.5 -25s29.667 -22.834 53 -39.501c33.333 -24 59.666 -48.5 78.999 -73.5
s29 -57.167 29 -96.5c0 -56.667 -16.5 -98 -49.5 -124s-75.833 -39 -128.5 -39c-29.333 0 -55.166 3 -77.499 9s-41.833 14.333 -58.5 25v79c16 -10.667 36 -20.334 60 -29.001s48.333 -13 73 -13c33.333 0 57.5 7.66699 72.5 23s22.5 36.333 22.5 63
c0 24 -6.33301 44.167 -19 60.5s-35.667 36.166 -69 59.499c-39.333 27.333 -66.166 50.833 -80.499 70.5s-21.5 42.834 -21.5 69.501c0 20.667 4.33301 38.334 13 53.001s19.167 27.5 31.5 38.5l37.5 32.5c12.667 10.667 23.334 22.334 32.001 35.001s13 28 13 46
c0 28 -11 48.333 -33 61s-50.333 19 -85 19c-22 0 -42.5 -3.16699 -61.5 -9.5s-34.167 -17.333 -45.5 -33s-17 -37.5 -17 -65.5v-584h-87v584c0 44.667 9.16699 80.167 27.5 106.5s43.5 45.333 75.5 57s68 17.5 108 17.5c61.333 0 111.166 -12.333 149.499 -37
s57.5 -61.667 57.5 -111z" />
    <glyph glyph-name="agrave" unicode="&#xe0;" horiz-adv-x="531" 
d="M272 545c61.333 0 107.167 -14.333 137.5 -43s45.5 -74.334 45.5 -137.001v-365h-63l-17 76h-4c-22 -29.333 -45 -51 -69 -65s-57.333 -21 -100 -21c-45.333 0 -83.166 12.833 -113.499 38.5s-45.5 65.834 -45.5 120.501c0 53.333 19.667 94.5 59 123.5
s100 44.833 182 47.5l85 3v32c0 44.667 -8.83301 75.667 -26.5 93s-42.834 26 -75.501 26c-26 0 -51 -4.16699 -75 -12.5s-46.333 -17.833 -67 -28.5l-27 66c22.667 12.667 49 23.5 79 32.5s61.667 13.5 95 13.5zM369.001 262l-73.001 -2.99902
c-61.333 -2.66699 -103.833 -13.334 -127.5 -32.001s-35.5 -45 -35.5 -79c0 -30 8.33301 -52 25 -66s38.334 -21 65.001 -21c41.333 0 76 12.5 104 37.5s42 63.5 42 115.5v48zM227 766.001c7.33301 -14.667 16.333 -31.167 27 -49.5s21.667 -36.333 33 -54
s22 -32.5 32 -44.5v-12h-59c-14.667 12 -31 27.5 -49 46.5s-35 38 -51 57s-28 34.5 -36 46.5v10h103z" />
    <glyph glyph-name="aacute" unicode="&#xe1;" horiz-adv-x="531" 
d="M272 545c61.333 0 107.167 -14.333 137.5 -43s45.5 -74.334 45.5 -137.001v-365h-63l-17 76h-4c-22 -29.333 -45 -51 -69 -65s-57.333 -21 -100 -21c-45.333 0 -83.166 12.833 -113.499 38.5s-45.5 65.834 -45.5 120.501c0 53.333 19.667 94.5 59 123.5
s100 44.833 182 47.5l85 3v32c0 44.667 -8.83301 75.667 -26.5 93s-42.834 26 -75.501 26c-26 0 -51 -4.16699 -75 -12.5s-46.333 -17.833 -67 -28.5l-27 66c22.667 12.667 49 23.5 79 32.5s61.667 13.5 95 13.5zM369.001 262l-73.001 -2.99902
c-61.333 -2.66699 -103.833 -13.334 -127.5 -32.001s-35.5 -45 -35.5 -79c0 -30 8.33301 -52 25 -66s38.334 -21 65.001 -21c41.333 0 76 12.5 104 37.5s42 63.5 42 115.5v48zM393 766.001l0.000976562 -10c-8.66699 -12 -21 -27.5 -37 -46.5s-33 -38 -51 -57
s-34.667 -34.5 -50 -46.5h-57v12c9.33301 12 19.666 26.833 30.999 44.5s22.333 35.667 33 54s19.667 34.833 27 49.5h104z" />
    <glyph glyph-name="acircumflex" unicode="&#xe2;" horiz-adv-x="531" 
d="M272 545c61.333 0 107.167 -14.333 137.5 -43s45.5 -74.334 45.5 -137.001v-365h-63l-17 76h-4c-22 -29.333 -45 -51 -69 -65s-57.333 -21 -100 -21c-45.333 0 -83.166 12.833 -113.499 38.5s-45.5 65.834 -45.5 120.501c0 53.333 19.667 94.5 59 123.5
s100 44.833 182 47.5l85 3v32c0 44.667 -8.83301 75.667 -26.5 93s-42.834 26 -75.501 26c-26 0 -51 -4.16699 -75 -12.5s-46.333 -17.833 -67 -28.5l-27 66c22.667 12.667 49 23.5 79 32.5s61.667 13.5 95 13.5zM369.001 262l-73.001 -2.99902
c-61.333 -2.66699 -103.833 -13.334 -127.5 -32.001s-35.5 -45 -35.5 -79c0 -30 8.33301 -52 25 -66s38.334 -21 65.001 -21c41.333 0 76 12.5 104 37.5s42 63.5 42 115.5v48zM310 766.001c8 -14.667 19 -31.168 33 -49.501s28.667 -36.333 44 -54l41 -45.5v-11h-61
c-16.667 10.667 -33.667 23.834 -51 39.501s-34.666 32.5 -51.999 50.5c-17.333 -18 -34.333 -34.833 -51 -50.5s-33.334 -28.834 -50.001 -39.501h-59v11c12 12.667 25.333 27.834 40 45.501l43 54c14 18.333 25 34.833 33 49.5h90z" />
    <glyph glyph-name="atilde" unicode="&#xe3;" horiz-adv-x="531" 
d="M272 545c61.333 0 107.167 -14.333 137.5 -43s45.5 -74.334 45.5 -137.001v-365h-63l-17 76h-4c-22 -29.333 -45 -51 -69 -65s-57.333 -21 -100 -21c-45.333 0 -83.166 12.833 -113.499 38.5s-45.5 65.834 -45.5 120.501c0 53.333 19.667 94.5 59 123.5
s100 44.833 182 47.5l85 3v32c0 44.667 -8.83301 75.667 -26.5 93s-42.834 26 -75.501 26c-26 0 -51 -4.16699 -75 -12.5s-46.333 -17.833 -67 -28.5l-27 66c22.667 12.667 49 23.5 79 32.5s61.667 13.5 95 13.5zM369.001 262l-73.001 -2.99902
c-61.333 -2.66699 -103.833 -13.334 -127.5 -32.001s-35.5 -45 -35.5 -79c0 -30 8.33301 -52 25 -66s38.334 -21 65.001 -21c41.333 0 76 12.5 104 37.5s42 63.5 42 115.5v48zM440 735.001c-4 -39.333 -15 -70.5 -33 -93.5s-41.667 -34.5 -71 -34.5
c-17.333 0 -34.333 4.66699 -51 14s-32.667 18.833 -48 28.5s-30 14.5 -44 14.5c-14.667 0 -25.834 -4.83301 -33.501 -14.5s-13.5 -24.167 -17.5 -43.5h-50c4 39.333 15 70.5 33 93.5s42 34.5 72 34.5c18 0 35.5 -4.83301 52.5 -14.5l48 -28.5
c15 -9.33301 29.167 -14 42.5 -14c14 0 24.833 4.83301 32.5 14.5s13.834 24.167 18.501 43.5h49z" />
    <glyph glyph-name="adieresis" unicode="&#xe4;" horiz-adv-x="531" 
d="M272 545c61.333 0 107.167 -14.333 137.5 -43s45.5 -74.334 45.5 -137.001v-365h-63l-17 76h-4c-22 -29.333 -45 -51 -69 -65s-57.333 -21 -100 -21c-45.333 0 -83.166 12.833 -113.499 38.5s-45.5 65.834 -45.5 120.501c0 53.333 19.667 94.5 59 123.5
s100 44.833 182 47.5l85 3v32c0 44.667 -8.83301 75.667 -26.5 93s-42.834 26 -75.501 26c-26 0 -51 -4.16699 -75 -12.5s-46.333 -17.833 -67 -28.5l-27 66c22.667 12.667 49 23.5 79 32.5s61.667 13.5 95 13.5zM369.001 262l-73.001 -2.99902
c-61.333 -2.66699 -103.833 -13.334 -127.5 -32.001s-35.5 -45 -35.5 -79c0 -30 8.33301 -52 25 -66s38.334 -21 65.001 -21c41.333 0 76 12.5 104 37.5s42 63.5 42 115.5v48zM132 681.001c0 17.333 4.5 29.833 13.5 37.5s19.833 11.5 32.5 11.5
c12 0 22.5 -3.83301 31.5 -11.5s13.5 -20.167 13.5 -37.5c0 -16.667 -4.5 -29.167 -13.5 -37.5s-19.5 -12.5 -31.5 -12.5c-12.667 0 -23.5 4.16699 -32.5 12.5s-13.5 20.833 -13.5 37.5zM309 681.001c0 17.333 4.5 29.833 13.5 37.5s19.5 11.5 31.5 11.5
c12.667 0 23.5 -3.83301 32.5 -11.5s13.5 -20.167 13.5 -37.5c0 -16.667 -4.5 -29.167 -13.5 -37.5s-19.833 -12.5 -32.5 -12.5c-12 0 -22.5 4.16699 -31.5 12.5s-13.5 20.833 -13.5 37.5z" />
    <glyph glyph-name="aring" unicode="&#xe5;" horiz-adv-x="531" 
d="M272 545c61.333 0 107.167 -14.333 137.5 -43s45.5 -74.334 45.5 -137.001v-365h-63l-17 76h-4c-22 -29.333 -45 -51 -69 -65s-57.333 -21 -100 -21c-45.333 0 -83.166 12.833 -113.499 38.5s-45.5 65.834 -45.5 120.501c0 53.333 19.667 94.5 59 123.5
s100 44.833 182 47.5l85 3v32c0 44.667 -8.83301 75.667 -26.5 93s-42.834 26 -75.501 26c-26 0 -51 -4.16699 -75 -12.5s-46.333 -17.833 -67 -28.5l-27 66c22.667 12.667 49 23.5 79 32.5s61.667 13.5 95 13.5zM369.001 262l-73.001 -2.99902
c-61.333 -2.66699 -103.833 -13.334 -127.5 -32.001s-35.5 -45 -35.5 -79c0 -30 8.33301 -52 25 -66s38.334 -21 65.001 -21c41.333 0 76 12.5 104 37.5s42 63.5 42 115.5v48zM265 606.001c-30.667 0 -55.5 9.33398 -74.5 28.001s-28.5 44.667 -28.5 78
s9.5 59.166 28.5 77.499s43.833 27.5 74.5 27.5c30 0 55.167 -9.16699 75.5 -27.5s30.5 -43.833 30.5 -76.5c0 -34 -10 -60.333 -30 -79s-45.333 -28 -76 -28zM265 656.002c15.333 0 27.833 5 37.5 15s14.5 23.667 14.5 41s-4.83301 31 -14.5 41s-22.167 15 -37.5 15
c-14.667 0 -27 -5 -37 -15s-15 -23.667 -15 -41s4.5 -31 13.5 -41s21.833 -15 38.5 -15z" />
    <glyph glyph-name="ae" unicode="&#xe6;" horiz-adv-x="816" 
d="M570 546c40.667 0 75.833 -9.99902 105.5 -29.999s52.667 -48 69 -84s24.5 -78 24.5 -126v-54h-323c1.33301 -64 14.166 -111.167 38.499 -141.5s59.5 -45.5 105.5 -45.5c30.667 0 58.167 3.16699 82.5 9.5s48.833 15.5 73.5 27.5v-77
c-25.333 -12 -50.166 -20.833 -74.499 -26.5s-52.5 -8.5 -84.5 -8.5c-88.667 0 -152.667 37.667 -192 113c-22 -34.667 -47.333 -62.167 -76 -82.5s-67.334 -30.5 -116.001 -30.5c-45.333 0 -83.333 12.833 -114 38.5s-46 65.834 -46 120.501
c0 109.333 76.333 166.333 229 171l85 3v34c0 43.333 -9.5 73.666 -28.5 90.999s-43.833 26 -74.5 26c-25.333 0 -50 -4 -74 -12s-46.333 -17.667 -67 -29l-27 66c22.667 12.667 49.667 23.5 81 32.5s62.333 13.5 93 13.5c38.667 0 70.834 -6.83301 96.501 -20.5
s45.167 -35.5 58.5 -65.5c16.667 27.333 38.167 48.666 64.5 63.999s56.5 23 90.5 23zM568.999 474.001c-36 0 -64.5 -13.168 -85.5 -39.501s-33.167 -64.166 -36.5 -113.499h231c0 46 -9 83 -27 111s-45.333 42 -82 42zM354.999 262l-69.001 -2.99902
c-57.333 -2.66699 -97.166 -13.334 -119.499 -32.001s-33.5 -45 -33.5 -79c0 -30 7.83301 -52 23.5 -66s36.5 -21 62.5 -21c38.667 0 71 12.5 97 37.5s39 63.5 39 115.5v48z" />
    <glyph glyph-name="ccedilla" unicode="&#xe7;" horiz-adv-x="454" 
d="M282 -10c-45.333 0 -85.334 9.66797 -120.001 29.001s-61.834 49.333 -81.501 90s-29.5 92.667 -29.5 156c0 66 10.333 119.667 31 161s48.834 71.666 84.501 90.999s76.167 29 121.5 29c26 0 51.167 -2.83301 75.5 -8.5s44.166 -12.5 59.499 -20.5l-27 -73
c-15.333 6 -33.166 11.667 -53.499 17s-39.166 8 -56.499 8c-96.667 0 -145 -67.667 -145 -203c0 -64.667 11.833 -114.167 35.5 -148.5s58.834 -51.5 105.501 -51.5c27.333 0 51.666 3 72.999 9s41 13.333 59 22v-78c-17.333 -9.33301 -36.333 -16.5 -57 -21.5
s-45.667 -7.5 -75 -7.5zM368.999 -138.999c0 -32 -11.5 -56.835 -34.5 -74.502s-57.833 -26.5 -104.5 -26.5c-20.667 0 -37 1.66699 -49 5v55c13.333 -3.33301 30.333 -5 51 -5c21.333 0 37.833 3.16699 49.5 9.5s17.5 17.833 17.5 34.5c0 17.333 -8 30 -24 38
s-36.333 13.667 -61 17l40 86h57l-23 -53c22 -5.33301 41 -14.666 57 -27.999s24 -32.666 24 -57.999z" />
    <glyph glyph-name="egrave" unicode="&#xe8;" horiz-adv-x="532" 
d="M275 546c43.333 0 80.667 -10 112 -30s55.5 -48.167 72.5 -84.5s25.5 -78.833 25.5 -127.5v-53h-344c1.33301 -60.667 15.666 -106.834 42.999 -138.501s65.666 -47.5 114.999 -47.5c32 0 60.5 3.16699 85.5 9.5s50.833 15.5 77.5 27.5v-77
c-26 -12 -51.5 -20.833 -76.5 -26.5s-55.167 -8.5 -90.5 -8.5c-48.667 0 -91.167 10.333 -127.5 31s-64.833 51.334 -85.5 92.001s-31 91 -31 151c0 58.667 9.33301 109 28 151s44.834 74.333 78.501 97s72.834 34 117.501 34zM275.001 474
c-39.333 0 -70.167 -13.499 -92.5 -40.499s-35.5 -64.5 -39.5 -112.5h252c-0.666992 45.333 -10.667 82.166 -30 110.499s-49.333 42.5 -90 42.5zM230 766.001c7.33301 -14.667 16.333 -31.167 27 -49.5s21.667 -36.333 33 -54s22 -32.5 32 -44.5v-12h-59
c-14.667 12 -31 27.5 -49 46.5s-35 38 -51 57s-28 34.5 -36 46.5v10h103z" />
    <glyph glyph-name="eacute" unicode="&#xe9;" horiz-adv-x="532" 
d="M275 546c43.333 0 80.667 -10 112 -30s55.5 -48.167 72.5 -84.5s25.5 -78.833 25.5 -127.5v-53h-344c1.33301 -60.667 15.666 -106.834 42.999 -138.501s65.666 -47.5 114.999 -47.5c32 0 60.5 3.16699 85.5 9.5s50.833 15.5 77.5 27.5v-77
c-26 -12 -51.5 -20.833 -76.5 -26.5s-55.167 -8.5 -90.5 -8.5c-48.667 0 -91.167 10.333 -127.5 31s-64.833 51.334 -85.5 92.001s-31 91 -31 151c0 58.667 9.33301 109 28 151s44.834 74.333 78.501 97s72.834 34 117.501 34zM275.001 474
c-39.333 0 -70.167 -13.499 -92.5 -40.499s-35.5 -64.5 -39.5 -112.5h252c-0.666992 45.333 -10.667 82.166 -30 110.499s-49.333 42.5 -90 42.5zM396 766.001l0.000976562 -10c-8.66699 -12 -21 -27.5 -37 -46.5s-33 -38 -51 -57s-34.667 -34.5 -50 -46.5h-57v12
c9.33301 12 19.666 26.833 30.999 44.5s22.333 35.667 33 54s19.667 34.833 27 49.5h104z" />
    <glyph glyph-name="ecircumflex" unicode="&#xea;" horiz-adv-x="532" 
d="M275 546c43.333 0 80.667 -10 112 -30s55.5 -48.167 72.5 -84.5s25.5 -78.833 25.5 -127.5v-53h-344c1.33301 -60.667 15.666 -106.834 42.999 -138.501s65.666 -47.5 114.999 -47.5c32 0 60.5 3.16699 85.5 9.5s50.833 15.5 77.5 27.5v-77
c-26 -12 -51.5 -20.833 -76.5 -26.5s-55.167 -8.5 -90.5 -8.5c-48.667 0 -91.167 10.333 -127.5 31s-64.833 51.334 -85.5 92.001s-31 91 -31 151c0 58.667 9.33301 109 28 151s44.834 74.333 78.501 97s72.834 34 117.501 34zM275.001 474
c-39.333 0 -70.167 -13.499 -92.5 -40.499s-35.5 -64.5 -39.5 -112.5h252c-0.666992 45.333 -10.667 82.166 -30 110.499s-49.333 42.5 -90 42.5zM313 766.001c8 -14.667 19 -31.168 33 -49.501s28.667 -36.333 44 -54l41 -45.5v-11h-61
c-16.667 10.667 -33.667 23.834 -51 39.501s-34.666 32.5 -51.999 50.5c-17.333 -18 -34.333 -34.833 -51 -50.5s-33.334 -28.834 -50.001 -39.501h-59v11c12 12.667 25.333 27.834 40 45.501l43 54c14 18.333 25 34.833 33 49.5h90z" />
    <glyph glyph-name="edieresis" unicode="&#xeb;" horiz-adv-x="532" 
d="M275 546c43.333 0 80.667 -10 112 -30s55.5 -48.167 72.5 -84.5s25.5 -78.833 25.5 -127.5v-53h-344c1.33301 -60.667 15.666 -106.834 42.999 -138.501s65.666 -47.5 114.999 -47.5c32 0 60.5 3.16699 85.5 9.5s50.833 15.5 77.5 27.5v-77
c-26 -12 -51.5 -20.833 -76.5 -26.5s-55.167 -8.5 -90.5 -8.5c-48.667 0 -91.167 10.333 -127.5 31s-64.833 51.334 -85.5 92.001s-31 91 -31 151c0 58.667 9.33301 109 28 151s44.834 74.333 78.501 97s72.834 34 117.501 34zM275.001 474
c-39.333 0 -70.167 -13.499 -92.5 -40.499s-35.5 -64.5 -39.5 -112.5h252c-0.666992 45.333 -10.667 82.166 -30 110.499s-49.333 42.5 -90 42.5zM135 681.001c0 17.333 4.5 29.833 13.5 37.5s19.833 11.5 32.5 11.5c12 0 22.5 -3.83301 31.5 -11.5s13.5 -20.167 13.5 -37.5
c0 -16.667 -4.5 -29.167 -13.5 -37.5s-19.5 -12.5 -31.5 -12.5c-12.667 0 -23.5 4.16699 -32.5 12.5s-13.5 20.833 -13.5 37.5zM312 681.001c0 17.333 4.5 29.833 13.5 37.5s19.5 11.5 31.5 11.5c12.667 0 23.5 -3.83301 32.5 -11.5s13.5 -20.167 13.5 -37.5
c0 -16.667 -4.5 -29.167 -13.5 -37.5s-19.833 -12.5 -32.5 -12.5c-12 0 -22.5 4.16699 -31.5 12.5s-13.5 20.833 -13.5 37.5z" />
    <glyph glyph-name="igrave" unicode="&#xec;" horiz-adv-x="245" 
d="M166 0h-87v536h87v-536zM84 766c7.33301 -14.667 16.333 -31.167 27 -49.5s21.667 -36.333 33 -54s22 -32.5 32 -44.5v-12h-59c-14.667 12 -31 27.5 -49 46.5s-35 38 -51 57s-28 34.5 -36 46.5v10h103z" />
    <glyph glyph-name="iacute" unicode="&#xed;" horiz-adv-x="245" 
d="M166 0h-87v536h87v-536zM250 766l0.000976562 -10c-8.66699 -12 -21 -27.5 -37 -46.5s-33 -38 -51 -57s-34.667 -34.5 -50 -46.5h-57v12c9.33301 12 19.666 26.833 30.999 44.5s22.333 35.667 33 54s19.667 34.833 27 49.5h104z" />
    <glyph glyph-name="icircumflex" unicode="&#xee;" horiz-adv-x="245" 
d="M166 0h-87v536h87v-536zM167 766c8 -14.667 19 -31.168 33 -49.501s28.667 -36.333 44 -54l41 -45.5v-11h-61c-16.667 10.667 -33.667 23.834 -51 39.501s-34.666 32.5 -51.999 50.5c-17.333 -18 -34.333 -34.833 -51 -50.5s-33.334 -28.834 -50.001 -39.501h-59v11
c12 12.667 25.333 27.834 40 45.501l43 54c14 18.333 25 34.833 33 49.5h90z" />
    <glyph glyph-name="idieresis" unicode="&#xef;" horiz-adv-x="245" 
d="M166 0h-87v536h87v-536zM-11 681c0 17.333 4.5 29.833 13.5 37.5s19.833 11.5 32.5 11.5c12 0 22.5 -3.83301 31.5 -11.5s13.5 -20.167 13.5 -37.5c0 -16.667 -4.5 -29.167 -13.5 -37.5s-19.5 -12.5 -31.5 -12.5c-12.667 0 -23.5 4.16699 -32.5 12.5
s-13.5 20.833 -13.5 37.5zM166 681c0 17.333 4.5 29.833 13.5 37.5s19.5 11.5 31.5 11.5c12.667 0 23.5 -3.83301 32.5 -11.5s13.5 -20.167 13.5 -37.5c0 -16.667 -4.5 -29.167 -13.5 -37.5s-19.833 -12.5 -32.5 -12.5c-12 0 -22.5 4.16699 -31.5 12.5
s-13.5 20.833 -13.5 37.5z" />
    <glyph glyph-name="eth" unicode="&#xf0;" horiz-adv-x="570" 
d="M204 765c20 -10 40.165 -21.002 60.498 -33.002s39.5 -25 57.5 -39l108 67l36 -54l-92 -57c42.667 -42.667 77.667 -95.5 105 -158.5s41 -134.833 41 -215.5c0 -95.333 -21.167 -166.666 -63.5 -213.999s-100.166 -71 -173.499 -71c-45.333 0 -85.5 9.83301 -120.5 29.5
s-62.333 47.667 -82 84s-29.5 79.5 -29.5 129.5c0 74.667 20 133.334 60 176.001s93.667 64 161 64c32.667 0 61.334 -4.66699 86.001 -14s44.334 -24 59.001 -44l4 2c-10 38 -25.167 73 -45.5 105s-43.5 60.667 -69.5 86l-121 -75l-36 55l103 64
c-26.667 19.333 -54.334 37 -83.001 53zM284.998 401.998c-51.333 0 -88.5 -14.833 -111.5 -44.5s-34.5 -72.167 -34.5 -127.5c0 -49.333 11.5 -89.666 34.5 -120.999s60.167 -47 111.5 -47s88.5 16.167 111.5 48.5s34.5 79.166 34.5 140.499
c0 41.333 -11.833 76.833 -35.5 106.5s-60.5 44.5 -110.5 44.5z" />
    <glyph glyph-name="ntilde" unicode="&#xf1;" horiz-adv-x="584" 
d="M325 546c60 0 105.5 -15.667 136.5 -47s46.5 -81.333 46.5 -150v-349h-87v343c0 86 -36.667 129 -110 129c-55.333 0 -93.333 -16.667 -114 -50s-31 -81.333 -31 -144v-278h-87v536h70l13 -73h5c16 28 38.333 48.833 67 62.5s59 20.5 91 20.5zM466 735
c-4 -39.333 -15 -70.5 -33 -93.5s-41.667 -34.5 -71 -34.5c-17.333 0 -34.333 4.66699 -51 14s-32.667 18.833 -48 28.5s-30 14.5 -44 14.5c-14.667 0 -25.834 -4.83301 -33.501 -14.5s-13.5 -24.167 -17.5 -43.5h-50c4 39.333 15 70.5 33 93.5s42 34.5 72 34.5
c18 0 35.5 -4.83301 52.5 -14.5l48 -28.5c15 -9.33301 29.167 -14 42.5 -14c14 0 24.833 4.83301 32.5 14.5s13.834 24.167 18.501 43.5h49z" />
    <glyph glyph-name="ograve" unicode="&#xf2;" horiz-adv-x="570" 
d="M520 269c0 -88.667 -21.3311 -157.334 -63.998 -206.001s-100.334 -73 -173.001 -73c-44.667 0 -84.5 10.833 -119.5 32.5s-62.5 53.334 -82.5 95.001s-30 92.167 -30 151.5c0 88.667 21 157 63 205s99.333 72 172 72c45.333 0 85.666 -10.833 120.999 -32.5
s63 -53 83 -94s30 -91.167 30 -150.5zM141.002 269c0 -63.333 11.5 -113.5 34.5 -150.5s59.5 -55.5 109.5 -55.5s86.667 18.5 110 55.5s35 87.167 35 150.5s-11.667 113 -35 149s-60.333 54 -111 54c-50 0 -86.333 -18 -109 -54s-34 -85.667 -34 -149zM246.002 766
c7.33301 -14.667 16.333 -31.167 27 -49.5s21.667 -36.333 33 -54s22 -32.5 32 -44.5v-12h-59c-14.667 12 -31 27.5 -49 46.5s-35 38 -51 57s-28 34.5 -36 46.5v10h103z" />
    <glyph glyph-name="oacute" unicode="&#xf3;" horiz-adv-x="570" 
d="M520 269c0 -88.667 -21.3311 -157.334 -63.998 -206.001s-100.334 -73 -173.001 -73c-44.667 0 -84.5 10.833 -119.5 32.5s-62.5 53.334 -82.5 95.001s-30 92.167 -30 151.5c0 88.667 21 157 63 205s99.333 72 172 72c45.333 0 85.666 -10.833 120.999 -32.5
s63 -53 83 -94s30 -91.167 30 -150.5zM141.002 269c0 -63.333 11.5 -113.5 34.5 -150.5s59.5 -55.5 109.5 -55.5s86.667 18.5 110 55.5s35 87.167 35 150.5s-11.667 113 -35 149s-60.333 54 -111 54c-50 0 -86.333 -18 -109 -54s-34 -85.667 -34 -149zM412.002 766
l0.000976562 -10c-8.66699 -12 -21 -27.5 -37 -46.5s-33 -38 -51 -57s-34.667 -34.5 -50 -46.5h-57v12c9.33301 12 19.666 26.833 30.999 44.5s22.333 35.667 33 54s19.667 34.833 27 49.5h104z" />
    <glyph glyph-name="ocircumflex" unicode="&#xf4;" horiz-adv-x="570" 
d="M520 269c0 -88.667 -21.3311 -157.334 -63.998 -206.001s-100.334 -73 -173.001 -73c-44.667 0 -84.5 10.833 -119.5 32.5s-62.5 53.334 -82.5 95.001s-30 92.167 -30 151.5c0 88.667 21 157 63 205s99.333 72 172 72c45.333 0 85.666 -10.833 120.999 -32.5
s63 -53 83 -94s30 -91.167 30 -150.5zM141.002 269c0 -63.333 11.5 -113.5 34.5 -150.5s59.5 -55.5 109.5 -55.5s86.667 18.5 110 55.5s35 87.167 35 150.5s-11.667 113 -35 149s-60.333 54 -111 54c-50 0 -86.333 -18 -109 -54s-34 -85.667 -34 -149zM329.002 766
c8 -14.667 19 -31.168 33 -49.501s28.667 -36.333 44 -54l41 -45.5v-11h-61c-16.667 10.667 -33.667 23.834 -51 39.501s-34.666 32.5 -51.999 50.5c-17.333 -18 -34.333 -34.833 -51 -50.5s-33.334 -28.834 -50.001 -39.501h-59v11c12 12.667 25.333 27.834 40 45.501
l43 54c14 18.333 25 34.833 33 49.5h90z" />
    <glyph glyph-name="otilde" unicode="&#xf5;" horiz-adv-x="570" 
d="M520 269c0 -88.667 -21.3311 -157.334 -63.998 -206.001s-100.334 -73 -173.001 -73c-44.667 0 -84.5 10.833 -119.5 32.5s-62.5 53.334 -82.5 95.001s-30 92.167 -30 151.5c0 88.667 21 157 63 205s99.333 72 172 72c45.333 0 85.666 -10.833 120.999 -32.5
s63 -53 83 -94s30 -91.167 30 -150.5zM141.002 269c0 -63.333 11.5 -113.5 34.5 -150.5s59.5 -55.5 109.5 -55.5s86.667 18.5 110 55.5s35 87.167 35 150.5s-11.667 113 -35 149s-60.333 54 -111 54c-50 0 -86.333 -18 -109 -54s-34 -85.667 -34 -149zM459.002 735
c-4 -39.333 -15 -70.5 -33 -93.5s-41.667 -34.5 -71 -34.5c-17.333 0 -34.333 4.66699 -51 14s-32.667 18.833 -48 28.5s-30 14.5 -44 14.5c-14.667 0 -25.834 -4.83301 -33.501 -14.5s-13.5 -24.167 -17.5 -43.5h-50c4 39.333 15 70.5 33 93.5s42 34.5 72 34.5
c18 0 35.5 -4.83301 52.5 -14.5l48 -28.5c15 -9.33301 29.167 -14 42.5 -14c14 0 24.833 4.83301 32.5 14.5s13.834 24.167 18.501 43.5h49z" />
    <glyph glyph-name="odieresis" unicode="&#xf6;" horiz-adv-x="570" 
d="M520 269c0 -88.667 -21.3311 -157.334 -63.998 -206.001s-100.334 -73 -173.001 -73c-44.667 0 -84.5 10.833 -119.5 32.5s-62.5 53.334 -82.5 95.001s-30 92.167 -30 151.5c0 88.667 21 157 63 205s99.333 72 172 72c45.333 0 85.666 -10.833 120.999 -32.5
s63 -53 83 -94s30 -91.167 30 -150.5zM141.002 269c0 -63.333 11.5 -113.5 34.5 -150.5s59.5 -55.5 109.5 -55.5s86.667 18.5 110 55.5s35 87.167 35 150.5s-11.667 113 -35 149s-60.333 54 -111 54c-50 0 -86.333 -18 -109 -54s-34 -85.667 -34 -149zM151.002 681
c0 17.333 4.5 29.833 13.5 37.5s19.833 11.5 32.5 11.5c12 0 22.5 -3.83301 31.5 -11.5s13.5 -20.167 13.5 -37.5c0 -16.667 -4.5 -29.167 -13.5 -37.5s-19.5 -12.5 -31.5 -12.5c-12.667 0 -23.5 4.16699 -32.5 12.5s-13.5 20.833 -13.5 37.5zM328.002 681
c0 17.333 4.5 29.833 13.5 37.5s19.5 11.5 31.5 11.5c12.667 0 23.5 -3.83301 32.5 -11.5s13.5 -20.167 13.5 -37.5c0 -16.667 -4.5 -29.167 -13.5 -37.5s-19.833 -12.5 -32.5 -12.5c-12 0 -22.5 4.16699 -31.5 12.5s-13.5 20.833 -13.5 37.5z" />
    <glyph glyph-name="divide" unicode="&#xf7;" horiz-adv-x="537" 
d="M267 462c-14.667 0 -27.167 4.83301 -37.5 14.5s-15.5 25.167 -15.5 46.5c0 22.667 5.16699 38.334 15.5 47.001s22.833 13 37.5 13s27.167 -4.33301 37.5 -13s15.5 -24.334 15.5 -47.001c0 -21.333 -5.16699 -36.833 -15.5 -46.5s-22.833 -14.5 -37.5 -14.5zM46 317v71
h444v-71h-444zM267 121c-14.667 0 -27.167 4.83301 -37.5 14.5s-15.5 25.167 -15.5 46.5c0 22.667 5.16699 38.334 15.5 47.001s22.833 13 37.5 13s27.167 -4.33301 37.5 -13s15.5 -24.334 15.5 -47.001c0 -21.333 -5.16699 -36.833 -15.5 -46.5s-22.833 -14.5 -37.5 -14.5z
" />
    <glyph glyph-name="oslash" unicode="&#xf8;" horiz-adv-x="570" 
d="M520 269c0 -88.667 -21.333 -157.332 -64 -205.999s-100.334 -73 -173.001 -73c-44.667 0 -84.667 11 -120 33l-37 -56l-56 39l42 62c-19.333 24 -34.333 52.667 -45 86s-16 71.666 -16 114.999c0 88.667 21 157 63 205s99.333 72 172 72c45.333 0 86.333 -12 123 -36
l35 56l57 -38l-41 -63c18.667 -23.333 33.334 -51.5 44.001 -84.5s16 -70.167 16 -111.5zM141 269.002c0 -25.333 1.66797 -48.832 5.00098 -70.499s8.66602 -40.834 15.999 -57.501l203 306c-22 16.667 -49 25 -81 25c-50 0 -86.333 -18 -109 -54s-34 -85.667 -34 -149z
M430.001 269.003c0 50 -7 91 -21 123l-202 -306c21.333 -15.333 47.333 -23 78 -23c50 0 86.667 18.5 110 55.5s35 87.167 35 150.5z" />
    <glyph glyph-name="ugrave" unicode="&#xf9;" horiz-adv-x="583" 
d="M504 536l0.00195312 -536h-70l-13 71h-4c-16.667 -28 -39.334 -48.5 -68.001 -61.5s-59.334 -19.5 -92.001 -19.5c-60 0 -105.5 15.5 -136.5 46.5s-46.5 80.5 -46.5 148.5v351h88v-345c0 -85.333 36.667 -128 110 -128c54.667 0 92.5 16.667 113.5 50
s31.5 81.333 31.5 144v279h87zM253.002 766c7.33301 -14.667 16.333 -31.167 27 -49.5s21.667 -36.333 33 -54s22 -32.5 32 -44.5v-12h-59c-14.667 12 -31 27.5 -49 46.5s-35 38 -51 57s-28 34.5 -36 46.5v10h103z" />
    <glyph glyph-name="uacute" unicode="&#xfa;" horiz-adv-x="583" 
d="M504 536l0.00195312 -536h-70l-13 71h-4c-16.667 -28 -39.334 -48.5 -68.001 -61.5s-59.334 -19.5 -92.001 -19.5c-60 0 -105.5 15.5 -136.5 46.5s-46.5 80.5 -46.5 148.5v351h88v-345c0 -85.333 36.667 -128 110 -128c54.667 0 92.5 16.667 113.5 50
s31.5 81.333 31.5 144v279h87zM419.002 766l0.000976562 -10c-8.66699 -12 -21 -27.5 -37 -46.5s-33 -38 -51 -57s-34.667 -34.5 -50 -46.5h-57v12c9.33301 12 19.666 26.833 30.999 44.5s22.333 35.667 33 54s19.667 34.833 27 49.5h104z" />
    <glyph glyph-name="ucircumflex" unicode="&#xfb;" horiz-adv-x="583" 
d="M504 536l0.00195312 -536h-70l-13 71h-4c-16.667 -28 -39.334 -48.5 -68.001 -61.5s-59.334 -19.5 -92.001 -19.5c-60 0 -105.5 15.5 -136.5 46.5s-46.5 80.5 -46.5 148.5v351h88v-345c0 -85.333 36.667 -128 110 -128c54.667 0 92.5 16.667 113.5 50
s31.5 81.333 31.5 144v279h87zM336.002 766c8 -14.667 19 -31.168 33 -49.501s28.667 -36.333 44 -54l41 -45.5v-11h-61c-16.667 10.667 -33.667 23.834 -51 39.501s-34.666 32.5 -51.999 50.5c-17.333 -18 -34.333 -34.833 -51 -50.5s-33.334 -28.834 -50.001 -39.501h-59
v11c12 12.667 25.333 27.834 40 45.501l43 54c14 18.333 25 34.833 33 49.5h90z" />
    <glyph glyph-name="udieresis" unicode="&#xfc;" horiz-adv-x="583" 
d="M504 536l0.00195312 -536h-70l-13 71h-4c-16.667 -28 -39.334 -48.5 -68.001 -61.5s-59.334 -19.5 -92.001 -19.5c-60 0 -105.5 15.5 -136.5 46.5s-46.5 80.5 -46.5 148.5v351h88v-345c0 -85.333 36.667 -128 110 -128c54.667 0 92.5 16.667 113.5 50
s31.5 81.333 31.5 144v279h87zM158.002 681c0 17.333 4.5 29.833 13.5 37.5s19.833 11.5 32.5 11.5c12 0 22.5 -3.83301 31.5 -11.5s13.5 -20.167 13.5 -37.5c0 -16.667 -4.5 -29.167 -13.5 -37.5s-19.5 -12.5 -31.5 -12.5c-12.667 0 -23.5 4.16699 -32.5 12.5
s-13.5 20.833 -13.5 37.5zM335.002 681c0 17.333 4.5 29.833 13.5 37.5s19.5 11.5 31.5 11.5c12.667 0 23.5 -3.83301 32.5 -11.5s13.5 -20.167 13.5 -37.5c0 -16.667 -4.5 -29.167 -13.5 -37.5s-19.833 -12.5 -32.5 -12.5c-12 0 -22.5 4.16699 -31.5 12.5
s-13.5 20.833 -13.5 37.5z" />
    <glyph glyph-name="yacute" unicode="&#xfd;" horiz-adv-x="484" 
d="M1 536l94.002 -0.000976562l107 -305c9.33301 -27.333 17.666 -53 24.999 -77s12.666 -47 15.999 -69h3c4 16.667 9.66699 38.5 17 65.5s15.666 54.167 24.999 81.5l101 304h95l-217 -610c-18 -50.667 -41.333 -91 -70 -121s-67.334 -45 -116.001 -45
c-15.333 0 -28.666 0.833008 -39.999 2.5s-21 3.5 -29 5.5v70c6.66699 -1.33301 15 -2.66602 25 -3.99902s20.333 -2 31 -2c28.667 0 51.834 8.66699 69.501 26s31.5 40.333 41.5 69l25 71zM369.002 765.999l0.000976562 -10c-8.66699 -12 -21 -27.5 -37 -46.5
s-33 -38 -51 -57s-34.667 -34.5 -50 -46.5h-57v12c9.33301 12 19.666 26.833 30.999 44.5s22.333 35.667 33 54s19.667 34.833 27 49.5h104z" />
    <glyph glyph-name="thorn" unicode="&#xfe;" horiz-adv-x="579" 
d="M528 269c0 -91.333 -18.832 -160.666 -56.499 -207.999s-87.5 -71 -149.5 -71c-38.667 0 -70.667 7.66699 -96 23s-45.333 33.666 -60 54.999h-6c0.666992 -5.33301 1.5 -13.333 2.5 -24s1.83301 -21.667 2.5 -33s1 -20.333 1 -27v-224h-87v1000h87v-224
c0 -9.33301 -0.333008 -21.5 -1 -36.5s-1.33398 -26.833 -2.00098 -35.5h4c15.333 22.667 35 42 59 58s56 24 96 24c62 0 111.833 -23.333 149.5 -70s56.5 -115.667 56.5 -207zM438.001 270c0 67.333 -10.668 117.832 -32.001 151.499s-54.666 50.5 -99.999 50.5
c-50.667 0 -86.667 -15.333 -108 -46s-32 -76.667 -32 -138v-19c0 -66 10 -116.833 30 -152.5s57 -53.5 111 -53.5c44.667 0 77.667 17.833 99 53.5s32 86.834 32 153.501z" />
    <glyph glyph-name="ydieresis" unicode="&#xff;" horiz-adv-x="484" 
d="M1 536l94.002 -0.000976562l107 -305c9.33301 -27.333 17.666 -53 24.999 -77s12.666 -47 15.999 -69h3c4 16.667 9.66699 38.5 17 65.5s15.666 54.167 24.999 81.5l101 304h95l-217 -610c-18 -50.667 -41.333 -91 -70 -121s-67.334 -45 -116.001 -45
c-15.333 0 -28.666 0.833008 -39.999 2.5s-21 3.5 -29 5.5v70c6.66699 -1.33301 15 -2.66602 25 -3.99902s20.333 -2 31 -2c28.667 0 51.834 8.66699 69.501 26s31.5 40.333 41.5 69l25 71zM108.002 680.999c0 17.333 4.5 29.833 13.5 37.5s19.833 11.5 32.5 11.5
c12 0 22.5 -3.83301 31.5 -11.5s13.5 -20.167 13.5 -37.5c0 -16.667 -4.5 -29.167 -13.5 -37.5s-19.5 -12.5 -31.5 -12.5c-12.667 0 -23.5 4.16699 -32.5 12.5s-13.5 20.833 -13.5 37.5zM285.002 680.999c0 17.333 4.5 29.833 13.5 37.5s19.5 11.5 31.5 11.5
c12.667 0 23.5 -3.83301 32.5 -11.5s13.5 -20.167 13.5 -37.5c0 -16.667 -4.5 -29.167 -13.5 -37.5s-19.833 -12.5 -32.5 -12.5c-12 0 -22.5 4.16699 -31.5 12.5s-13.5 20.833 -13.5 37.5z" />
    <glyph glyph-name="Amacron" unicode="&#x100;" horiz-adv-x="604" 
d="M511 0l-78 221h-265l-77 -221h-91l260 717h84l259 -717h-92zM407 301l-73.999 216.001c-2 5.33301 -5 15 -9 29l-13 43.5c-4.66699 15 -8 26.5 -10 34.5c-4.66699 -20.667 -9.83398 -40.834 -15.501 -60.501s-10.5 -35.167 -14.5 -46.5l-74 -216h210zM441.001 855.001
v-71h-282v71h282z" />
    <glyph glyph-name="amacron" unicode="&#x101;" horiz-adv-x="531" 
d="M272 545c61.333 0 107.167 -14.333 137.5 -43s45.5 -74.334 45.5 -137.001v-365h-63l-17 76h-4c-22 -29.333 -45 -51 -69 -65s-57.333 -21 -100 -21c-45.333 0 -83.166 12.833 -113.499 38.5s-45.5 65.834 -45.5 120.501c0 53.333 19.667 94.5 59 123.5
s100 44.833 182 47.5l85 3v32c0 44.667 -8.83301 75.667 -26.5 93s-42.834 26 -75.501 26c-26 0 -51 -4.16699 -75 -12.5s-46.333 -17.833 -67 -28.5l-27 66c22.667 12.667 49 23.5 79 32.5s61.667 13.5 95 13.5zM369.001 262l-73.001 -2.99902
c-61.333 -2.66699 -103.833 -13.334 -127.5 -32.001s-35.5 -45 -35.5 -79c0 -30 8.33301 -52 25 -66s38.334 -21 65.001 -21c41.333 0 76 12.5 104 37.5s42 63.5 42 115.5v48zM406 677.001v-71h-282v71h282z" />
    <glyph glyph-name="Abreve" unicode="&#x102;" horiz-adv-x="604" 
d="M511 0l-78 221h-265l-77 -221h-91l260 717h84l259 -717h-92zM407 301l-73.999 216.001c-2 5.33301 -5 15 -9 29l-13 43.5c-4.66699 15 -8 26.5 -10 34.5c-4.66699 -20.667 -9.83398 -40.834 -15.501 -60.501s-10.5 -35.167 -14.5 -46.5l-74 -216h210zM450.001 918.001
c-3.33301 -40 -18 -72.334 -44 -97.001s-61.667 -37 -107 -37c-47.333 0 -83 12 -107 36s-37.333 56.667 -40 98h53c2.66699 -27.333 12 -44.666 28 -51.999s38.333 -11 67 -11c24.667 0 46 4 64 12s28.667 25 32 51h54z" />
    <glyph glyph-name="abreve" unicode="&#x103;" horiz-adv-x="531" 
d="M272 545c61.333 0 107.167 -14.333 137.5 -43s45.5 -74.334 45.5 -137.001v-365h-63l-17 76h-4c-22 -29.333 -45 -51 -69 -65s-57.333 -21 -100 -21c-45.333 0 -83.166 12.833 -113.499 38.5s-45.5 65.834 -45.5 120.501c0 53.333 19.667 94.5 59 123.5
s100 44.833 182 47.5l85 3v32c0 44.667 -8.83301 75.667 -26.5 93s-42.834 26 -75.501 26c-26 0 -51 -4.16699 -75 -12.5s-46.333 -17.833 -67 -28.5l-27 66c22.667 12.667 49 23.5 79 32.5s61.667 13.5 95 13.5zM369.001 262l-73.001 -2.99902
c-61.333 -2.66699 -103.833 -13.334 -127.5 -32.001s-35.5 -45 -35.5 -79c0 -30 8.33301 -52 25 -66s38.334 -21 65.001 -21c41.333 0 76 12.5 104 37.5s42 63.5 42 115.5v48zM415 740.001c-3.33301 -40 -18 -72.334 -44 -97.001s-61.667 -37 -107 -37
c-47.333 0 -83 12 -107 36s-37.333 56.667 -40 98h53c2.66699 -27.333 12 -44.666 28 -51.999s38.333 -11 67 -11c24.667 0 46 4 64 12s28.667 25 32 51h54z" />
    <glyph glyph-name="Aogonek" unicode="&#x104;" horiz-adv-x="604" 
d="M511 0l-78 221h-265l-77 -221h-91l260 717h84l259 -717h-92zM407 301l-73.999 216.001c-2 5.33301 -5 15 -9 29l-13 43.5c-4.66699 15 -8 26.5 -10 34.5c-4.66699 -20.667 -9.83398 -40.834 -15.501 -60.501s-10.5 -35.167 -14.5 -46.5l-74 -216h210zM541.001 -115.999
c0 -30 14.001 -44.999 42.001 -44.999c10 0 18.833 0.833008 26.5 2.5s13.834 2.83398 18.501 3.50098v-56c-8.66699 -2.66699 -17.5 -4.83398 -26.5 -6.50098s-19.833 -2.5 -32.5 -2.5c-33.333 0 -58 8.33301 -74 25s-24 39.667 -24 69c0 18.667 4.66699 37.167 14 55.5
s20.666 34.833 33.999 49.5s26.666 26.667 39.999 36l46 -15c-21.333 -21.333 -37.333 -40.833 -48 -58.5s-16 -36.834 -16 -57.501z" />
    <glyph glyph-name="aogonek" unicode="&#x105;" horiz-adv-x="531" 
d="M272 545c61.333 0 107.167 -14.333 137.5 -43s45.5 -74.334 45.5 -137.001v-365h-63l-17 76h-4c-22 -29.333 -45 -51 -69 -65s-57.333 -21 -100 -21c-45.333 0 -83.166 12.833 -113.499 38.5s-45.5 65.834 -45.5 120.501c0 53.333 19.667 94.5 59 123.5
s100 44.833 182 47.5l85 3v32c0 44.667 -8.83301 75.667 -26.5 93s-42.834 26 -75.501 26c-26 0 -51 -4.16699 -75 -12.5s-46.333 -17.833 -67 -28.5l-27 66c22.667 12.667 49 23.5 79 32.5s61.667 13.5 95 13.5zM369.001 262l-73.001 -2.99902
c-61.333 -2.66699 -103.833 -13.334 -127.5 -32.001s-35.5 -45 -35.5 -79c0 -30 8.33301 -52 25 -66s38.334 -21 65.001 -21c41.333 0 76 12.5 104 37.5s42 63.5 42 115.5v48zM408 -115.999c0 -30 14.001 -44.999 42.001 -44.999c10 0 18.833 0.833008 26.5 2.5
s13.834 2.83398 18.501 3.50098v-56c-8.66699 -2.66699 -17.5 -4.83398 -26.5 -6.50098s-19.833 -2.5 -32.5 -2.5c-33.333 0 -58 8.33301 -74 25s-24 39.667 -24 69c0 18.667 4.66699 37.167 14 55.5s20.666 34.833 33.999 49.5s26.666 26.667 39.999 36l46 -15
c-21.333 -21.333 -37.333 -40.833 -48 -58.5s-16 -36.834 -16 -57.501z" />
    <glyph glyph-name="Cacute" unicode="&#x106;" horiz-adv-x="594" 
d="M378 645c-70.667 0 -126.168 -25.667 -166.501 -77s-60.5 -121.666 -60.5 -210.999c0 -88.667 18.833 -158.834 56.5 -210.501s94.167 -77.5 169.5 -77.5c28.667 0 56.334 2.66699 83.001 8s53 12 79 20v-78c-25.333 -10 -51.5 -17.333 -78.5 -22s-58.833 -7 -95.5 -7
c-68.667 0 -125.834 15 -171.501 45s-79.834 72.667 -102.501 128s-34 120.333 -34 195c0 72 12.333 135.5 37 190.5s61 98 109 129s106.667 46.5 176 46.5c70 0 132 -14 186 -42l-35 -76c-21.333 10 -44.666 19 -69.999 27s-52.666 12 -81.999 12zM483.999 944
l0.000976562 -10c-8.66699 -12 -21 -27.5 -37 -46.5s-33 -38 -51 -57s-34.667 -34.5 -50 -46.5h-57v12c9.33301 12 19.666 26.833 30.999 44.5s22.333 35.667 33 54s19.667 34.833 27 49.5h104z" />
    <glyph glyph-name="cacute" unicode="&#x107;" horiz-adv-x="454" 
d="M282 -10c-45.333 0 -85.334 9.66797 -120.001 29.001s-61.834 49.333 -81.501 90s-29.5 92.667 -29.5 156c0 66 10.333 119.667 31 161s48.834 71.666 84.501 90.999s76.167 29 121.5 29c26 0 51.167 -2.83301 75.5 -8.5s44.166 -12.5 59.499 -20.5l-27 -73
c-15.333 6 -33.166 11.667 -53.499 17s-39.166 8 -56.499 8c-96.667 0 -145 -67.667 -145 -203c0 -64.667 11.833 -114.167 35.5 -148.5s58.834 -51.5 105.501 -51.5c27.333 0 51.666 3 72.999 9s41 13.333 59 22v-78c-17.333 -9.33301 -36.333 -16.5 -57 -21.5
s-45.667 -7.5 -75 -7.5zM393.999 766.001l0.000976562 -10c-8.66699 -12 -21 -27.5 -37 -46.5s-33 -38 -51 -57s-34.667 -34.5 -50 -46.5h-57v12c9.33301 12 19.666 26.833 30.999 44.5s22.333 35.667 33 54s19.667 34.833 27 49.5h104z" />
    <glyph glyph-name="Ccircumflex" unicode="&#x108;" horiz-adv-x="594" 
d="M378 645c-70.667 0 -126.168 -25.667 -166.501 -77s-60.5 -121.666 -60.5 -210.999c0 -88.667 18.833 -158.834 56.5 -210.501s94.167 -77.5 169.5 -77.5c28.667 0 56.334 2.66699 83.001 8s53 12 79 20v-78c-25.333 -10 -51.5 -17.333 -78.5 -22s-58.833 -7 -95.5 -7
c-68.667 0 -125.834 15 -171.501 45s-79.834 72.667 -102.501 128s-34 120.333 -34 195c0 72 12.333 135.5 37 190.5s61 98 109 129s106.667 46.5 176 46.5c70 0 132 -14 186 -42l-35 -76c-21.333 10 -44.666 19 -69.999 27s-52.666 12 -81.999 12zM400.999 944
c8 -14.667 19 -31.168 33 -49.501s28.667 -36.333 44 -54l41 -45.5v-11h-61c-16.667 10.667 -33.667 23.834 -51 39.501s-34.666 32.5 -51.999 50.5c-17.333 -18 -34.333 -34.833 -51 -50.5s-33.334 -28.834 -50.001 -39.501h-59v11c12 12.667 25.333 27.834 40 45.501
l43 54c14 18.333 25 34.833 33 49.5h90z" />
    <glyph glyph-name="ccircumflex" unicode="&#x109;" horiz-adv-x="454" 
d="M282 -10c-45.333 0 -85.334 9.66797 -120.001 29.001s-61.834 49.333 -81.501 90s-29.5 92.667 -29.5 156c0 66 10.333 119.667 31 161s48.834 71.666 84.501 90.999s76.167 29 121.5 29c26 0 51.167 -2.83301 75.5 -8.5s44.166 -12.5 59.499 -20.5l-27 -73
c-15.333 6 -33.166 11.667 -53.499 17s-39.166 8 -56.499 8c-96.667 0 -145 -67.667 -145 -203c0 -64.667 11.833 -114.167 35.5 -148.5s58.834 -51.5 105.501 -51.5c27.333 0 51.666 3 72.999 9s41 13.333 59 22v-78c-17.333 -9.33301 -36.333 -16.5 -57 -21.5
s-45.667 -7.5 -75 -7.5zM310.999 766.001c8 -14.667 19 -31.168 33 -49.501s28.667 -36.333 44 -54l41 -45.5v-11h-61c-16.667 10.667 -33.667 23.834 -51 39.501s-34.666 32.5 -51.999 50.5c-17.333 -18 -34.333 -34.833 -51 -50.5s-33.334 -28.834 -50.001 -39.501h-59v11
c12 12.667 25.333 27.834 40 45.501l43 54c14 18.333 25 34.833 33 49.5h90z" />
    <glyph glyph-name="Cdot" unicode="&#x10a;" horiz-adv-x="594" 
d="M378 645c-70.667 0 -126.168 -25.667 -166.501 -77s-60.5 -121.666 -60.5 -210.999c0 -88.667 18.833 -158.834 56.5 -210.501s94.167 -77.5 169.5 -77.5c28.667 0 56.334 2.66699 83.001 8s53 12 79 20v-78c-25.333 -10 -51.5 -17.333 -78.5 -22s-58.833 -7 -95.5 -7
c-68.667 0 -125.834 15 -171.501 45s-79.834 72.667 -102.501 128s-34 120.333 -34 195c0 72 12.333 135.5 37 190.5s61 98 109 129s106.667 46.5 176 46.5c70 0 132 -14 186 -42l-35 -76c-21.333 10 -44.666 19 -69.999 27s-52.666 12 -81.999 12zM356.999 915
c13.333 0 25 -4.5 35 -13.5s15 -23.167 15 -42.5s-5 -33.5 -15 -42.5s-21.667 -13.5 -35 -13.5c-14 0 -26 4.5 -36 13.5s-15 23.167 -15 42.5s5 33.5 15 42.5s22 13.5 36 13.5z" />
    <glyph glyph-name="cdot" unicode="&#x10b;" horiz-adv-x="454" 
d="M282 -10c-45.333 0 -85.334 9.66797 -120.001 29.001s-61.834 49.333 -81.501 90s-29.5 92.667 -29.5 156c0 66 10.333 119.667 31 161s48.834 71.666 84.501 90.999s76.167 29 121.5 29c26 0 51.167 -2.83301 75.5 -8.5s44.166 -12.5 59.499 -20.5l-27 -73
c-15.333 6 -33.166 11.667 -53.499 17s-39.166 8 -56.499 8c-96.667 0 -145 -67.667 -145 -203c0 -64.667 11.833 -114.167 35.5 -148.5s58.834 -51.5 105.501 -51.5c27.333 0 51.666 3 72.999 9s41 13.333 59 22v-78c-17.333 -9.33301 -36.333 -16.5 -57 -21.5
s-45.667 -7.5 -75 -7.5zM266.999 737.001c13.333 0 25 -4.5 35 -13.5s15 -23.167 15 -42.5s-5 -33.5 -15 -42.5s-21.667 -13.5 -35 -13.5c-14 0 -26 4.5 -36 13.5s-15 23.167 -15 42.5s5 33.5 15 42.5s22 13.5 36 13.5z" />
    <glyph glyph-name="Ccaron" unicode="&#x10c;" horiz-adv-x="594" 
d="M378 645c-70.667 0 -126.168 -25.667 -166.501 -77s-60.5 -121.666 -60.5 -210.999c0 -88.667 18.833 -158.834 56.5 -210.501s94.167 -77.5 169.5 -77.5c28.667 0 56.334 2.66699 83.001 8s53 12 79 20v-78c-25.333 -10 -51.5 -17.333 -78.5 -22s-58.833 -7 -95.5 -7
c-68.667 0 -125.834 15 -171.501 45s-79.834 72.667 -102.501 128s-34 120.333 -34 195c0 72 12.333 135.5 37 190.5s61 98 109 129s106.667 46.5 176 46.5c70 0 132 -14 186 -42l-35 -76c-21.333 10 -44.666 19 -69.999 27s-52.666 12 -81.999 12zM518.999 944v-13l-41 -45
c-15.333 -17.333 -30 -35 -44 -53s-25 -34.333 -33 -49h-90c-8 14.667 -19 31 -33 49s-28.5 35.667 -43.5 53l-39.5 45v13h59c16.667 -11.333 33.834 -25 51.501 -41s34.167 -33 49.5 -51c17.333 18 34.666 35 51.999 51s34.333 29.667 51 41h61z" />
    <glyph glyph-name="ccaron" unicode="&#x10d;" horiz-adv-x="454" 
d="M282 -10c-45.333 0 -85.334 9.66797 -120.001 29.001s-61.834 49.333 -81.501 90s-29.5 92.667 -29.5 156c0 66 10.333 119.667 31 161s48.834 71.666 84.501 90.999s76.167 29 121.5 29c26 0 51.167 -2.83301 75.5 -8.5s44.166 -12.5 59.499 -20.5l-27 -73
c-15.333 6 -33.166 11.667 -53.499 17s-39.166 8 -56.499 8c-96.667 0 -145 -67.667 -145 -203c0 -64.667 11.833 -114.167 35.5 -148.5s58.834 -51.5 105.501 -51.5c27.333 0 51.666 3 72.999 9s41 13.333 59 22v-78c-17.333 -9.33301 -36.333 -16.5 -57 -21.5
s-45.667 -7.5 -75 -7.5zM428.999 766.001v-13l-41 -45c-15.333 -17.333 -30 -35 -44 -53s-25 -34.333 -33 -49h-90c-8 14.667 -19 31 -33 49s-28.5 35.667 -43.5 53l-39.5 45v13h59c16.667 -11.333 33.834 -25 51.501 -41s34.167 -33 49.5 -51
c17.333 18 34.666 35 51.999 51s34.333 29.667 51 41h61z" />
    <glyph glyph-name="Dcaron" unicode="&#x10e;" horiz-adv-x="687" 
d="M630 364c0 -120.667 -31 -211.5 -93 -272.5s-148.333 -91.5 -259 -91.5h-187v714h207c68 0 126.833 -13.333 176.5 -40s88 -66 115 -118s40.5 -116 40.5 -192zM536 361c0 95.333 -21.668 165.167 -65.001 209.5s-104.666 66.5 -183.999 66.5h-107v-560h89
c178 0 267 94.667 267 284zM501.999 944.001v-13l-41 -45c-15.333 -17.333 -30 -35 -44 -53s-25 -34.333 -33 -49h-90c-8 14.667 -19 31 -33 49s-28.5 35.667 -43.5 53l-39.5 45v13h59c16.667 -11.333 33.834 -25 51.501 -41s34.167 -33 49.5 -51
c17.333 18 34.666 35 51.999 51s34.333 29.667 51 41h61z" />
    <glyph glyph-name="dcaron" unicode="&#x10f;" horiz-adv-x="615" 
d="M257 -10c-62 0 -111.833 23.167 -149.5 69.5s-56.5 115.5 -56.5 207.5s19 161.5 57 208.5s88 70.5 150 70.5c38.667 0 70.334 -7.66699 95.001 -23s44.667 -34 60 -56h6c-0.666992 8.66699 -1.83398 21.5 -3.50098 38.5s-2.5 30.5 -2.5 40.5v214h87v-760h-70l-13 72h-4
c-15.333 -22.667 -35.333 -42 -60 -58s-56.667 -24 -96 -24zM273 63c52 0 88.499 15.499 109.499 46.499s31.5 77.833 31.5 140.5v16c0 66.667 -10 117.834 -30 153.501s-57.333 53.5 -112 53.5c-44 0 -76.833 -18.833 -98.5 -56.5s-32.5 -88.167 -32.5 -151.5
c0 -64 10.833 -113.667 32.5 -149s54.834 -53 99.501 -53zM670.999 759.999l-0.000976562 -9.00098c-3.33301 -12 -8.5 -27 -15.5 -45s-15.167 -36.5 -24.5 -55.5s-18.666 -35.833 -27.999 -50.5h-48v12c4 12.667 8 27.834 12 45.501s7.83301 35.5 11.5 53.5
s6.16699 34.333 7.5 49h85z" />
    <glyph glyph-name="Dcroat" unicode="&#x110;" horiz-adv-x="687" 
d="M298 714c67.333 0 125.833 -13.333 175.5 -40s88.167 -66 115.5 -118s41 -116 41 -192c0 -120.667 -31 -211.5 -93 -272.5s-148.667 -91.5 -260 -91.5h-180v314h-69v78h69v322h201zM287 637l-101.001 0.000976562v-245h163v-78h-163v-237h83c178 0 267 94.667 267 284
c0 95.333 -21.667 165.166 -65 209.499s-104.666 66.5 -183.999 66.5z" />
    <glyph glyph-name="dcroat" unicode="&#x111;" horiz-adv-x="582" 
d="M257 -10c-62.667 0 -112.667 23 -150 69s-56 114.667 -56 206c0 93.333 19 163 57 209s87.667 69 149 69c39.333 0 71.333 -7.66699 96 -23s44.667 -34 60 -56h6c-1.33301 8.66699 -2.66602 21.5 -3.99902 38.5s-2 30.833 -2 41.5v61h-196v66h196v89h87v-89h71v-66h-71
v-605h-71l-13 72h-4c-14.667 -22.667 -34.334 -42 -59.001 -58s-56.667 -24 -96 -24zM274 63c51.333 0 87.501 15.333 108.501 46s31.5 77 31.5 139v17c0 67.333 -10 118.333 -30 153s-57.333 52 -112 52c-44 0 -76.667 -18.333 -98 -55s-32 -87 -32 -151
s10.667 -113.5 32 -148.5s54.666 -52.5 99.999 -52.5z" />
    <glyph glyph-name="Emacron" unicode="&#x112;" horiz-adv-x="523" 
d="M467 0h-376v714h376v-79h-287v-223h270v-78h-270v-255h287v-79zM427 855v-71h-282v71h282z" />
    <glyph glyph-name="emacron" unicode="&#x113;" horiz-adv-x="532" 
d="M275 546c43.333 0 80.667 -10 112 -30s55.5 -48.167 72.5 -84.5s25.5 -78.833 25.5 -127.5v-53h-344c1.33301 -60.667 15.666 -106.834 42.999 -138.501s65.666 -47.5 114.999 -47.5c32 0 60.5 3.16699 85.5 9.5s50.833 15.5 77.5 27.5v-77
c-26 -12 -51.5 -20.833 -76.5 -26.5s-55.167 -8.5 -90.5 -8.5c-48.667 0 -91.167 10.333 -127.5 31s-64.833 51.334 -85.5 92.001s-31 91 -31 151c0 58.667 9.33301 109 28 151s44.834 74.333 78.501 97s72.834 34 117.501 34zM275.001 474
c-39.333 0 -70.167 -13.499 -92.5 -40.499s-35.5 -64.5 -39.5 -112.5h252c-0.666992 45.333 -10.667 82.166 -30 110.499s-49.333 42.5 -90 42.5zM409 677.001v-71h-282v71h282z" />
    <glyph glyph-name="Ebreve" unicode="&#x114;" horiz-adv-x="523" 
d="M467 0h-376v714h376v-79h-287v-223h270v-78h-270v-255h287v-79zM436 918c-3.33301 -40 -18 -72.334 -44 -97.001s-61.667 -37 -107 -37c-47.333 0 -83 12 -107 36s-37.333 56.667 -40 98h53c2.66699 -27.333 12 -44.666 28 -51.999s38.333 -11 67 -11
c24.667 0 46 4 64 12s28.667 25 32 51h54z" />
    <glyph glyph-name="ebreve" unicode="&#x115;" horiz-adv-x="532" 
d="M275 546c43.333 0 80.667 -10 112 -30s55.5 -48.167 72.5 -84.5s25.5 -78.833 25.5 -127.5v-53h-344c1.33301 -60.667 15.666 -106.834 42.999 -138.501s65.666 -47.5 114.999 -47.5c32 0 60.5 3.16699 85.5 9.5s50.833 15.5 77.5 27.5v-77
c-26 -12 -51.5 -20.833 -76.5 -26.5s-55.167 -8.5 -90.5 -8.5c-48.667 0 -91.167 10.333 -127.5 31s-64.833 51.334 -85.5 92.001s-31 91 -31 151c0 58.667 9.33301 109 28 151s44.834 74.333 78.501 97s72.834 34 117.501 34zM275.001 474
c-39.333 0 -70.167 -13.499 -92.5 -40.499s-35.5 -64.5 -39.5 -112.5h252c-0.666992 45.333 -10.667 82.166 -30 110.499s-49.333 42.5 -90 42.5zM418 740.001c-3.33301 -40 -18 -72.334 -44 -97.001s-61.667 -37 -107 -37c-47.333 0 -83 12 -107 36s-37.333 56.667 -40 98
h53c2.66699 -27.333 12 -44.666 28 -51.999s38.333 -11 67 -11c24.667 0 46 4 64 12s28.667 25 32 51h54z" />
    <glyph glyph-name="Edotaccent" unicode="&#x116;" horiz-adv-x="523" 
d="M467 0h-376v714h376v-79h-287v-223h270v-78h-270v-255h287v-79zM287 915c13.333 0 25 -4.5 35 -13.5s15 -23.167 15 -42.5s-5 -33.5 -15 -42.5s-21.667 -13.5 -35 -13.5c-14 0 -26 4.5 -36 13.5s-15 23.167 -15 42.5s5 33.5 15 42.5s22 13.5 36 13.5z" />
    <glyph glyph-name="edotaccent" unicode="&#x117;" horiz-adv-x="532" 
d="M275 546c43.333 0 80.667 -10 112 -30s55.5 -48.167 72.5 -84.5s25.5 -78.833 25.5 -127.5v-53h-344c1.33301 -60.667 15.666 -106.834 42.999 -138.501s65.666 -47.5 114.999 -47.5c32 0 60.5 3.16699 85.5 9.5s50.833 15.5 77.5 27.5v-77
c-26 -12 -51.5 -20.833 -76.5 -26.5s-55.167 -8.5 -90.5 -8.5c-48.667 0 -91.167 10.333 -127.5 31s-64.833 51.334 -85.5 92.001s-31 91 -31 151c0 58.667 9.33301 109 28 151s44.834 74.333 78.501 97s72.834 34 117.501 34zM275.001 474
c-39.333 0 -70.167 -13.499 -92.5 -40.499s-35.5 -64.5 -39.5 -112.5h252c-0.666992 45.333 -10.667 82.166 -30 110.499s-49.333 42.5 -90 42.5zM269 737.001c13.333 0 25 -4.5 35 -13.5s15 -23.167 15 -42.5s-5 -33.5 -15 -42.5s-21.667 -13.5 -35 -13.5
c-14 0 -26 4.5 -36 13.5s-15 23.167 -15 42.5s5 33.5 15 42.5s22 13.5 36 13.5z" />
    <glyph glyph-name="Eogonek" unicode="&#x118;" horiz-adv-x="523" 
d="M467 0h-376v714h376v-79h-287v-223h270v-78h-270v-255h287v-79zM394 -116c0 -30 14.001 -44.999 42.001 -44.999c10 0 18.833 0.833008 26.5 2.5s13.834 2.83398 18.501 3.50098v-56c-8.66699 -2.66699 -17.5 -4.83398 -26.5 -6.50098s-19.833 -2.5 -32.5 -2.5
c-33.333 0 -58 8.33301 -74 25s-24 39.667 -24 69c0 18.667 4.66699 37.167 14 55.5s20.666 34.833 33.999 49.5s26.666 26.667 39.999 36l46 -15c-21.333 -21.333 -37.333 -40.833 -48 -58.5s-16 -36.834 -16 -57.501z" />
    <glyph glyph-name="eogonek" unicode="&#x119;" horiz-adv-x="532" 
d="M359 -116c0 -30 15 -45.001 45 -45.001c10.667 0 20 0.833008 28 2.5s14.667 2.83398 20 3.50098v-56c-9.33301 -2.66699 -18.666 -4.83398 -27.999 -6.50098s-20.666 -2.5 -33.999 -2.5c-35.333 0 -61.333 8.33301 -78 25s-25 39.667 -25 69c0 22 6.66699 43.5 20 64.5
s28.333 39.167 45 54.5c-17.333 -2 -36.333 -3 -57 -3c-48.667 0 -91.167 10.333 -127.5 31s-64.833 51.334 -85.5 92.001s-31 91 -31 151c0 58.667 9.33301 109 28 151s44.834 74.333 78.501 97s72.834 34 117.501 34c43.333 0 80.666 -10 111.999 -30
s55.5 -48.167 72.5 -84.5s25.5 -78.833 25.5 -127.5v-53h-344c1.33301 -60.667 15.666 -106.834 42.999 -138.501s65.666 -47.5 114.999 -47.5c32 0 60.5 3.16699 85.5 9.5s50.833 15.5 77.5 27.5v-77c-2.66699 -1.33301 -5 -2.33301 -7 -3
c-38.667 -31.333 -64.334 -57.166 -77.001 -77.499s-19 -40.5 -19 -60.5zM275 473.999c-39.333 0 -70.167 -13.499 -92.5 -40.499s-35.5 -64.5 -39.5 -112.5h252c-0.666992 45.333 -10.667 82.166 -30 110.499s-49.333 42.5 -90 42.5z" />
    <glyph glyph-name="Ecaron" unicode="&#x11a;" horiz-adv-x="523" 
d="M467 0h-376v714h376v-79h-287v-223h270v-78h-270v-255h287v-79zM449 944v-13l-41 -45c-15.333 -17.333 -30 -35 -44 -53s-25 -34.333 -33 -49h-90c-8 14.667 -19 31 -33 49s-28.5 35.667 -43.5 53l-39.5 45v13h59c16.667 -11.333 33.834 -25 51.501 -41
s34.167 -33 49.5 -51c17.333 18 34.666 35 51.999 51s34.333 29.667 51 41h61z" />
    <glyph glyph-name="ecaron" unicode="&#x11b;" horiz-adv-x="532" 
d="M275 546c43.333 0 80.667 -10 112 -30s55.5 -48.167 72.5 -84.5s25.5 -78.833 25.5 -127.5v-53h-344c1.33301 -60.667 15.666 -106.834 42.999 -138.501s65.666 -47.5 114.999 -47.5c32 0 60.5 3.16699 85.5 9.5s50.833 15.5 77.5 27.5v-77
c-26 -12 -51.5 -20.833 -76.5 -26.5s-55.167 -8.5 -90.5 -8.5c-48.667 0 -91.167 10.333 -127.5 31s-64.833 51.334 -85.5 92.001s-31 91 -31 151c0 58.667 9.33301 109 28 151s44.834 74.333 78.501 97s72.834 34 117.501 34zM275.001 474
c-39.333 0 -70.167 -13.499 -92.5 -40.499s-35.5 -64.5 -39.5 -112.5h252c-0.666992 45.333 -10.667 82.166 -30 110.499s-49.333 42.5 -90 42.5zM431 766.001v-13l-41 -45c-15.333 -17.333 -30 -35 -44 -53s-25 -34.333 -33 -49h-90c-8 14.667 -19 31 -33 49
s-28.5 35.667 -43.5 53l-39.5 45v13h59c16.667 -11.333 33.834 -25 51.501 -41s34.167 -33 49.5 -51c17.333 18 34.666 35 51.999 51s34.333 29.667 51 41h61z" />
    <glyph glyph-name="Gcircumflex" unicode="&#x11c;" horiz-adv-x="684" 
d="M379 377l235 0.000976562v-350c-36 -12.667 -72.667 -22 -110 -28s-79.333 -9 -126 -9c-69.333 0 -127.833 14.833 -175.5 44.5s-83.834 72 -108.501 127s-37 120.167 -37 195.5c0 74 13.667 138.5 41 193.5s67 97.667 119 128s114.667 45.5 188 45.5
c37.333 0 72.833 -3.66699 106.5 -11s64.834 -17.666 93.501 -30.999l-33 -78c-23.333 10.667 -49.833 20.167 -79.5 28.5s-60.167 12.5 -91.5 12.5c-79.333 0 -141 -25.833 -185 -77.5s-66 -121.834 -66 -210.501c0 -56.667 8.33301 -106.834 25 -150.501
s43.167 -77.667 79.5 -102s83.833 -36.5 142.5 -36.5c28.667 0 53 1.66699 73 5s38.333 7.33301 55 12v212h-146v80zM424 944.001c8 -14.667 19 -31.168 33 -49.501s28.667 -36.333 44 -54l41 -45.5v-11h-61c-16.667 10.667 -33.667 23.834 -51 39.501
s-34.666 32.5 -51.999 50.5c-17.333 -18 -34.333 -34.833 -51 -50.5s-33.334 -28.834 -50.001 -39.501h-59v11c12 12.667 25.333 27.834 40 45.501l43 54c14 18.333 25 34.833 33 49.5h90z" />
    <glyph glyph-name="gcircumflex" unicode="&#x11d;" horiz-adv-x="579" 
d="M257 546c32.667 0 62.3301 -6.66602 88.9971 -19.999s49.334 -33.666 68.001 -60.999h5l11 71h70v-545c0 -76.667 -18.667 -134.334 -56 -173.001s-94.666 -58 -171.999 -58c-73.333 0 -134 11.333 -182 34v81c50.667 -28 113 -42 187 -42
c42.667 0 76.167 13.5 100.5 40.5s36.5 63.833 36.5 110.5v21c0 8 0.333008 19.5 1 34.5s1.33398 25.5 2.00098 31.5h-4c-34.667 -54 -86.334 -81 -155.001 -81c-65.333 0 -116.166 24.333 -152.499 73s-54.5 116.667 -54.5 204c0 85.333 18.167 153.166 54.5 203.499
s86.833 75.5 151.5 75.5zM270.996 472.001c-41.333 0 -73.333 -17.833 -96 -53.5s-34 -86.5 -34 -152.5s11.167 -116.5 33.5 -151.5s55.166 -52.5 98.499 -52.5c49.333 0 85.333 14.5 108 43.5s34 75.833 34 140.5v21c0 72.667 -11.667 125 -35 157s-59.666 48 -108.999 48z
M323.996 766.001c8 -14.667 19 -31.168 33 -49.501s28.667 -36.333 44 -54l41 -45.5v-11h-61c-16.667 10.667 -33.667 23.834 -51 39.501s-34.666 32.5 -51.999 50.5c-17.333 -18 -34.333 -34.833 -51 -50.5s-33.334 -28.834 -50.001 -39.501h-59v11
c12 12.667 25.333 27.834 40 45.501l43 54c14 18.333 25 34.833 33 49.5h90z" />
    <glyph glyph-name="Gbreve" unicode="&#x11e;" horiz-adv-x="684" 
d="M379 377l235 0.000976562v-350c-36 -12.667 -72.667 -22 -110 -28s-79.333 -9 -126 -9c-69.333 0 -127.833 14.833 -175.5 44.5s-83.834 72 -108.501 127s-37 120.167 -37 195.5c0 74 13.667 138.5 41 193.5s67 97.667 119 128s114.667 45.5 188 45.5
c37.333 0 72.833 -3.66699 106.5 -11s64.834 -17.666 93.501 -30.999l-33 -78c-23.333 10.667 -49.833 20.167 -79.5 28.5s-60.167 12.5 -91.5 12.5c-79.333 0 -141 -25.833 -185 -77.5s-66 -121.834 -66 -210.501c0 -56.667 8.33301 -106.834 25 -150.501
s43.167 -77.667 79.5 -102s83.833 -36.5 142.5 -36.5c28.667 0 53 1.66699 73 5s38.333 7.33301 55 12v212h-146v80zM529 918.001c-3.33301 -40 -18 -72.334 -44 -97.001s-61.667 -37 -107 -37c-47.333 0 -83 12 -107 36s-37.333 56.667 -40 98h53
c2.66699 -27.333 12 -44.666 28 -51.999s38.333 -11 67 -11c24.667 0 46 4 64 12s28.667 25 32 51h54z" />
    <glyph glyph-name="gbreve" unicode="&#x11f;" horiz-adv-x="579" 
d="M257 546c32.667 0 62.3301 -6.66602 88.9971 -19.999s49.334 -33.666 68.001 -60.999h5l11 71h70v-545c0 -76.667 -18.667 -134.334 -56 -173.001s-94.666 -58 -171.999 -58c-73.333 0 -134 11.333 -182 34v81c50.667 -28 113 -42 187 -42
c42.667 0 76.167 13.5 100.5 40.5s36.5 63.833 36.5 110.5v21c0 8 0.333008 19.5 1 34.5s1.33398 25.5 2.00098 31.5h-4c-34.667 -54 -86.334 -81 -155.001 -81c-65.333 0 -116.166 24.333 -152.499 73s-54.5 116.667 -54.5 204c0 85.333 18.167 153.166 54.5 203.499
s86.833 75.5 151.5 75.5zM270.996 472.001c-41.333 0 -73.333 -17.833 -96 -53.5s-34 -86.5 -34 -152.5s11.167 -116.5 33.5 -151.5s55.166 -52.5 98.499 -52.5c49.333 0 85.333 14.5 108 43.5s34 75.833 34 140.5v21c0 72.667 -11.667 125 -35 157s-59.666 48 -108.999 48z
M428.996 740.001c-3.33301 -40 -18 -72.334 -44 -97.001s-61.667 -37 -107 -37c-47.333 0 -83 12 -107 36s-37.333 56.667 -40 98h53c2.66699 -27.333 12 -44.666 28 -51.999s38.333 -11 67 -11c24.667 0 46 4 64 12s28.667 25 32 51h54z" />
    <glyph glyph-name="Gdot" unicode="&#x120;" horiz-adv-x="684" 
d="M379 377l235 0.000976562v-350c-36 -12.667 -72.667 -22 -110 -28s-79.333 -9 -126 -9c-69.333 0 -127.833 14.833 -175.5 44.5s-83.834 72 -108.501 127s-37 120.167 -37 195.5c0 74 13.667 138.5 41 193.5s67 97.667 119 128s114.667 45.5 188 45.5
c37.333 0 72.833 -3.66699 106.5 -11s64.834 -17.666 93.501 -30.999l-33 -78c-23.333 10.667 -49.833 20.167 -79.5 28.5s-60.167 12.5 -91.5 12.5c-79.333 0 -141 -25.833 -185 -77.5s-66 -121.834 -66 -210.501c0 -56.667 8.33301 -106.834 25 -150.501
s43.167 -77.667 79.5 -102s83.833 -36.5 142.5 -36.5c28.667 0 53 1.66699 73 5s38.333 7.33301 55 12v212h-146v80zM380 915.001c13.333 0 25 -4.5 35 -13.5s15 -23.167 15 -42.5s-5 -33.5 -15 -42.5s-21.667 -13.5 -35 -13.5c-14 0 -26 4.5 -36 13.5s-15 23.167 -15 42.5
s5 33.5 15 42.5s22 13.5 36 13.5z" />
    <glyph glyph-name="gdot" unicode="&#x121;" horiz-adv-x="579" 
d="M257 546c32.667 0 62.3301 -6.66602 88.9971 -19.999s49.334 -33.666 68.001 -60.999h5l11 71h70v-545c0 -76.667 -18.667 -134.334 -56 -173.001s-94.666 -58 -171.999 -58c-73.333 0 -134 11.333 -182 34v81c50.667 -28 113 -42 187 -42
c42.667 0 76.167 13.5 100.5 40.5s36.5 63.833 36.5 110.5v21c0 8 0.333008 19.5 1 34.5s1.33398 25.5 2.00098 31.5h-4c-34.667 -54 -86.334 -81 -155.001 -81c-65.333 0 -116.166 24.333 -152.499 73s-54.5 116.667 -54.5 204c0 85.333 18.167 153.166 54.5 203.499
s86.833 75.5 151.5 75.5zM270.996 472.001c-41.333 0 -73.333 -17.833 -96 -53.5s-34 -86.5 -34 -152.5s11.167 -116.5 33.5 -151.5s55.166 -52.5 98.499 -52.5c49.333 0 85.333 14.5 108 43.5s34 75.833 34 140.5v21c0 72.667 -11.667 125 -35 157s-59.666 48 -108.999 48z
M279.996 737.001c13.333 0 25 -4.5 35 -13.5s15 -23.167 15 -42.5s-5 -33.5 -15 -42.5s-21.667 -13.5 -35 -13.5c-14 0 -26 4.5 -36 13.5s-15 23.167 -15 42.5s5 33.5 15 42.5s22 13.5 36 13.5z" />
    <glyph glyph-name="uni0122" unicode="&#x122;" horiz-adv-x="684" 
d="M379 377l235 0.000976562v-350c-36 -12.667 -72.667 -22 -110 -28s-79.333 -9 -126 -9c-69.333 0 -127.833 14.833 -175.5 44.5s-83.834 72 -108.501 127s-37 120.167 -37 195.5c0 74 13.667 138.5 41 193.5s67 97.667 119 128s114.667 45.5 188 45.5
c37.333 0 72.833 -3.66699 106.5 -11s64.834 -17.666 93.501 -30.999l-33 -78c-23.333 10.667 -49.833 20.167 -79.5 28.5s-60.167 12.5 -91.5 12.5c-79.333 0 -141 -25.833 -185 -77.5s-66 -121.834 -66 -210.501c0 -56.667 8.33301 -106.834 25 -150.501
s43.167 -77.667 79.5 -102s83.833 -36.5 142.5 -36.5c28.667 0 53 1.66699 73 5s38.333 7.33301 55 12v212h-146v80zM426 -60.999l-0.000976562 -9c-3.33301 -12 -8.66602 -27.167 -15.999 -45.5s-16.166 -37 -26.499 -56s-21.166 -35.5 -32.499 -49.5h-48v12
c4.66699 11.333 9.66699 25.833 15 43.5s10.166 36 14.499 55s7.16602 35.5 8.49902 49.5h85z" />
    <glyph glyph-name="uni0123" unicode="&#x123;" horiz-adv-x="615" 
d="M257 546c32.667 0 62.3301 -6.66602 88.9971 -19.999s49.334 -33.666 68.001 -60.999h5l11 71h70v-545c0 -76.667 -18.667 -134.334 -56 -173.001s-94.666 -58 -171.999 -58c-73.333 0 -134 11.333 -182 34v81c50.667 -28 113 -42 187 -42
c42.667 0 76.167 13.5 100.5 40.5s36.5 63.833 36.5 110.5v21c0 8 0.333008 19.5 1 34.5s1.33398 25.5 2.00098 31.5h-4c-34.667 -54 -86.334 -81 -155.001 -81c-65.333 0 -116.166 24.333 -152.499 73s-54.5 116.667 -54.5 204c0 85.333 18.167 153.166 54.5 203.499
s86.833 75.5 151.5 75.5zM270.996 472.001c-41.333 0 -73.333 -17.833 -96 -53.5s-34 -86.5 -34 -152.5s11.167 -116.5 33.5 -151.5s55.166 -52.5 98.499 -52.5c49.333 0 85.333 14.5 108 43.5s34 75.833 34 140.5v21c0 72.667 -11.667 125 -35 157s-59.666 48 -108.999 48z
M344.996 766.001v-11.998c-5.33301 -11.333 -10.5 -25.833 -15.5 -43.5s-9.66699 -35.834 -14 -54.501s-7.5 -35.334 -9.5 -50.001h-85v9c3.33301 12 8.83301 27 16.5 45s16.5 36.5 26.5 55.5s20.667 35.833 32 50.5h49z" />
    <glyph glyph-name="Hcircumflex" unicode="&#x124;" horiz-adv-x="699" 
d="M607 0h-89v333h-338v-333h-89v714h89v-302h338v302h89v-714zM394 944c8 -14.667 19 -31.168 33 -49.501s28.667 -36.333 44 -54l41 -45.5v-11h-61c-16.667 10.667 -33.667 23.834 -51 39.501s-34.666 32.5 -51.999 50.5c-17.333 -18 -34.333 -34.833 -51 -50.5
s-33.334 -28.834 -50.001 -39.501h-59v11c12 12.667 25.333 27.834 40 45.501l43 54c14 18.333 25 34.833 33 49.5h90z" />
    <glyph glyph-name="hcircumflex" unicode="&#x125;" horiz-adv-x="584" 
d="M166 760v-222.999c0 -26.667 -1.66699 -51.667 -5 -75h6c16 27.333 38 48 66 62s58 21 90 21c60.667 0 106.667 -15.5 138 -46.5s47 -80.833 47 -149.5v-349h-87v343c0 86 -36.667 129 -110 129c-55.333 0 -93.333 -16.833 -114 -50.5s-31 -81.834 -31 -144.501v-277h-87
v760h87zM168 990.001c8 -14.667 19 -31.168 33 -49.501s28.667 -36.333 44 -54l41 -45.5v-11h-61c-16.667 10.667 -33.667 23.834 -51 39.501s-34.666 32.5 -51.999 50.5c-17.333 -18 -34.333 -34.833 -51 -50.5s-33.334 -28.834 -50.001 -39.501h-59v11
c12 12.667 25.333 27.834 40 45.501l43 54c14 18.333 25 34.833 33 49.5h90z" />
    <glyph glyph-name="Hbar" unicode="&#x126;" horiz-adv-x="698" 
d="M91 0v523h-91v72h91v119h89v-119h338v119h89v-119h90v-72h-90v-523h-89v333h-338v-333h-89zM180 412h338v111h-338v-111z" />
    <glyph glyph-name="hbar" unicode="&#x127;" horiz-adv-x="584" 
d="M167 760l-0.000976562 -90h195v-66h-195v-87c0 -12.667 -0.5 -25.5 -1.5 -38.5s-2.16699 -24.833 -3.5 -35.5h6c16 27.333 38 48 66 62s58.333 21 91 21c60 0 105.5 -15.667 136.5 -47s46.5 -81.333 46.5 -150v-329h-86v323c0 86 -37 129 -111 129
c-55.333 0 -93.166 -16.667 -113.499 -50s-30.5 -81.333 -30.5 -144v-258h-88v604h-71v66h71v90h88z" />
    <glyph glyph-name="Itilde" unicode="&#x128;" horiz-adv-x="322" 
d="M284 0h-247v52l79 19v571l-79 20v52h247v-52l-79 -20v-571l79 -19v-52zM336 913c-4 -39.333 -15 -70.5 -33 -93.5s-41.667 -34.5 -71 -34.5c-17.333 0 -34.333 4.66699 -51 14s-32.667 18.833 -48 28.5s-30 14.5 -44 14.5c-14.667 0 -25.834 -4.83301 -33.501 -14.5
s-13.5 -24.167 -17.5 -43.5h-50c4 39.333 15 70.5 33 93.5s42 34.5 72 34.5c18 0 35.5 -4.83301 52.5 -14.5l48 -28.5c15 -9.33301 29.167 -14 42.5 -14c14 0 24.833 4.83301 32.5 14.5s13.834 24.167 18.501 43.5h49z" />
    <glyph glyph-name="itilde" unicode="&#x129;" horiz-adv-x="245" 
d="M166 0h-87v536h87v-536zM297 735c-4 -39.333 -15 -70.5 -33 -93.5s-41.667 -34.5 -71 -34.5c-17.333 0 -34.333 4.66699 -51 14s-32.667 18.833 -48 28.5s-30 14.5 -44 14.5c-14.667 0 -25.834 -4.83301 -33.501 -14.5s-13.5 -24.167 -17.5 -43.5h-50
c4 39.333 15 70.5 33 93.5s42 34.5 72 34.5c18 0 35.5 -4.83301 52.5 -14.5l48 -28.5c15 -9.33301 29.167 -14 42.5 -14c14 0 24.833 4.83301 32.5 14.5s13.834 24.167 18.501 43.5h49z" />
    <glyph glyph-name="Imacron" unicode="&#x12a;" horiz-adv-x="322" 
d="M284 0h-247v52l79 19v571l-79 20v52h247v-52l-79 -20v-571l79 -19v-52zM302 855v-71h-282v71h282z" />
    <glyph glyph-name="imacron" unicode="&#x12b;" horiz-adv-x="245" 
d="M166 0h-87v536h87v-536zM263 677v-71h-282v71h282z" />
    <glyph glyph-name="Ibreve" unicode="&#x12c;" horiz-adv-x="322" 
d="M284 0h-247v52l79 19v571l-79 20v52h247v-52l-79 -20v-571l79 -19v-52zM311 918c-3.33301 -40 -18 -72.334 -44 -97.001s-61.667 -37 -107 -37c-47.333 0 -83 12 -107 36s-37.333 56.667 -40 98h53c2.66699 -27.333 12 -44.666 28 -51.999s38.333 -11 67 -11
c24.667 0 46 4 64 12s28.667 25 32 51h54z" />
    <glyph glyph-name="ibreve" unicode="&#x12d;" horiz-adv-x="245" 
d="M166 0h-87v536h87v-536zM272 740c-3.33301 -40 -18 -72.334 -44 -97.001s-61.667 -37 -107 -37c-47.333 0 -83 12 -107 36s-37.333 56.667 -40 98h53c2.66699 -27.333 12 -44.666 28 -51.999s38.333 -11 67 -11c24.667 0 46 4 64 12s28.667 25 32 51h54z" />
    <glyph glyph-name="Iogonek" unicode="&#x12e;" horiz-adv-x="322" 
d="M284 0h-247v52l79 19v571l-79 20v52h247v-52l-79 -20v-571l79 -19v-52zM200 -116c0 -30 14.001 -44.999 42.001 -44.999c10 0 18.833 0.833008 26.5 2.5s13.834 2.83398 18.501 3.50098v-56c-8.66699 -2.66699 -17.5 -4.83398 -26.5 -6.50098s-19.833 -2.5 -32.5 -2.5
c-33.333 0 -58 8.33301 -74 25s-24 39.667 -24 69c0 18.667 4.66699 37.167 14 55.5s20.666 34.833 33.999 49.5s26.666 26.667 39.999 36l46 -15c-21.333 -21.333 -37.333 -40.833 -48 -58.5s-16 -36.834 -16 -57.501z" />
    <glyph glyph-name="iogonek" unicode="&#x12f;" horiz-adv-x="246" 
d="M124 737c13.333 0 25 -4.5 35 -13.5s15 -23.167 15 -42.5s-5 -33.5 -15 -42.5s-21.667 -13.5 -35 -13.5c-14 0 -26 4.5 -36 13.5s-15 23.167 -15 42.5s5 33.5 15 42.5s22 13.5 36 13.5zM167 536v-536h-87v536h87zM95 -116c0 -30 14.001 -44.999 42.001 -44.999
c10 0 18.833 0.833008 26.5 2.5s13.834 2.83398 18.501 3.50098v-56c-8.66699 -2.66699 -17.5 -4.83398 -26.5 -6.50098s-19.833 -2.5 -32.5 -2.5c-33.333 0 -58 8.33301 -74 25s-24 39.667 -24 69c0 18.667 4.66699 37.167 14 55.5s20.666 34.833 33.999 49.5
s26.666 26.667 39.999 36l46 -15c-21.333 -21.333 -37.333 -40.833 -48 -58.5s-16 -36.834 -16 -57.501z" />
    <glyph glyph-name="Idotaccent" unicode="&#x130;" horiz-adv-x="322" 
d="M284 0h-247v52l79 19v571l-79 20v52h247v-52l-79 -20v-571l79 -19v-52zM162 915c13.333 0 25 -4.5 35 -13.5s15 -23.167 15 -42.5s-5 -33.5 -15 -42.5s-21.667 -13.5 -35 -13.5c-14 0 -26 4.5 -36 13.5s-15 23.167 -15 42.5s5 33.5 15 42.5s22 13.5 36 13.5z" />
    <glyph glyph-name="dotlessi" unicode="&#x131;" horiz-adv-x="245" 
d="M166 0h-87v536h87v-536z" />
    <glyph glyph-name="IJ" unicode="&#x132;" horiz-adv-x="582" 
d="M284 0h-247v52l79 19v571l-79 20v52h247v-52l-79 -20v-571l79 -19v-52zM320 -190c-15.333 0 -28.833 1.16797 -40.5 3.50098s-21.834 5.5 -30.501 9.5v76c10 -3.33301 20.667 -5.83301 32 -7.5s23.333 -2.5 36 -2.5c15.333 0 30 3.33301 44 10s25.333 18.167 34 34.5
s13 39.833 13 70.5v710h89v-703c0 -68.667 -16.167 -119.334 -48.5 -152.001s-75.166 -49 -128.499 -49z" />
    <glyph glyph-name="ij" unicode="&#x133;" horiz-adv-x="492" 
d="M124 737c13.333 0 25 -4.5 35 -13.5s15 -23.167 15 -42.5s-5 -33.5 -15 -42.5s-21.667 -13.5 -35 -13.5c-14 0 -26 4.5 -36 13.5s-15 23.167 -15 42.5s5 33.5 15 42.5s22 13.5 36 13.5zM167 536v-536h-87v536h87zM319 681c0 19.333 5 33.5 15 42.5s22 13.5 36 13.5
c13.333 0 25 -4.5 35 -13.5s15 -23.167 15 -42.5s-5 -33.5 -15 -42.5s-21.667 -13.5 -35 -13.5c-14 0 -26 4.5 -36 13.5s-15 23.167 -15 42.5zM268 -240c-16 0 -30.167 1.16699 -42.5 3.5s-22.833 5.16602 -31.5 8.49902v71c9.33301 -3.33301 19 -5.83301 29 -7.5
s21 -2.5 33 -2.5c20.667 0 37.5 5.83301 50.5 17.5s19.5 33.834 19.5 66.501v619h87v-616c0 -50 -11.5 -89.167 -34.5 -117.5s-59.833 -42.5 -110.5 -42.5z" />
    <glyph glyph-name="Jcircumflex" unicode="&#x134;" horiz-adv-x="260" 
d="M-2 -190c-15.333 0 -28.833 1.16797 -40.5 3.50098s-21.834 5.5 -30.501 9.5v76c10 -3.33301 20.667 -5.83301 32 -7.5s23.333 -2.5 36 -2.5c15.333 0 30 3.33301 44 10s25.333 18.167 34 34.5s13 39.833 13 70.5v710h89v-703c0 -68.667 -16.167 -119.334 -48.5 -152.001
s-75.166 -49 -128.499 -49zM175 944.001c8 -14.667 19 -31.168 33 -49.501s28.667 -36.333 44 -54l41 -45.5v-11h-61c-16.667 10.667 -33.667 23.834 -51 39.501s-34.666 32.5 -51.999 50.5c-17.333 -18 -34.333 -34.833 -51 -50.5s-33.334 -28.834 -50.001 -39.501h-59v11
c12 12.667 25.333 27.834 40 45.501l43 54c14 18.333 25 34.833 33 49.5h90z" />
    <glyph glyph-name="jcircumflex" unicode="&#x135;" horiz-adv-x="246" 
d="M22 -240c-16 0 -30.167 1.16699 -42.5 3.5s-22.833 5.16602 -31.5 8.49902v71c9.33301 -3.33301 19 -5.83301 29 -7.5s21 -2.5 33 -2.5c20.667 0 37.5 5.83301 50.5 17.5s19.5 33.834 19.5 66.501v619h87v-616c0 -50 -11.5 -89.167 -34.5 -117.5
s-59.833 -42.5 -110.5 -42.5zM167 766c8 -14.667 19 -31.168 33 -49.501s28.667 -36.333 44 -54l41 -45.5v-11h-61c-16.667 10.667 -33.667 23.834 -51 39.501s-34.666 32.5 -51.999 50.5c-17.333 -18 -34.333 -34.833 -51 -50.5s-33.334 -28.834 -50.001 -39.501h-59v11
c12 12.667 25.333 27.834 40 45.501l43 54c14 18.333 25 34.833 33 49.5h90z" />
    <glyph glyph-name="uni0136" unicode="&#x136;" horiz-adv-x="585" 
d="M585 0h-104l-233 341l-68 -64v-277h-89v714h89v-352l55 68l56 68l181 216h104l-264 -311zM371 -61l-0.000976562 -9c-3.33301 -12 -8.66602 -27.167 -15.999 -45.5s-16.166 -37 -26.499 -56s-21.166 -35.5 -32.499 -49.5h-48v12c4.66699 11.333 9.66699 25.833 15 43.5
s10.166 36 14.499 55s7.16602 35.5 8.49902 49.5h85z" />
    <glyph glyph-name="uni0137" unicode="&#x137;" horiz-adv-x="508" 
d="M165 760v-397c0 -10.667 -0.5 -24.667 -1.5 -42s-1.83301 -32.333 -2.5 -45h4l17 23l23 30.5c8 10.333 15 18.833 21 25.5l159 181h101l-204 -229l218 -307h-104l-173 250l-58 -53v-197h-86v760h86zM323 -61l-0.000976562 -9
c-3.33301 -12 -8.66602 -27.167 -15.999 -45.5s-16.166 -37 -26.499 -56s-21.166 -35.5 -32.499 -49.5h-48v12c4.66699 11.333 9.66699 25.833 15 43.5s10.166 36 14.499 55s7.16602 35.5 8.49902 49.5h85z" />
    <glyph glyph-name="kgreenlandic" unicode="&#x138;" horiz-adv-x="508" 
d="M485 536l-192 -237.001l207 -299h-103l-164 242l-63 -54v-188h-91v536h91v-139c0 -26.667 -0.5 -52.667 -1.5 -78s-2.16699 -44.666 -3.5 -57.999h2c6 8.66699 12.5 17.5 19.5 26.5l19.5 24.5l176 224h103z" />
    <glyph glyph-name="Lacute" unicode="&#x139;" horiz-adv-x="496" 
d="M91 0v714h89v-634h292v-80h-381zM261 944l0.000976562 -10c-8.66699 -12 -21 -27.5 -37 -46.5s-33 -38 -51 -57s-34.667 -34.5 -50 -46.5h-57v12c9.33301 12 19.666 26.833 30.999 44.5s22.333 35.667 33 54s19.667 34.833 27 49.5h104z" />
    <glyph glyph-name="lacute" unicode="&#x13a;" horiz-adv-x="245" 
d="M166 0h-87v760h87v-760zM250 990l0.000976562 -10c-8.66699 -12 -21 -27.5 -37 -46.5s-33 -38 -51 -57s-34.667 -34.5 -50 -46.5h-57v12c9.33301 12 19.666 26.833 30.999 44.5s22.333 35.667 33 54s19.667 34.833 27 49.5h104z" />
    <glyph glyph-name="uni013B" unicode="&#x13b;" horiz-adv-x="496" 
d="M91 0v714h89v-634h292v-80h-381zM332 -61l-0.000976562 -9c-3.33301 -12 -8.66602 -27.167 -15.999 -45.5s-16.166 -37 -26.499 -56s-21.166 -35.5 -32.499 -49.5h-48v12c4.66699 11.333 9.66699 25.833 15 43.5s10.166 36 14.499 55s7.16602 35.5 8.49902 49.5h85z" />
    <glyph glyph-name="uni013C" unicode="&#x13c;" horiz-adv-x="245" 
d="M166 0h-87v760h87v-760zM172 -61l-0.000976562 -9c-3.33301 -12 -8.66602 -27.167 -15.999 -45.5s-16.166 -37 -26.499 -56s-21.166 -35.5 -32.499 -49.5h-48v12c4.66699 11.333 9.66699 25.833 15 43.5s10.166 36 14.499 55s7.16602 35.5 8.49902 49.5h85z" />
    <glyph glyph-name="Lcaron" unicode="&#x13d;" horiz-adv-x="524" 
d="M91 0v714h89v-634h292v-80h-381zM482 714l-0.000976562 -9.00098c-3.33301 -12 -8.5 -27 -15.5 -45s-15.167 -36.5 -24.5 -55.5s-18.666 -35.833 -27.999 -50.5h-48v12c4 12.667 8 27.834 12 45.501s7.83301 35.5 11.5 53.5s6.16699 34.333 7.5 49h85z" />
    <glyph glyph-name="lcaron" unicode="&#x13e;" horiz-adv-x="258" 
d="M166 0h-87v760h87v-760zM320 760l-0.000976562 -9.00098c-3.33301 -12 -8.5 -27 -15.5 -45s-15.167 -36.5 -24.5 -55.5s-18.666 -35.833 -27.999 -50.5h-48v12c4 12.667 8 27.834 12 45.501s7.83301 35.5 11.5 53.5s6.16699 34.333 7.5 49h85z" />
    <glyph glyph-name="Ldot" unicode="&#x13f;" horiz-adv-x="496" 
d="M91 0v714h89v-634h292v-80h-381zM377 413c13.333 0 25 -4.5 35 -13.5s15 -23.167 15 -42.5s-5 -33.5 -15 -42.5s-21.667 -13.5 -35 -13.5c-14 0 -26 4.5 -36 13.5s-15 23.167 -15 42.5s5 33.5 15 42.5s22 13.5 36 13.5z" />
    <glyph glyph-name="ldot" unicode="&#x140;" horiz-adv-x="268" 
d="M166 0h-87v760h87v-760zM259 435c13.333 0 25 -4.5 35 -13.5s15 -23.167 15 -42.5s-5 -33.5 -15 -42.5s-21.667 -13.5 -35 -13.5c-14 0 -26 4.5 -36 13.5s-15 23.167 -15 42.5s5 33.5 15 42.5s22 13.5 36 13.5z" />
    <glyph glyph-name="Lslash" unicode="&#x141;" horiz-adv-x="495" 
d="M90 0v247l-45 -28l-34 60l79 50v385h89v-332l124 81l36 -63l-160 -100v-220h292v-80h-381z" />
    <glyph glyph-name="lslash" unicode="&#x142;" horiz-adv-x="245" 
d="M73 0v285l-47 -32l-35 59l82 56v392h87v-335l58 44l36 -59l-94 -68v-342h-87z" />
    <glyph glyph-name="Nacute" unicode="&#x143;" horiz-adv-x="719" 
d="M628 0l-105 0.000976562l-354 593h-4l5 -87c2 -34.667 3 -70.334 3 -107.001v-399h-82v714h104l353 -591h4c-0.666992 10.667 -1.5 26.667 -2.5 48s-2 44.5 -3 69.5s-1.5 48.5 -1.5 70.5v403h83v-714zM486 944.001l0.000976562 -10c-8.66699 -12 -21 -27.5 -37 -46.5
s-33 -38 -51 -57s-34.667 -34.5 -50 -46.5h-57v12c9.33301 12 19.666 26.833 30.999 44.5s22.333 35.667 33 54s19.667 34.833 27 49.5h104z" />
    <glyph glyph-name="nacute" unicode="&#x144;" horiz-adv-x="584" 
d="M325 546c60 0 105.5 -15.667 136.5 -47s46.5 -81.333 46.5 -150v-349h-87v343c0 86 -36.667 129 -110 129c-55.333 0 -93.333 -16.667 -114 -50s-31 -81.333 -31 -144v-278h-87v536h70l13 -73h5c16 28 38.333 48.833 67 62.5s59 20.5 91 20.5zM419 766l0.000976562 -10
c-8.66699 -12 -21 -27.5 -37 -46.5s-33 -38 -51 -57s-34.667 -34.5 -50 -46.5h-57v12c9.33301 12 19.666 26.833 30.999 44.5s22.333 35.667 33 54s19.667 34.833 27 49.5h104z" />
    <glyph glyph-name="uni0145" unicode="&#x145;" horiz-adv-x="719" 
d="M628 0l-105 0.000976562l-354 593h-4l5 -87c2 -34.667 3 -70.334 3 -107.001v-399h-82v714h104l353 -591h4c-0.666992 10.667 -1.5 26.667 -2.5 48s-2 44.5 -3 69.5s-1.5 48.5 -1.5 70.5v403h83v-714zM408 -60.999l-0.000976562 -9
c-3.33301 -12 -8.66602 -27.167 -15.999 -45.5s-16.166 -37 -26.499 -56s-21.166 -35.5 -32.499 -49.5h-48v12c4.66699 11.333 9.66699 25.833 15 43.5s10.166 36 14.499 55s7.16602 35.5 8.49902 49.5h85z" />
    <glyph glyph-name="uni0146" unicode="&#x146;" horiz-adv-x="584" 
d="M325 546c60 0 105.5 -15.667 136.5 -47s46.5 -81.333 46.5 -150v-349h-87v343c0 86 -36.667 129 -110 129c-55.333 0 -93.333 -16.667 -114 -50s-31 -81.333 -31 -144v-278h-87v536h70l13 -73h5c16 28 38.333 48.833 67 62.5s59 20.5 91 20.5zM341 -61l-0.000976562 -9
c-3.33301 -12 -8.66602 -27.167 -15.999 -45.5s-16.166 -37 -26.499 -56s-21.166 -35.5 -32.499 -49.5h-48v12c4.66699 11.333 9.66699 25.833 15 43.5s10.166 36 14.499 55s7.16602 35.5 8.49902 49.5h85z" />
    <glyph glyph-name="Ncaron" unicode="&#x147;" horiz-adv-x="719" 
d="M628 0l-105 0.000976562l-354 593h-4l5 -87c2 -34.667 3 -70.334 3 -107.001v-399h-82v714h104l353 -591h4c-0.666992 10.667 -1.5 26.667 -2.5 48s-2 44.5 -3 69.5s-1.5 48.5 -1.5 70.5v403h83v-714zM521 944.001v-13l-41 -45c-15.333 -17.333 -30 -35 -44 -53
s-25 -34.333 -33 -49h-90c-8 14.667 -19 31 -33 49s-28.5 35.667 -43.5 53l-39.5 45v13h59c16.667 -11.333 33.834 -25 51.501 -41s34.167 -33 49.5 -51c17.333 18 34.666 35 51.999 51s34.333 29.667 51 41h61z" />
    <glyph glyph-name="ncaron" unicode="&#x148;" horiz-adv-x="584" 
d="M325 546c60 0 105.5 -15.667 136.5 -47s46.5 -81.333 46.5 -150v-349h-87v343c0 86 -36.667 129 -110 129c-55.333 0 -93.333 -16.667 -114 -50s-31 -81.333 -31 -144v-278h-87v536h70l13 -73h5c16 28 38.333 48.833 67 62.5s59 20.5 91 20.5zM454 766v-13l-41 -45
c-15.333 -17.333 -30 -35 -44 -53s-25 -34.333 -33 -49h-90c-8 14.667 -19 31 -33 49s-28.5 35.667 -43.5 53l-39.5 45v13h59c16.667 -11.333 33.834 -25 51.501 -41s34.167 -33 49.5 -51c17.333 18 34.666 35 51.999 51s34.333 29.667 51 41h61z" />
    <glyph glyph-name="napostrophe" unicode="&#x149;" horiz-adv-x="688" 
d="M429 546c60 0 105.5 -15.667 136.5 -47s46.5 -81.333 46.5 -150v-349h-87v343c0 86 -36.667 129 -110 129c-55.333 0 -93.333 -16.667 -114 -50s-31 -81.333 -31 -144v-278h-87v536h70l13 -73h5c16 28 38.333 48.833 67 62.5s59 20.5 91 20.5zM138 714l7 -10.999
c-8.66699 -35.333 -20.5 -74.333 -35.5 -117s-30.167 -81.667 -45.5 -117h-64c6 24.667 12 51.667 18 81l17 86.5c5.33301 28.333 9.33301 54.166 12 77.499h91z" />
    <glyph glyph-name="Eng" unicode="&#x14a;" horiz-adv-x="719" 
d="M448 -190c-15.333 0 -29.166 1.16992 -41.499 3.50293s-22.833 5.5 -31.5 9.5v76c10 -3.33301 21.167 -5.83301 33.5 -7.5s25.166 -2.5 38.499 -2.5c16.667 0 32.334 3.16699 47.001 9.5s26.667 17.5 36 33.5s14.333 38.667 15 68l-376 593h-4
c0.666992 -12.667 1.66699 -30.667 3 -54s2.5 -48.333 3.5 -75s1.5 -52.334 1.5 -77.001v-387h-82v714h104l353 -572h4c-2 21.333 -3.66699 50.666 -5 87.999s-2 74.666 -2 111.999v372h83v-708c0 -66.667 -16.333 -116 -49 -148s-76.334 -48 -131.001 -48z" />
    <glyph glyph-name="eng" unicode="&#x14b;" horiz-adv-x="584" 
d="M371 -240c-15.333 0 -28.502 1.16699 -39.502 3.5s-20.5 5.16602 -28.5 8.49902v71c8.66699 -3.33301 17.334 -5.83301 26.001 -7.5s18.667 -2.5 30 -2.5c17.333 0 32 5.83301 44 17.5s18 33.834 18 66.501v427c0 85.333 -36.333 128 -109 128
c-54.667 0 -92.667 -16.5 -114 -49.5s-32 -80.833 -32 -143.5v-279h-87v536h70l13 -73h5c16.667 28 39 48.833 67 62.5s58 20.5 90 20.5c61.333 0 107.5 -15.5 138.5 -46.5s46.5 -80.833 46.5 -149.5v-430c0 -50 -11.167 -89.167 -33.5 -117.5s-57.166 -42.5 -104.499 -42.5
z" />
    <glyph glyph-name="Omacron" unicode="&#x14c;" horiz-adv-x="735" 
d="M678 358c0 -74 -11.667 -138.5 -35 -193.5s-58 -97.833 -104 -128.5s-103 -46 -171 -46c-70 0 -128 15.333 -174 46s-80.333 73.667 -103 129s-34 120 -34 194c0 72.667 11.333 136.5 34 191.5s57.167 97.833 103.5 128.5s104.5 46 174.5 46
c67.333 0 124 -15.167 170 -45.5s80.667 -73 104 -128s35 -119.5 35 -193.5zM151 358c0 -90 17.499 -160.833 52.499 -212.5s89.833 -77.5 164.5 -77.5s129.334 25.833 164.001 77.5s52 122.5 52 212.5s-17.167 160.5 -51.5 211.5s-88.833 76.5 -163.5 76.5
c-75.333 0 -130.5 -25.5 -165.5 -76.5s-52.5 -121.5 -52.5 -211.5zM507.999 866v-71h-282v71h282z" />
    <glyph glyph-name="omacron" unicode="&#x14d;" horiz-adv-x="570" 
d="M520 269c0 -88.667 -21.3311 -157.334 -63.998 -206.001s-100.334 -73 -173.001 -73c-44.667 0 -84.5 10.833 -119.5 32.5s-62.5 53.334 -82.5 95.001s-30 92.167 -30 151.5c0 88.667 21 157 63 205s99.333 72 172 72c45.333 0 85.666 -10.833 120.999 -32.5
s63 -53 83 -94s30 -91.167 30 -150.5zM141.002 269c0 -63.333 11.5 -113.5 34.5 -150.5s59.5 -55.5 109.5 -55.5s86.667 18.5 110 55.5s35 87.167 35 150.5s-11.667 113 -35 149s-60.333 54 -111 54c-50 0 -86.333 -18 -109 -54s-34 -85.667 -34 -149zM425.002 677v-71h-282
v71h282z" />
    <glyph glyph-name="Obreve" unicode="&#x14e;" horiz-adv-x="735" 
d="M678 358c0 -74 -11.667 -138.5 -35 -193.5s-58 -97.833 -104 -128.5s-103 -46 -171 -46c-70 0 -128 15.333 -174 46s-80.333 73.667 -103 129s-34 120 -34 194c0 72.667 11.333 136.5 34 191.5s57.167 97.833 103.5 128.5s104.5 46 174.5 46
c67.333 0 124 -15.167 170 -45.5s80.667 -73 104 -128s35 -119.5 35 -193.5zM151 358c0 -90 17.499 -160.833 52.499 -212.5s89.833 -77.5 164.5 -77.5s129.334 25.833 164.001 77.5s52 122.5 52 212.5s-17.167 160.5 -51.5 211.5s-88.833 76.5 -163.5 76.5
c-75.333 0 -130.5 -25.5 -165.5 -76.5s-52.5 -121.5 -52.5 -211.5zM516.999 929c-3.33301 -40 -18 -72.334 -44 -97.001s-61.667 -37 -107 -37c-47.333 0 -83 12 -107 36s-37.333 56.667 -40 98h53c2.66699 -27.333 12 -44.666 28 -51.999s38.333 -11 67 -11
c24.667 0 46 4 64 12s28.667 25 32 51h54z" />
    <glyph glyph-name="obreve" unicode="&#x14f;" horiz-adv-x="570" 
d="M520 269c0 -88.667 -21.3311 -157.334 -63.998 -206.001s-100.334 -73 -173.001 -73c-44.667 0 -84.5 10.833 -119.5 32.5s-62.5 53.334 -82.5 95.001s-30 92.167 -30 151.5c0 88.667 21 157 63 205s99.333 72 172 72c45.333 0 85.666 -10.833 120.999 -32.5
s63 -53 83 -94s30 -91.167 30 -150.5zM141.002 269c0 -63.333 11.5 -113.5 34.5 -150.5s59.5 -55.5 109.5 -55.5s86.667 18.5 110 55.5s35 87.167 35 150.5s-11.667 113 -35 149s-60.333 54 -111 54c-50 0 -86.333 -18 -109 -54s-34 -85.667 -34 -149zM434.002 740
c-3.33301 -40 -18 -72.334 -44 -97.001s-61.667 -37 -107 -37c-47.333 0 -83 12 -107 36s-37.333 56.667 -40 98h53c2.66699 -27.333 12 -44.666 28 -51.999s38.333 -11 67 -11c24.667 0 46 4 64 12s28.667 25 32 51h54z" />
    <glyph glyph-name="Ohungarumlaut" unicode="&#x150;" horiz-adv-x="735" 
d="M678 358c0 -74 -11.667 -138.5 -35 -193.5s-58 -97.833 -104 -128.5s-103 -46 -171 -46c-70 0 -128 15.333 -174 46s-80.333 73.667 -103 129s-34 120 -34 194c0 72.667 11.333 136.5 34 191.5s57.167 97.833 103.5 128.5s104.5 46 174.5 46
c67.333 0 124 -15.167 170 -45.5s80.667 -73 104 -128s35 -119.5 35 -193.5zM151 358c0 -90 17.499 -160.833 52.499 -212.5s89.833 -77.5 164.5 -77.5s129.334 25.833 164.001 77.5s52 122.5 52 212.5s-17.167 160.5 -51.5 211.5s-88.833 76.5 -163.5 76.5
c-75.333 0 -130.5 -25.5 -165.5 -76.5s-52.5 -121.5 -52.5 -211.5zM538.999 955l0.000976562 -10.002c-6.66699 -12 -17.334 -27.5 -32.001 -46.5s-30.667 -38 -48 -57s-33 -34.5 -47 -46.5h-49v12c12.667 18.667 27 42.334 43 71.001s29 54.334 39 77.001h94zM372 954.998
l0.000976562 -10.002c-6.66699 -12 -17.334 -27.5 -32.001 -46.5s-30.667 -38 -48 -57s-33 -34.5 -47 -46.5h-49v12c13.333 18.667 27.833 42.334 43.5 71.001s28.5 54.334 38.5 77.001h94z" />
    <glyph glyph-name="ohungarumlaut" unicode="&#x151;" horiz-adv-x="570" 
d="M520 269c0 -88.667 -21.3311 -157.334 -63.998 -206.001s-100.334 -73 -173.001 -73c-44.667 0 -84.5 10.833 -119.5 32.5s-62.5 53.334 -82.5 95.001s-30 92.167 -30 151.5c0 88.667 21 157 63 205s99.333 72 172 72c45.333 0 85.666 -10.833 120.999 -32.5
s63 -53 83 -94s30 -91.167 30 -150.5zM141.002 269c0 -63.333 11.5 -113.5 34.5 -150.5s59.5 -55.5 109.5 -55.5s86.667 18.5 110 55.5s35 87.167 35 150.5s-11.667 113 -35 149s-60.333 54 -111 54c-50 0 -86.333 -18 -109 -54s-34 -85.667 -34 -149zM456.002 766
l0.000976562 -10.002c-6.66699 -12 -17.334 -27.5 -32.001 -46.5s-30.667 -38 -48 -57s-33 -34.5 -47 -46.5h-49v12c12.667 18.667 27 42.334 43 71.001s29 54.334 39 77.001h94zM289.003 765.998l0.000976562 -10.002c-6.66699 -12 -17.334 -27.5 -32.001 -46.5
s-30.667 -38 -48 -57s-33 -34.5 -47 -46.5h-49v12c13.333 18.667 27.833 42.334 43.5 71.001s28.5 54.334 38.5 77.001h94z" />
    <glyph glyph-name="OE" unicode="&#x152;" horiz-adv-x="875" 
d="M362 725c32 0 62.668 -3.66699 92.001 -11h365v-79h-269v-223h251v-78h-251v-255h269v-79h-360c-14.667 -2.66699 -29.834 -5 -45.501 -7s-31.5 -3 -47.5 -3c-69.333 0 -127 15.333 -173 46s-80.167 73.667 -102.5 129s-33.5 120 -33.5 194s11.167 138.333 33.5 193
s56 97.167 101 127.5s101.833 45.5 170.5 45.5zM369.001 646c-75.333 0 -130.667 -25.5 -166 -76.5s-53 -121.5 -53 -211.5s17.667 -160.833 53 -212.5s90.333 -77.5 165 -77.5c36.667 0 68 5.66699 94 17v545c-13.333 5.33301 -27.833 9.33301 -43.5 12s-32.167 4 -49.5 4z
" />
    <glyph glyph-name="oe" unicode="&#x153;" horiz-adv-x="891" 
d="M637 545c64 0 114.332 -21.834 150.999 -65.501s55 -102.167 55 -175.5v-53h-335c1.33301 -64 14.833 -111 40.5 -141s62.5 -45 110.5 -45c32.667 0 61.334 3.16699 86.001 9.5s49.667 15.5 75 27.5v-77c-25.333 -12 -50.333 -20.833 -75 -26.5s-54 -8.5 -88 -8.5
c-42.667 0 -80.167 9.33301 -112.5 28s-58.5 46.334 -78.5 83.001c-19.333 -36.667 -45.166 -64.334 -77.499 -83.001s-68.833 -28 -109.5 -28c-44.667 0 -84.167 10.833 -118.5 32.5s-61.333 53.334 -81 95.001s-29.5 92.167 -29.5 151.5c0 88 20.667 156 62 204
s98 72 170 72c38.667 0 73.667 -9.33301 105 -28s56.666 -46 75.999 -82c18.667 35.333 42.667 62.5 72 81.5s63.333 28.5 102 28.5zM635.999 472.999c-37.333 0 -66.833 -13 -88.5 -39s-34.167 -63.667 -37.5 -113h242c0 46 -9.16699 82.833 -27.5 110.5
s-47.833 41.5 -88.5 41.5zM277.999 471.999c-48.667 0 -83.667 -16.999 -105 -50.999s-32 -84.667 -32 -152s10.833 -118.5 32.5 -153.5s57.167 -52.5 106.5 -52.5c48 0 83 17 105 51s33 84.333 33 151c0 69.333 -11.167 121.166 -33.5 155.499s-57.833 51.5 -106.5 51.5z
" />
    <glyph glyph-name="Racute" unicode="&#x154;" horiz-adv-x="588" 
d="M277 714c84 0 146 -16.834 186 -50.501s60 -84.5 60 -152.5c0 -38 -6.5 -69.667 -19.5 -95s-29.667 -45.666 -50 -60.999s-41.833 -27 -64.5 -35l186 -320h-104l-162 295h-129v-295h-89v714h186zM272 635.999l-92 -0.000976562v-265h96c54 0 93.333 11.5 118 34.5
s37 56.833 37 101.5c0 46.667 -13 79.834 -39 99.501s-66 29.5 -120 29.5zM422 943.998l0.000976562 -10c-8.66699 -12 -21 -27.5 -37 -46.5s-33 -38 -51 -57s-34.667 -34.5 -50 -46.5h-57v12c9.33301 12 19.666 26.833 30.999 44.5s22.333 35.667 33 54
s19.667 34.833 27 49.5h104z" />
    <glyph glyph-name="racute" unicode="&#x155;" horiz-adv-x="391" 
d="M318 546c9.33301 0 19.333 -0.499023 30 -1.49902s20 -2.5 28 -4.5l-10 -81c-8 2 -16.833 3.66699 -26.5 5s-18.834 2 -27.501 2c-25.333 0 -49.166 -7.5 -71.499 -22.5s-40.333 -36 -54 -63s-20.5 -58.5 -20.5 -94.5v-286h-87v536h71l10 -98h4
c16 29.333 37 54.666 63 75.999s56.333 32 91 32zM363 766.001l0.000976562 -10c-8.66699 -12 -21 -27.5 -37 -46.5s-33 -38 -51 -57s-34.667 -34.5 -50 -46.5h-57v12c9.33301 12 19.666 26.833 30.999 44.5s22.333 35.667 33 54s19.667 34.833 27 49.5h104z" />
    <glyph glyph-name="uni0156" unicode="&#x156;" horiz-adv-x="588" 
d="M277 714c84 0 146 -16.834 186 -50.501s60 -84.5 60 -152.5c0 -38 -6.5 -69.667 -19.5 -95s-29.667 -45.666 -50 -60.999s-41.833 -27 -64.5 -35l186 -320h-104l-162 295h-129v-295h-89v714h186zM272 635.999l-92 -0.000976562v-265h96c54 0 93.333 11.5 118 34.5
s37 56.833 37 101.5c0 46.667 -13 79.834 -39 99.501s-66 29.5 -120 29.5zM360 -61.002l-0.000976562 -9c-3.33301 -12 -8.66602 -27.167 -15.999 -45.5s-16.166 -37 -26.499 -56s-21.166 -35.5 -32.499 -49.5h-48v12c4.66699 11.333 9.66699 25.833 15 43.5
s10.166 36 14.499 55s7.16602 35.5 8.49902 49.5h85z" />
    <glyph glyph-name="uni0157" unicode="&#x157;" horiz-adv-x="391" 
d="M318 546c9.33301 0 19.333 -0.499023 30 -1.49902s20 -2.5 28 -4.5l-10 -81c-8 2 -16.833 3.66699 -26.5 5s-18.834 2 -27.501 2c-25.333 0 -49.166 -7.5 -71.499 -22.5s-40.333 -36 -54 -63s-20.5 -58.5 -20.5 -94.5v-286h-87v536h71l10 -98h4
c16 29.333 37 54.666 63 75.999s56.333 32 91 32zM169 -60.999l-0.000976562 -9c-3.33301 -12 -8.66602 -27.167 -15.999 -45.5s-16.166 -37 -26.499 -56s-21.166 -35.5 -32.499 -49.5h-48v12c4.66699 11.333 9.66699 25.833 15 43.5s10.166 36 14.499 55
s7.16602 35.5 8.49902 49.5h85z" />
    <glyph glyph-name="Rcaron" unicode="&#x158;" horiz-adv-x="588" 
d="M277 714c84 0 146 -16.834 186 -50.501s60 -84.5 60 -152.5c0 -38 -6.5 -69.667 -19.5 -95s-29.667 -45.666 -50 -60.999s-41.833 -27 -64.5 -35l186 -320h-104l-162 295h-129v-295h-89v714h186zM272 635.999l-92 -0.000976562v-265h96c54 0 93.333 11.5 118 34.5
s37 56.833 37 101.5c0 46.667 -13 79.834 -39 99.501s-66 29.5 -120 29.5zM457 943.998v-13l-41 -45c-15.333 -17.333 -30 -35 -44 -53s-25 -34.333 -33 -49h-90c-8 14.667 -19 31 -33 49s-28.5 35.667 -43.5 53l-39.5 45v13h59c16.667 -11.333 33.834 -25 51.501 -41
s34.167 -33 49.5 -51c17.333 18 34.666 35 51.999 51s34.333 29.667 51 41h61z" />
    <glyph glyph-name="rcaron" unicode="&#x159;" horiz-adv-x="391" 
d="M318 546c9.33301 0 19.333 -0.499023 30 -1.49902s20 -2.5 28 -4.5l-10 -81c-8 2 -16.833 3.66699 -26.5 5s-18.834 2 -27.501 2c-25.333 0 -49.166 -7.5 -71.499 -22.5s-40.333 -36 -54 -63s-20.5 -58.5 -20.5 -94.5v-286h-87v536h71l10 -98h4
c16 29.333 37 54.666 63 75.999s56.333 32 91 32zM398 766.001v-13l-41 -45c-15.333 -17.333 -30 -35 -44 -53s-25 -34.333 -33 -49h-90c-8 14.667 -19 31 -33 49s-28.5 35.667 -43.5 53l-39.5 45v13h59c16.667 -11.333 33.834 -25 51.501 -41s34.167 -33 49.5 -51
c17.333 18 34.666 35 51.999 51s34.333 29.667 51 41h61z" />
    <glyph glyph-name="Sacute" unicode="&#x15a;" horiz-adv-x="517" 
d="M473 191c0 -63.333 -21.668 -112.664 -65.001 -147.997s-101.666 -53 -174.999 -53c-37.333 0 -72.166 3 -104.499 9s-59.166 14.333 -80.499 25v86c23.333 -10.667 51.833 -20.334 85.5 -29.001s68.167 -13 103.5 -13c48.667 0 85.334 10.333 110.001 31
s37 48.667 37 84c0 23.333 -4.83301 43 -14.5 59s-25.834 30.667 -48.501 44s-53.667 28 -93 44c-55.333 22 -97.833 49 -127.5 81s-44.5 75.667 -44.5 131c0 37.333 9.16699 69.666 27.5 96.999s43.666 48.333 75.999 63s69.833 22 112.5 22
c36.667 0 70.334 -3.66699 101.001 -11s59 -17 85 -29l-28 -77c-24 10.667 -49.5 19.667 -76.5 27s-54.833 11 -83.5 11c-41.333 0 -72.333 -9.5 -93 -28.5s-31 -44.167 -31 -75.5c0 -24 4.66699 -44 14 -60s24.666 -30.5 45.999 -43.5s49.666 -26.5 84.999 -40.5
c39.333 -15.333 72.5 -31.833 99.5 -49.5s47.5 -38.834 61.5 -63.501s21 -55.667 21 -93zM394.999 944.002l0.000976562 -10c-8.66699 -12 -21 -27.5 -37 -46.5s-33 -38 -51 -57s-34.667 -34.5 -50 -46.5h-57v12c9.33301 12 19.666 26.833 30.999 44.5s22.333 35.667 33 54
s19.667 34.833 27 49.5h104z" />
    <glyph glyph-name="sacute" unicode="&#x15b;" horiz-adv-x="452" 
d="M410 148c0 -52 -18.0029 -91.332 -54.0029 -117.999s-85.333 -40 -148 -40c-35.333 0 -65.833 3 -91.5 9s-48.167 14.333 -67.5 25v80c20.667 -10.667 45.334 -20.5 74.001 -29.5s57.667 -13.5 87 -13.5c40.667 0 70.167 7.16699 88.5 21.5s27.5 33.5 27.5 57.5
c0 13.333 -3.5 25.333 -10.5 36s-19.333 21.334 -37 32.001s-43.167 22.667 -76.5 36c-32 13.333 -59.5 26.666 -82.5 39.999s-40.667 29.333 -53 48s-18.5 42.667 -18.5 72c0 45.333 17.333 80.333 52 105s80.667 37 138 37c30.667 0 59.334 -3.33301 86.001 -10
s52 -15.334 76 -26.001l-29 -70c-21.333 9.33301 -43.666 17.333 -66.999 24s-47 10 -71 10c-32.667 0 -57.667 -5.83301 -75 -17.5s-26 -27.5 -26 -47.5c0 -15.333 4 -28.166 12 -38.499s21.167 -20.333 39.5 -30s43.5 -20.834 75.5 -33.501s59.167 -25.667 81.5 -39
s39.5 -29.5 51.5 -48.5s18 -42.833 18 -71.5zM353.997 766.001l0.000976562 -10c-8.66699 -12 -21 -27.5 -37 -46.5s-33 -38 -51 -57s-34.667 -34.5 -50 -46.5h-57v12c9.33301 12 19.666 26.833 30.999 44.5s22.333 35.667 33 54s19.667 34.833 27 49.5h104z" />
    <glyph glyph-name="Scircumflex" unicode="&#x15c;" horiz-adv-x="517" 
d="M473 191c0 -63.333 -21.668 -112.664 -65.001 -147.997s-101.666 -53 -174.999 -53c-37.333 0 -72.166 3 -104.499 9s-59.166 14.333 -80.499 25v86c23.333 -10.667 51.833 -20.334 85.5 -29.001s68.167 -13 103.5 -13c48.667 0 85.334 10.333 110.001 31
s37 48.667 37 84c0 23.333 -4.83301 43 -14.5 59s-25.834 30.667 -48.501 44s-53.667 28 -93 44c-55.333 22 -97.833 49 -127.5 81s-44.5 75.667 -44.5 131c0 37.333 9.16699 69.666 27.5 96.999s43.666 48.333 75.999 63s69.833 22 112.5 22
c36.667 0 70.334 -3.66699 101.001 -11s59 -17 85 -29l-28 -77c-24 10.667 -49.5 19.667 -76.5 27s-54.833 11 -83.5 11c-41.333 0 -72.333 -9.5 -93 -28.5s-31 -44.167 -31 -75.5c0 -24 4.66699 -44 14 -60s24.666 -30.5 45.999 -43.5s49.666 -26.5 84.999 -40.5
c39.333 -15.333 72.5 -31.833 99.5 -49.5s47.5 -38.834 61.5 -63.501s21 -55.667 21 -93zM311.999 944.002c8 -14.667 19 -31.168 33 -49.501s28.667 -36.333 44 -54l41 -45.5v-11h-61c-16.667 10.667 -33.667 23.834 -51 39.501s-34.666 32.5 -51.999 50.5
c-17.333 -18 -34.333 -34.833 -51 -50.5s-33.334 -28.834 -50.001 -39.501h-59v11c12 12.667 25.333 27.834 40 45.501l43 54c14 18.333 25 34.833 33 49.5h90z" />
    <glyph glyph-name="scircumflex" unicode="&#x15d;" horiz-adv-x="452" 
d="M410 148c0 -52 -18.0029 -91.332 -54.0029 -117.999s-85.333 -40 -148 -40c-35.333 0 -65.833 3 -91.5 9s-48.167 14.333 -67.5 25v80c20.667 -10.667 45.334 -20.5 74.001 -29.5s57.667 -13.5 87 -13.5c40.667 0 70.167 7.16699 88.5 21.5s27.5 33.5 27.5 57.5
c0 13.333 -3.5 25.333 -10.5 36s-19.333 21.334 -37 32.001s-43.167 22.667 -76.5 36c-32 13.333 -59.5 26.666 -82.5 39.999s-40.667 29.333 -53 48s-18.5 42.667 -18.5 72c0 45.333 17.333 80.333 52 105s80.667 37 138 37c30.667 0 59.334 -3.33301 86.001 -10
s52 -15.334 76 -26.001l-29 -70c-21.333 9.33301 -43.666 17.333 -66.999 24s-47 10 -71 10c-32.667 0 -57.667 -5.83301 -75 -17.5s-26 -27.5 -26 -47.5c0 -15.333 4 -28.166 12 -38.499s21.167 -20.333 39.5 -30s43.5 -20.834 75.5 -33.501s59.167 -25.667 81.5 -39
s39.5 -29.5 51.5 -48.5s18 -42.833 18 -71.5zM270.997 766.001c8 -14.667 19 -31.168 33 -49.501s28.667 -36.333 44 -54l41 -45.5v-11h-61c-16.667 10.667 -33.667 23.834 -51 39.501s-34.666 32.5 -51.999 50.5c-17.333 -18 -34.333 -34.833 -51 -50.5
s-33.334 -28.834 -50.001 -39.501h-59v11c12 12.667 25.333 27.834 40 45.501l43 54c14 18.333 25 34.833 33 49.5h90z" />
    <glyph glyph-name="Scedilla" unicode="&#x15e;" horiz-adv-x="517" 
d="M473 191c0 -63.333 -21.668 -112.664 -65.001 -147.997s-101.666 -53 -174.999 -53c-37.333 0 -72.166 3 -104.499 9s-59.166 14.333 -80.499 25v86c23.333 -10.667 51.833 -20.334 85.5 -29.001s68.167 -13 103.5 -13c48.667 0 85.334 10.333 110.001 31
s37 48.667 37 84c0 23.333 -4.83301 43 -14.5 59s-25.834 30.667 -48.501 44s-53.667 28 -93 44c-55.333 22 -97.833 49 -127.5 81s-44.5 75.667 -44.5 131c0 37.333 9.16699 69.666 27.5 96.999s43.666 48.333 75.999 63s69.833 22 112.5 22
c36.667 0 70.334 -3.66699 101.001 -11s59 -17 85 -29l-28 -77c-24 10.667 -49.5 19.667 -76.5 27s-54.833 11 -83.5 11c-41.333 0 -72.333 -9.5 -93 -28.5s-31 -44.167 -31 -75.5c0 -24 4.66699 -44 14 -60s24.666 -30.5 45.999 -43.5s49.666 -26.5 84.999 -40.5
c39.333 -15.333 72.5 -31.833 99.5 -49.5s47.5 -38.834 61.5 -63.501s21 -55.667 21 -93zM348.999 -138.998c0 -32 -11.5 -56.835 -34.5 -74.502s-57.833 -26.5 -104.5 -26.5c-20.667 0 -37 1.66699 -49 5v55c13.333 -3.33301 30.333 -5 51 -5
c21.333 0 37.833 3.16699 49.5 9.5s17.5 17.833 17.5 34.5c0 17.333 -8 30 -24 38s-36.333 13.667 -61 17l40 86h57l-23 -53c22 -5.33301 41 -14.666 57 -27.999s24 -32.666 24 -57.999z" />
    <glyph glyph-name="scedilla" unicode="&#x15f;" horiz-adv-x="452" 
d="M410 148c0 -52 -18.0029 -91.332 -54.0029 -117.999s-85.333 -40 -148 -40c-35.333 0 -65.833 3 -91.5 9s-48.167 14.333 -67.5 25v80c20.667 -10.667 45.334 -20.5 74.001 -29.5s57.667 -13.5 87 -13.5c40.667 0 70.167 7.16699 88.5 21.5s27.5 33.5 27.5 57.5
c0 13.333 -3.5 25.333 -10.5 36s-19.333 21.334 -37 32.001s-43.167 22.667 -76.5 36c-32 13.333 -59.5 26.666 -82.5 39.999s-40.667 29.333 -53 48s-18.5 42.667 -18.5 72c0 45.333 17.333 80.333 52 105s80.667 37 138 37c30.667 0 59.334 -3.33301 86.001 -10
s52 -15.334 76 -26.001l-29 -70c-21.333 9.33301 -43.666 17.333 -66.999 24s-47 10 -71 10c-32.667 0 -57.667 -5.83301 -75 -17.5s-26 -27.5 -26 -47.5c0 -15.333 4 -28.166 12 -38.499s21.167 -20.333 39.5 -30s43.5 -20.834 75.5 -33.501s59.167 -25.667 81.5 -39
s39.5 -29.5 51.5 -48.5s18 -42.833 18 -71.5zM321.997 -138.999c0 -32 -11.5 -56.835 -34.5 -74.502s-57.833 -26.5 -104.5 -26.5c-20.667 0 -37 1.66699 -49 5v55c13.333 -3.33301 30.333 -5 51 -5c21.333 0 37.833 3.16699 49.5 9.5s17.5 17.833 17.5 34.5
c0 17.333 -8 30 -24 38s-36.333 13.667 -61 17l40 86h57l-23 -53c22 -5.33301 41 -14.666 57 -27.999s24 -32.666 24 -57.999z" />
    <glyph glyph-name="Scaron" unicode="&#x160;" horiz-adv-x="517" 
d="M473 191c0 -63.333 -21.668 -112.664 -65.001 -147.997s-101.666 -53 -174.999 -53c-37.333 0 -72.166 3 -104.499 9s-59.166 14.333 -80.499 25v86c23.333 -10.667 51.833 -20.334 85.5 -29.001s68.167 -13 103.5 -13c48.667 0 85.334 10.333 110.001 31
s37 48.667 37 84c0 23.333 -4.83301 43 -14.5 59s-25.834 30.667 -48.501 44s-53.667 28 -93 44c-55.333 22 -97.833 49 -127.5 81s-44.5 75.667 -44.5 131c0 37.333 9.16699 69.666 27.5 96.999s43.666 48.333 75.999 63s69.833 22 112.5 22
c36.667 0 70.334 -3.66699 101.001 -11s59 -17 85 -29l-28 -77c-24 10.667 -49.5 19.667 -76.5 27s-54.833 11 -83.5 11c-41.333 0 -72.333 -9.5 -93 -28.5s-31 -44.167 -31 -75.5c0 -24 4.66699 -44 14 -60s24.666 -30.5 45.999 -43.5s49.666 -26.5 84.999 -40.5
c39.333 -15.333 72.5 -31.833 99.5 -49.5s47.5 -38.834 61.5 -63.501s21 -55.667 21 -93zM429.999 944.002v-13l-41 -45c-15.333 -17.333 -30 -35 -44 -53s-25 -34.333 -33 -49h-90c-8 14.667 -19 31 -33 49s-28.5 35.667 -43.5 53l-39.5 45v13h59
c16.667 -11.333 33.834 -25 51.501 -41s34.167 -33 49.5 -51c17.333 18 34.666 35 51.999 51s34.333 29.667 51 41h61z" />
    <glyph glyph-name="scaron" unicode="&#x161;" horiz-adv-x="452" 
d="M410 148c0 -52 -18.0029 -91.332 -54.0029 -117.999s-85.333 -40 -148 -40c-35.333 0 -65.833 3 -91.5 9s-48.167 14.333 -67.5 25v80c20.667 -10.667 45.334 -20.5 74.001 -29.5s57.667 -13.5 87 -13.5c40.667 0 70.167 7.16699 88.5 21.5s27.5 33.5 27.5 57.5
c0 13.333 -3.5 25.333 -10.5 36s-19.333 21.334 -37 32.001s-43.167 22.667 -76.5 36c-32 13.333 -59.5 26.666 -82.5 39.999s-40.667 29.333 -53 48s-18.5 42.667 -18.5 72c0 45.333 17.333 80.333 52 105s80.667 37 138 37c30.667 0 59.334 -3.33301 86.001 -10
s52 -15.334 76 -26.001l-29 -70c-21.333 9.33301 -43.666 17.333 -66.999 24s-47 10 -71 10c-32.667 0 -57.667 -5.83301 -75 -17.5s-26 -27.5 -26 -47.5c0 -15.333 4 -28.166 12 -38.499s21.167 -20.333 39.5 -30s43.5 -20.834 75.5 -33.501s59.167 -25.667 81.5 -39
s39.5 -29.5 51.5 -48.5s18 -42.833 18 -71.5zM388.997 766.001v-13l-41 -45c-15.333 -17.333 -30 -35 -44 -53s-25 -34.333 -33 -49h-90c-8 14.667 -19 31 -33 49s-28.5 35.667 -43.5 53l-39.5 45v13h59c16.667 -11.333 33.834 -25 51.501 -41s34.167 -33 49.5 -51
c17.333 18 34.666 35 51.999 51s34.333 29.667 51 41h61z" />
    <glyph glyph-name="uni0162" unicode="&#x162;" horiz-adv-x="524" 
d="M307 0h-89v635h-208v79h503v-79h-206v-635zM350 -139c0 -32 -11.5 -56.835 -34.5 -74.502s-57.833 -26.5 -104.5 -26.5c-20.667 0 -37 1.66699 -49 5v55c13.333 -3.33301 30.333 -5 51 -5c21.333 0 37.833 3.16699 49.5 9.5s17.5 17.833 17.5 34.5c0 17.333 -8 30 -24 38
s-36.333 13.667 -61 17l40 86h57l-23 -53c22 -5.33301 41 -14.666 57 -27.999s24 -32.666 24 -57.999z" />
    <glyph glyph-name="uni0163" unicode="&#x163;" horiz-adv-x="345" 
d="M252 62c12.667 0 25.668 1.00098 39.001 3.00098s24.333 4.66699 33 8v-67c-9.33301 -4.66699 -22.5 -8.5 -39.5 -11.5s-33.167 -4.5 -48.5 -4.5c-26.667 0 -51.334 4.83301 -74.001 14.5s-40.834 26.5 -54.501 50.5s-20.5 57.667 -20.5 101v312h-71v42l73 35l33 114h52
v-123h146v-68h-146v-310c0 -32.667 7.33301 -56.834 22 -72.501s33.334 -23.5 56.001 -23.5zM302.001 -138.999c0 -32 -11.5 -56.835 -34.5 -74.502s-57.833 -26.5 -104.5 -26.5c-20.667 0 -37 1.66699 -49 5v55c13.333 -3.33301 30.333 -5 51 -5
c21.333 0 37.833 3.16699 49.5 9.5s17.5 17.833 17.5 34.5c0 17.333 -8 30 -24 38s-36.333 13.667 -61 17l40 86h57l-23 -53c22 -5.33301 41 -14.666 57 -27.999s24 -32.666 24 -57.999z" />
    <glyph glyph-name="Tcaron" unicode="&#x164;" horiz-adv-x="524" 
d="M307 0h-89v635h-208v79h503v-79h-206v-635zM424 944v-13l-41 -45c-15.333 -17.333 -30 -35 -44 -53s-25 -34.333 -33 -49h-90c-8 14.667 -19 31 -33 49s-28.5 35.667 -43.5 53l-39.5 45v13h59c16.667 -11.333 33.834 -25 51.501 -41s34.167 -33 49.5 -51
c17.333 18 34.666 35 51.999 51s34.333 29.667 51 41h61z" />
    <glyph glyph-name="tcaron" unicode="&#x165;" horiz-adv-x="345" 
d="M252 62c12.667 0 25.668 1.00098 39.001 3.00098s24.333 4.66699 33 8v-67c-9.33301 -4.66699 -22.5 -8.5 -39.5 -11.5s-33.167 -4.5 -48.5 -4.5c-26.667 0 -51.334 4.83301 -74.001 14.5s-40.834 26.5 -54.501 50.5s-20.5 57.667 -20.5 101v312h-71v42l73 35l33 114h52
v-123h146v-68h-146v-310c0 -32.667 7.33301 -56.834 22 -72.501s33.334 -23.5 56.001 -23.5zM453.001 760.001l-0.000976562 -9.00098c-3.33301 -12 -8.5 -27 -15.5 -45s-15.167 -36.5 -24.5 -55.5s-18.666 -35.833 -27.999 -50.5h-48v12c4 12.667 8 27.834 12 45.501
s7.83301 35.5 11.5 53.5s6.16699 34.333 7.5 49h85z" />
    <glyph glyph-name="Tbar" unicode="&#x166;" horiz-adv-x="524" 
d="M217 0v325h-138v74h138v235h-207v80h503v-80h-207v-235h137v-74h-137v-325h-89z" />
    <glyph glyph-name="tbar" unicode="&#x167;" horiz-adv-x="361" 
d="M252 62c12.667 0 25.668 1.00098 39.001 3.00098s24.333 4.66699 33 8v-67c-9.33301 -4.66699 -22.5 -8.5 -39.5 -11.5s-33.167 -4.5 -48.5 -4.5c-26.667 0 -51.334 4.83301 -74.001 14.5s-40.834 26.5 -54.501 50.5s-20.5 57.667 -20.5 101v124h-63v66h63v122h-71v42
l73 35l33 114h52v-123h146v-68h-146v-122h152v-66h-152v-122c0 -32.667 7.33301 -56.834 22 -72.501s33.334 -23.5 56.001 -23.5z" />
    <glyph glyph-name="Utilde" unicode="&#x168;" horiz-adv-x="689" 
d="M604 714v-461.999c0 -49.333 -9.5 -93.833 -28.5 -133.5s-48 -71 -87 -94s-88.167 -34.5 -147.5 -34.5c-84 0 -147.833 24.167 -191.5 72.5s-65.5 112.166 -65.5 191.499v460h89v-463c0 -58 14.333 -103 43 -135s72 -48 130 -48c59.333 0 102.333 17.167 129 51.5
s40 78.5 40 132.5v462h89zM519 913.001c-4 -39.333 -15 -70.5 -33 -93.5s-41.667 -34.5 -71 -34.5c-17.333 0 -34.333 4.66699 -51 14s-32.667 18.833 -48 28.5s-30 14.5 -44 14.5c-14.667 0 -25.834 -4.83301 -33.501 -14.5s-13.5 -24.167 -17.5 -43.5h-50
c4 39.333 15 70.5 33 93.5s42 34.5 72 34.5c18 0 35.5 -4.83301 52.5 -14.5l48 -28.5c15 -9.33301 29.167 -14 42.5 -14c14 0 24.833 4.83301 32.5 14.5s13.834 24.167 18.501 43.5h49z" />
    <glyph glyph-name="utilde" unicode="&#x169;" horiz-adv-x="583" 
d="M504 536l0.00195312 -536h-70l-13 71h-4c-16.667 -28 -39.334 -48.5 -68.001 -61.5s-59.334 -19.5 -92.001 -19.5c-60 0 -105.5 15.5 -136.5 46.5s-46.5 80.5 -46.5 148.5v351h88v-345c0 -85.333 36.667 -128 110 -128c54.667 0 92.5 16.667 113.5 50
s31.5 81.333 31.5 144v279h87zM466.002 735c-4 -39.333 -15 -70.5 -33 -93.5s-41.667 -34.5 -71 -34.5c-17.333 0 -34.333 4.66699 -51 14s-32.667 18.833 -48 28.5s-30 14.5 -44 14.5c-14.667 0 -25.834 -4.83301 -33.501 -14.5s-13.5 -24.167 -17.5 -43.5h-50
c4 39.333 15 70.5 33 93.5s42 34.5 72 34.5c18 0 35.5 -4.83301 52.5 -14.5l48 -28.5c15 -9.33301 29.167 -14 42.5 -14c14 0 24.833 4.83301 32.5 14.5s13.834 24.167 18.501 43.5h49z" />
    <glyph glyph-name="Umacron" unicode="&#x16a;" horiz-adv-x="689" 
d="M604 714v-461.999c0 -49.333 -9.5 -93.833 -28.5 -133.5s-48 -71 -87 -94s-88.167 -34.5 -147.5 -34.5c-84 0 -147.833 24.167 -191.5 72.5s-65.5 112.166 -65.5 191.499v460h89v-463c0 -58 14.333 -103 43 -135s72 -48 130 -48c59.333 0 102.333 17.167 129 51.5
s40 78.5 40 132.5v462h89zM485 855.001v-71h-282v71h282z" />
    <glyph glyph-name="umacron" unicode="&#x16b;" horiz-adv-x="583" 
d="M504 536l0.00195312 -536h-70l-13 71h-4c-16.667 -28 -39.334 -48.5 -68.001 -61.5s-59.334 -19.5 -92.001 -19.5c-60 0 -105.5 15.5 -136.5 46.5s-46.5 80.5 -46.5 148.5v351h88v-345c0 -85.333 36.667 -128 110 -128c54.667 0 92.5 16.667 113.5 50
s31.5 81.333 31.5 144v279h87zM432.002 677v-71h-282v71h282z" />
    <glyph glyph-name="Ubreve" unicode="&#x16c;" horiz-adv-x="689" 
d="M604 714v-461.999c0 -49.333 -9.5 -93.833 -28.5 -133.5s-48 -71 -87 -94s-88.167 -34.5 -147.5 -34.5c-84 0 -147.833 24.167 -191.5 72.5s-65.5 112.166 -65.5 191.499v460h89v-463c0 -58 14.333 -103 43 -135s72 -48 130 -48c59.333 0 102.333 17.167 129 51.5
s40 78.5 40 132.5v462h89zM494 918.001c-3.33301 -40 -18 -72.334 -44 -97.001s-61.667 -37 -107 -37c-47.333 0 -83 12 -107 36s-37.333 56.667 -40 98h53c2.66699 -27.333 12 -44.666 28 -51.999s38.333 -11 67 -11c24.667 0 46 4 64 12s28.667 25 32 51h54z" />
    <glyph glyph-name="ubreve" unicode="&#x16d;" horiz-adv-x="583" 
d="M504 536l0.00195312 -536h-70l-13 71h-4c-16.667 -28 -39.334 -48.5 -68.001 -61.5s-59.334 -19.5 -92.001 -19.5c-60 0 -105.5 15.5 -136.5 46.5s-46.5 80.5 -46.5 148.5v351h88v-345c0 -85.333 36.667 -128 110 -128c54.667 0 92.5 16.667 113.5 50
s31.5 81.333 31.5 144v279h87zM441.002 740c-3.33301 -40 -18 -72.334 -44 -97.001s-61.667 -37 -107 -37c-47.333 0 -83 12 -107 36s-37.333 56.667 -40 98h53c2.66699 -27.333 12 -44.666 28 -51.999s38.333 -11 67 -11c24.667 0 46 4 64 12s28.667 25 32 51h54z" />
    <glyph glyph-name="Uring" unicode="&#x16e;" horiz-adv-x="689" 
d="M604 714v-461.999c0 -49.333 -9.5 -93.833 -28.5 -133.5s-48 -71 -87 -94s-88.167 -34.5 -147.5 -34.5c-84 0 -147.833 24.167 -191.5 72.5s-65.5 112.166 -65.5 191.499v460h89v-463c0 -58 14.333 -103 43 -135s72 -48 130 -48c59.333 0 102.333 17.167 129 51.5
s40 78.5 40 132.5v462h89zM344 784.001c-30.667 0 -55.5 9.33398 -74.5 28.001s-28.5 44.667 -28.5 78s9.5 59.166 28.5 77.499s43.833 27.5 74.5 27.5c30 0 55.167 -9.16699 75.5 -27.5s30.5 -43.833 30.5 -76.5c0 -34 -10 -60.333 -30 -79s-45.333 -28 -76 -28z
M344 834.002c15.333 0 27.833 5 37.5 15s14.5 23.667 14.5 41s-4.83301 31 -14.5 41s-22.167 15 -37.5 15c-14.667 0 -27 -5 -37 -15s-15 -23.667 -15 -41s4.5 -31 13.5 -41s21.833 -15 38.5 -15z" />
    <glyph glyph-name="uring" unicode="&#x16f;" horiz-adv-x="583" 
d="M504 536l0.00195312 -536h-70l-13 71h-4c-16.667 -28 -39.334 -48.5 -68.001 -61.5s-59.334 -19.5 -92.001 -19.5c-60 0 -105.5 15.5 -136.5 46.5s-46.5 80.5 -46.5 148.5v351h88v-345c0 -85.333 36.667 -128 110 -128c54.667 0 92.5 16.667 113.5 50
s31.5 81.333 31.5 144v279h87zM291.002 606c-30.667 0 -55.5 9.33398 -74.5 28.001s-28.5 44.667 -28.5 78s9.5 59.166 28.5 77.499s43.833 27.5 74.5 27.5c30 0 55.167 -9.16699 75.5 -27.5s30.5 -43.833 30.5 -76.5c0 -34 -10 -60.333 -30 -79s-45.333 -28 -76 -28z
M291.002 656.001c15.333 0 27.833 5 37.5 15s14.5 23.667 14.5 41s-4.83301 31 -14.5 41s-22.167 15 -37.5 15c-14.667 0 -27 -5 -37 -15s-15 -23.667 -15 -41s4.5 -31 13.5 -41s21.833 -15 38.5 -15z" />
    <glyph glyph-name="Uhungarumlaut" unicode="&#x170;" horiz-adv-x="689" 
d="M604 714v-461.999c0 -49.333 -9.5 -93.833 -28.5 -133.5s-48 -71 -87 -94s-88.167 -34.5 -147.5 -34.5c-84 0 -147.833 24.167 -191.5 72.5s-65.5 112.166 -65.5 191.499v460h89v-463c0 -58 14.333 -103 43 -135s72 -48 130 -48c59.333 0 102.333 17.167 129 51.5
s40 78.5 40 132.5v462h89zM516 944.001l0.000976562 -10.002c-6.66699 -12 -17.334 -27.5 -32.001 -46.5s-30.667 -38 -48 -57s-33 -34.5 -47 -46.5h-49v12c12.667 18.667 27 42.334 43 71.001s29 54.334 39 77.001h94zM349.001 943.999l0.000976562 -10.002
c-6.66699 -12 -17.334 -27.5 -32.001 -46.5s-30.667 -38 -48 -57s-33 -34.5 -47 -46.5h-49v12c13.333 18.667 27.833 42.334 43.5 71.001s28.5 54.334 38.5 77.001h94z" />
    <glyph glyph-name="uhungarumlaut" unicode="&#x171;" horiz-adv-x="583" 
d="M504 536l0.00195312 -536h-70l-13 71h-4c-16.667 -28 -39.334 -48.5 -68.001 -61.5s-59.334 -19.5 -92.001 -19.5c-60 0 -105.5 15.5 -136.5 46.5s-46.5 80.5 -46.5 148.5v351h88v-345c0 -85.333 36.667 -128 110 -128c54.667 0 92.5 16.667 113.5 50
s31.5 81.333 31.5 144v279h87zM463.002 766l0.000976562 -10.002c-6.66699 -12 -17.334 -27.5 -32.001 -46.5s-30.667 -38 -48 -57s-33 -34.5 -47 -46.5h-49v12c12.667 18.667 27 42.334 43 71.001s29 54.334 39 77.001h94zM296.003 765.998l0.000976562 -10.002
c-6.66699 -12 -17.334 -27.5 -32.001 -46.5s-30.667 -38 -48 -57s-33 -34.5 -47 -46.5h-49v12c13.333 18.667 27.833 42.334 43.5 71.001s28.5 54.334 38.5 77.001h94z" />
    <glyph glyph-name="Uogonek" unicode="&#x172;" horiz-adv-x="731" 
d="M435 -107c0 -19.333 3.99707 -33.167 11.9971 -41.5s19 -12.5 33 -12.5c10.667 0 20 0.833008 28 2.5s14.667 2.83398 20 3.50098v-56c-9.33301 -2.66699 -18.666 -4.83398 -27.999 -6.50098s-20.666 -2.5 -33.999 -2.5c-35.333 0 -61.333 8.66699 -78 26s-25 43 -25 77
c0 20 5.16699 40 15.5 60s22.5 38 36.5 54c-23.333 -4.66699 -48 -7 -74 -7c-84 0 -147.833 24.167 -191.5 72.5s-65.5 112.166 -65.5 191.499v460h89v-463c0 -58 14.333 -103 43 -135s72 -48 130 -48c59.333 0 102.333 17.167 129 51.5s40 78.5 40 132.5v462h89v-462
c0 -41.333 -6.66699 -79.5 -20 -114.5s-34 -64.5 -62 -88.5c-29.333 -34 -51.166 -62.667 -65.499 -86s-21.5 -46.666 -21.5 -69.999z" />
    <glyph glyph-name="uogonek" unicode="&#x173;" horiz-adv-x="583" 
d="M504 536l0.00195312 -536h-70l-13 71h-4c-16.667 -28 -39.334 -48.5 -68.001 -61.5s-59.334 -19.5 -92.001 -19.5c-60 0 -105.5 15.5 -136.5 46.5s-46.5 80.5 -46.5 148.5v351h88v-345c0 -85.333 36.667 -128 110 -128c54.667 0 92.5 16.667 113.5 50
s31.5 81.333 31.5 144v279h87zM433.002 -116c0 -30 14.001 -44.999 42.001 -44.999c10 0 18.833 0.833008 26.5 2.5s13.834 2.83398 18.501 3.50098v-56c-8.66699 -2.66699 -17.5 -4.83398 -26.5 -6.50098s-19.833 -2.5 -32.5 -2.5c-33.333 0 -58 8.33301 -74 25
s-24 39.667 -24 69c0 18.667 4.66699 37.167 14 55.5s20.666 34.833 33.999 49.5s26.666 26.667 39.999 36l46 -15c-21.333 -21.333 -37.333 -40.833 -48 -58.5s-16 -36.834 -16 -57.501z" />
    <glyph glyph-name="Wcircumflex" unicode="&#x174;" horiz-adv-x="876" 
d="M865 714l-177.998 -713.998h-91l-127 468c-5.33301 18.667 -10.5 37.834 -15.5 57.501s-9.16699 37 -12.5 52s-5.33301 25.5 -6 31.5c-1.33301 -8.66699 -5 -27.167 -11 -55.5s-13 -57.833 -21 -88.5l-124 -465h-92l-177 714h93l103 -436
c6.66699 -30.667 12.667 -60.334 18 -89.001s9.66602 -55.667 12.999 -81c3.33301 26 8.16602 54.333 14.499 85s13.5 60.667 21.5 90l116 431h92l121 -434c8.66699 -30.667 16 -61.334 22 -92.001s10.667 -57.334 14 -80.001c2.66699 24.667 7 51.5 13 80.5
s12.667 59.167 20 90.5l102 435h92zM482.002 944.002c8 -14.667 19 -31.168 33 -49.501s28.667 -36.333 44 -54l41 -45.5v-11h-61c-16.667 10.667 -33.667 23.834 -51 39.501s-34.666 32.5 -51.999 50.5c-17.333 -18 -34.333 -34.833 -51 -50.5
s-33.334 -28.834 -50.001 -39.501h-59v11c12 12.667 25.333 27.834 40 45.501l43 54c14 18.333 25 34.833 33 49.5h90z" />
    <glyph glyph-name="wcircumflex" unicode="&#x175;" horiz-adv-x="743" 
d="M492 1l-83.001 302l-21.5 80c-7 26 -11.833 46.667 -14.5 62h-4c-2.66699 -15.333 -7.16699 -36 -13.5 -62s-13.5 -53 -21.5 -81l-87 -301h-98l-139 536h90l69 -286c7.33301 -28.667 13.833 -57.667 19.5 -87s9.83398 -53.666 12.501 -72.999h4
c2 11.333 4.83301 25.333 8.5 42l12 52.5c4.33301 18.333 8.5 34.833 12.5 49.5l87 302h96l84 -302c6.66699 -23.333 13.167 -48.333 19.5 -75s10.833 -49.334 13.5 -68.001h3c2 16.667 6.33301 39.667 13 69l21 90l70 286h88l-140 -536h-101zM415.999 766
c8 -14.667 19 -31.168 33 -49.501s28.667 -36.333 44 -54l41 -45.5v-11h-61c-16.667 10.667 -33.667 23.834 -51 39.501s-34.666 32.5 -51.999 50.5c-17.333 -18 -34.333 -34.833 -51 -50.5s-33.334 -28.834 -50.001 -39.501h-59v11c12 12.667 25.333 27.834 40 45.501
l43 54c14 18.333 25 34.833 33 49.5h90z" />
    <glyph glyph-name="Ycircumflex" unicode="&#x176;" horiz-adv-x="536" 
d="M268 363l172 351h96l-223 -437v-277h-89v273l-224 441h97zM312 944c8 -14.667 19 -31.168 33 -49.501s28.667 -36.333 44 -54l41 -45.5v-11h-61c-16.667 10.667 -33.667 23.834 -51 39.501s-34.666 32.5 -51.999 50.5c-17.333 -18 -34.333 -34.833 -51 -50.5
s-33.334 -28.834 -50.001 -39.501h-59v11c12 12.667 25.333 27.834 40 45.501l43 54c14 18.333 25 34.833 33 49.5h90z" />
    <glyph glyph-name="ycircumflex" unicode="&#x177;" horiz-adv-x="484" 
d="M1 536l94.002 -0.000976562l107 -305c9.33301 -27.333 17.666 -53 24.999 -77s12.666 -47 15.999 -69h3c4 16.667 9.66699 38.5 17 65.5s15.666 54.167 24.999 81.5l101 304h95l-217 -610c-18 -50.667 -41.333 -91 -70 -121s-67.334 -45 -116.001 -45
c-15.333 0 -28.666 0.833008 -39.999 2.5s-21 3.5 -29 5.5v70c6.66699 -1.33301 15 -2.66602 25 -3.99902s20.333 -2 31 -2c28.667 0 51.834 8.66699 69.501 26s31.5 40.333 41.5 69l25 71zM286.002 765.999c8 -14.667 19 -31.168 33 -49.501s28.667 -36.333 44 -54
l41 -45.5v-11h-61c-16.667 10.667 -33.667 23.834 -51 39.501s-34.666 32.5 -51.999 50.5c-17.333 -18 -34.333 -34.833 -51 -50.5s-33.334 -28.834 -50.001 -39.501h-59v11c12 12.667 25.333 27.834 40 45.501l43 54c14 18.333 25 34.833 33 49.5h90z" />
    <glyph glyph-name="Ydieresis" unicode="&#x178;" horiz-adv-x="536" 
d="M268 363l172 351h96l-223 -437v-277h-89v273l-224 441h97zM134 859c0 17.333 4.5 29.833 13.5 37.5s19.833 11.5 32.5 11.5c12 0 22.5 -3.83301 31.5 -11.5s13.5 -20.167 13.5 -37.5c0 -16.667 -4.5 -29.167 -13.5 -37.5s-19.5 -12.5 -31.5 -12.5
c-12.667 0 -23.5 4.16699 -32.5 12.5s-13.5 20.833 -13.5 37.5zM311 859c0 17.333 4.5 29.833 13.5 37.5s19.5 11.5 31.5 11.5c12.667 0 23.5 -3.83301 32.5 -11.5s13.5 -20.167 13.5 -37.5c0 -16.667 -4.5 -29.167 -13.5 -37.5s-19.833 -12.5 -32.5 -12.5
c-12 0 -22.5 4.16699 -31.5 12.5s-13.5 20.833 -13.5 37.5z" />
    <glyph glyph-name="Zacute" unicode="&#x179;" horiz-adv-x="539" 
d="M503 0h-468v68l351 566h-340v80h448v-68l-351 -566h360v-80zM400 944l0.000976562 -10c-8.66699 -12 -21 -27.5 -37 -46.5s-33 -38 -51 -57s-34.667 -34.5 -50 -46.5h-57v12c9.33301 12 19.666 26.833 30.999 44.5s22.333 35.667 33 54s19.667 34.833 27 49.5h104z" />
    <glyph glyph-name="zacute" unicode="&#x17a;" horiz-adv-x="443" 
d="M407 0h-371v58l268 410h-252v68h349v-66l-265 -402h271v-68zM349 766l0.000976562 -10c-8.66699 -12 -21 -27.5 -37 -46.5s-33 -38 -51 -57s-34.667 -34.5 -50 -46.5h-57v12c9.33301 12 19.666 26.833 30.999 44.5s22.333 35.667 33 54s19.667 34.833 27 49.5h104z" />
    <glyph glyph-name="Zdotaccent" unicode="&#x17b;" horiz-adv-x="539" 
d="M503 0h-468v68l351 566h-340v80h448v-68l-351 -566h360v-80zM273 915c13.333 0 25 -4.5 35 -13.5s15 -23.167 15 -42.5s-5 -33.5 -15 -42.5s-21.667 -13.5 -35 -13.5c-14 0 -26 4.5 -36 13.5s-15 23.167 -15 42.5s5 33.5 15 42.5s22 13.5 36 13.5z" />
    <glyph glyph-name="zdotaccent" unicode="&#x17c;" horiz-adv-x="443" 
d="M407 0h-371v58l268 410h-252v68h349v-66l-265 -402h271v-68zM222 737c13.333 0 25 -4.5 35 -13.5s15 -23.167 15 -42.5s-5 -33.5 -15 -42.5s-21.667 -13.5 -35 -13.5c-14 0 -26 4.5 -36 13.5s-15 23.167 -15 42.5s5 33.5 15 42.5s22 13.5 36 13.5z" />
    <glyph glyph-name="Zcaron" unicode="&#x17d;" horiz-adv-x="539" 
d="M503 0h-468v68l351 566h-340v80h448v-68l-351 -566h360v-80zM435 944v-13l-41 -45c-15.333 -17.333 -30 -35 -44 -53s-25 -34.333 -33 -49h-90c-8 14.667 -19 31 -33 49s-28.5 35.667 -43.5 53l-39.5 45v13h59c16.667 -11.333 33.834 -25 51.501 -41s34.167 -33 49.5 -51
c17.333 18 34.666 35 51.999 51s34.333 29.667 51 41h61z" />
    <glyph glyph-name="zcaron" unicode="&#x17e;" horiz-adv-x="443" 
d="M407 0h-371v58l268 410h-252v68h349v-66l-265 -402h271v-68zM384 766v-13l-41 -45c-15.333 -17.333 -30 -35 -44 -53s-25 -34.333 -33 -49h-90c-8 14.667 -19 31 -33 49s-28.5 35.667 -43.5 53l-39.5 45v13h59c16.667 -11.333 33.834 -25 51.501 -41s34.167 -33 49.5 -51
c17.333 18 34.666 35 51.999 51s34.333 29.667 51 41h61z" />
    <glyph glyph-name="longs" unicode="&#x17f;" horiz-adv-x="310" 
d="M247 692c-25.333 0 -45.1689 -8.66602 -59.502 -25.999s-21.5 -47 -21.5 -89v-577h-87v577c0 68.667 15.167 117.167 45.5 145.5s70.833 42.5 121.5 42.5c20.667 0 38.834 -1.83301 54.501 -5.5s29.834 -8.16699 42.501 -13.5l-22 -69
c-10 3.33301 -21.667 6.66602 -35 9.99902s-26.333 5 -39 5z" />
    <glyph glyph-name="uni0180" unicode="&#x180;" horiz-adv-x="579" 
d="M322 -10c-39.333 0 -71.5 7.66895 -96.5 23.002s-44.5 33.666 -58.5 54.999h-7l-18 -68h-63v605h-71v66h71v89h88v-89h196v-66h-196v-30c0 -22.667 -0.5 -43.834 -1.5 -63.501s-2.16699 -35.167 -3.5 -46.5h5c14 22.667 33.5 41.667 58.5 57s57.167 23 96.5 23
c62 0 111.833 -23.167 149.5 -69.5s56.5 -115.5 56.5 -207.5s-19 -161.333 -57 -208s-87.667 -70 -149 -70zM307 63.002c44 0 76.999 17.668 98.999 53.001s33 86.333 33 153c0 135.333 -44.667 203 -134 203c-51.333 0 -87.166 -16.333 -107.499 -49
s-30.5 -83.334 -30.5 -152.001v-4c0 -66 9.83301 -116.5 29.5 -151.5s56.5 -52.5 110.5 -52.5z" />
    <glyph glyph-name="uni0181" unicode="&#x181;" horiz-adv-x="691" 
d="M169 0l0.000976562 637h-25c-19.333 0 -33.666 -4.5 -42.999 -13.5s-14 -21.167 -14 -36.5c0 -11.333 1.16699 -22 3.5 -32s4.16602 -17.333 5.49902 -22h-77c-2.66699 7.33301 -5 16.333 -7 27s-3 20 -3 28c0 42.667 11 74.334 33 95.001s56.333 31 103 31h217
c84 0 147.667 -13.333 191 -40s65 -72.334 65 -137.001c0 -42 -10.833 -76.833 -32.5 -104.5s-52.834 -45.5 -93.501 -53.5v-5c28 -5.33301 53.167 -14.333 75.5 -27s40 -30.667 53 -54s19.5 -53.333 19.5 -90c0 -64.667 -21 -114.667 -63 -150s-99 -53 -171 -53h-237z
M258.001 410l121 -0.000976562c56 0 94.5 9.83301 115.5 29.5s31.5 48.834 31.5 87.501c0 39.333 -12.833 67.5 -38.5 84.5s-66.167 25.5 -121.5 25.5h-108v-227zM258.001 75.999h132.001c58 0 98.333 12.333 121 37s34 57 34 97c0 37.333 -11.833 67.5 -35.5 90.5
s-65.834 34.5 -126.501 34.5h-125v-259z" />
    <glyph glyph-name="uni0182" unicode="&#x182;" horiz-adv-x="581" 
d="M91 0l0.000976562 713.999h401v-79h-312v-223h96c66.667 0 118.667 -8.83301 156 -26.5s63.5 -41.667 78.5 -72s22.5 -65.166 22.5 -104.499c0 -65.333 -18.833 -116.5 -56.5 -153.5s-100.834 -55.5 -189.501 -55.5h-196zM180.001 76.999l99.001 -0.000976562
c59.333 0 101.166 10.833 125.499 32.5s36.5 54.834 36.5 99.501c0 46 -13.5 78.333 -40.5 97s-72.167 28 -135.5 28h-85v-257z" />
    <glyph glyph-name="uni0183" unicode="&#x183;" horiz-adv-x="579" 
d="M321 -10c-39.333 0 -71.501 7.66895 -96.501 23.002s-44.5 33.666 -58.5 54.999h-7l-17 -68h-63v760h398v-74h-311v-111c0 -22.667 -0.666992 -43.834 -2 -63.501s-2.33301 -35.167 -3 -46.5h5c14 22.667 33.5 41.667 58.5 57s57.167 23 96.5 23
c62.667 0 112.834 -23.167 150.501 -69.5s56.5 -115.5 56.5 -207.5s-19 -161.333 -57 -208s-88 -70 -150 -70zM306.999 63.002c43.333 0 75.999 17.668 97.999 53.001s33 86.333 33 153c0 135.333 -44.333 203 -133 203c-52 0 -88.167 -16.333 -108.5 -49
s-30.5 -83.334 -30.5 -152.001v-4c0 -66 9.83301 -116.5 29.5 -151.5s56.834 -52.5 111.501 -52.5z" />
    <glyph glyph-name="uni0184" unicode="&#x184;" horiz-adv-x="599" 
d="M321 -10c-58 0 -104.333 9.33301 -139 28s-59.667 44.5 -75 77.5s-23 71.167 -23 114.5v504h89v-302h123c62.667 0 112.5 -9.33301 149.5 -28s63.833 -43.667 80.5 -75s25 -66 25 -104c0 -63.333 -19 -115 -57 -155s-95.667 -60 -173 -60zM320 67
c48.667 0 84.002 11.832 106.002 35.499s33 57.834 33 102.501c0 46 -14.833 79 -44.5 99s-72.834 30 -129.501 30h-112v-124c0 -52 11.667 -88.833 35 -110.5s60.666 -32.5 111.999 -32.5z" />
    <glyph glyph-name="uni0185" unicode="&#x185;" horiz-adv-x="577" 
d="M304 -10c-69.333 0 -124.499 23.168 -165.499 69.501s-61.5 115.5 -61.5 207.5v493h87v-185c0 -22.667 -0.666992 -43.834 -2 -63.501s-2.33301 -35.167 -3 -46.5h5c14 22.667 33.667 41.667 59 57s57.666 23 96.999 23c62 0 111.833 -23.167 149.5 -69.5
s56.5 -115.5 56.5 -207.5s-20 -161.333 -60 -208s-94 -70 -162 -70zM305.001 63.001c44 0 76.832 17.668 98.499 53.001s32.5 86.333 32.5 153c0 135.333 -44.333 203 -133 203c-52 0 -88.167 -16.333 -108.5 -49s-30.5 -83.334 -30.5 -152.001v-6
c0 -64 12.333 -113.667 37 -149s59.334 -53 104.001 -53z" />
    <glyph glyph-name="uni0186" unicode="&#x186;" horiz-adv-x="594" 
d="M228 -10c-37.333 0 -69.332 2.33398 -95.999 7.00098s-52.334 12 -77.001 22v78c26 -8 52 -14.667 78 -20s53.333 -8 82 -8c71.333 0 127.166 25.667 167.499 77s60.5 121.666 60.5 210.999c0 88.667 -19.167 158.834 -57.5 210.501s-94.833 77.5 -169.5 77.5
c-30 0 -57.667 -4 -83 -12s-48.333 -17 -69 -27l-35 76c25.333 13.333 54.833 23.666 88.5 30.999s70.834 11 111.501 11c68.667 0 125.667 -15 171 -45s79.5 -72.667 102.5 -128s34.5 -120.333 34.5 -195c0 -72 -12.167 -135.5 -36.5 -190.5s-59.5 -98 -105.5 -129
s-101.667 -46.5 -167 -46.5z" />
    <glyph glyph-name="uni0187" unicode="&#x187;" horiz-adv-x="594" 
d="M598 858c12 0 22.833 -1.33301 32.5 -4s17.834 -5.66699 24.501 -9v-72c-4.66699 2 -11.5 4.16699 -20.5 6.5s-18.5 3.5 -28.5 3.5c-30 0 -45 -16 -45 -48v-51l-34 -78c-20.667 10 -43.334 19 -68.001 27s-51.667 12 -81 12c-70.667 0 -126.167 -25.667 -166.5 -77
s-60.5 -121.666 -60.5 -210.999c0 -88.667 18.833 -158.834 56.5 -210.501s94.167 -77.5 169.5 -77.5c28.667 0 56.334 2.66699 83.001 8s53 12 79 20v-78c-25.333 -10 -51.5 -17.333 -78.5 -22s-58.833 -7 -95.5 -7c-68.667 0 -125.834 15 -171.501 45
s-79.834 72.667 -102.501 128s-34 120.333 -34 195c0 72 12.333 135.5 37 190.5s61 98 109 129s106.667 46.5 176 46.5c36.667 0 72.667 -4.66699 108 -14v14c0 42.667 8.83301 75.667 26.5 99s45.834 35 84.501 35z" />
    <glyph glyph-name="uni0188" unicode="&#x188;" horiz-adv-x="473" 
d="M282 -10c-45.333 0 -85.334 9.66699 -120.001 29s-61.834 49.333 -81.501 90s-29.5 92.667 -29.5 156c0 66 10.333 119.667 31 161s48.834 71.666 84.501 90.999s76.167 29 121.5 29c10 0 20.167 -0.666992 30.5 -2s20.166 -2.66602 29.499 -3.99902v91
c0 43.333 8.66699 76.5 26 99.5s45.666 34.5 84.999 34.5c12 0 22.833 -1.5 32.5 -4.5s17.834 -5.83301 24.501 -8.5v-73c-4 2 -10.5 4.16699 -19.5 6.5s-18.833 3.5 -29.5 3.5c-29.333 0 -44 -16 -44 -48v-124l-27 -73c-15.333 6 -33.166 11.667 -53.499 17
s-39.166 8 -56.499 8c-96.667 0 -145 -67.667 -145 -203c0 -64.667 11.833 -114.167 35.5 -148.5s58.834 -51.5 105.501 -51.5c27.333 0 51.666 3 72.999 9s41 13.333 59 22v-78c-17.333 -9.33301 -36.333 -16.5 -57 -21.5s-45.667 -7.5 -75 -7.5z" />
    <glyph glyph-name="uni0189" unicode="&#x189;" horiz-adv-x="687" 
d="M298 714c67.333 0 125.833 -13.333 175.5 -40s88.167 -66 115.5 -118s41 -116 41 -192c0 -120.667 -31 -211.5 -93 -272.5s-148.667 -91.5 -260 -91.5h-180v314h-69v78h69v322h201zM287 637l-101.001 0.000976562v-245h163v-78h-163v-237h83c178 0 267 94.667 267 284
c0 95.333 -21.667 165.166 -65 209.499s-104.666 66.5 -183.999 66.5z" />
    <glyph glyph-name="uni018A" unicode="&#x18a;" horiz-adv-x="765" 
d="M169 0v636.999h-25c-19.333 0 -33.666 -4.5 -42.999 -13.5s-14 -21.167 -14 -36.5c0 -11.333 1.16699 -22 3.5 -32s4.16602 -17.333 5.49902 -22h-77c-2.66699 7.33301 -5 16.333 -7 27s-3 20 -3 28c0 42.667 11 74.334 33 95.001s56.333 31 103 31h231
c68 0 126.833 -13.333 176.5 -40s88 -66 115 -118s40.5 -116 40.5 -192c0 -120.667 -31 -211.5 -93 -272.5s-148.333 -91.5 -259 -91.5h-187zM258 76.999l88.999 0.000976562c178 0 267 94.667 267 284c0 95.333 -21.667 165.166 -65 209.499s-104.666 66.5 -183.999 66.5
h-107v-560z" />
    <glyph glyph-name="uni018B" unicode="&#x18b;" horiz-adv-x="581" 
d="M301 0c-88.667 0 -153 17.332 -193 51.999s-60 83.334 -60 146.001c0 37.333 8.5 72.333 25.5 105s45 59 84 79s92.167 30 159.5 30h84v223h-312v79h401v-714h-189zM309 76.999h92v258h-74c-63.333 0 -110.333 -10.167 -141 -30.5s-46 -54.5 -46 -102.5
c0 -42 13.667 -73.333 41 -94s70 -31 128 -31z" />
    <glyph glyph-name="uni018C" unicode="&#x18c;" horiz-adv-x="579" 
d="M257 -10c-62 0 -111.833 23.167 -149.5 69.5s-56.5 115.5 -56.5 207.5s19 161.5 57 208.5s88 70.5 150 70.5c38.667 0 70.334 -7.66699 95.001 -23s44.667 -34 60 -56h6c-0.666992 8.66699 -1.83398 21.5 -3.50098 38.5s-2.5 30.5 -2.5 40.5v140h-311v74h398v-760h-70
l-13 72h-4c-15.333 -22.667 -35.333 -42 -60 -58s-56.667 -24 -96 -24zM273 63c52 0 88.499 15.499 109.499 46.499s31.5 77.833 31.5 140.5v16c0 66.667 -10 117.834 -30 153.501s-57.333 53.5 -112 53.5c-44 0 -76.833 -18.833 -98.5 -56.5s-32.5 -88.167 -32.5 -151.5
c0 -64 10.833 -113.667 32.5 -149s54.834 -53 99.501 -53z" />
    <glyph glyph-name="uni018D" unicode="&#x18d;" horiz-adv-x="569" 
d="M268 -224c-43.333 0 -80.4951 5.66406 -111.495 16.9971s-59.167 23.666 -84.5 36.999l38 69c23.333 -14 48.166 -26 74.499 -36s55.166 -15 86.499 -15c28 0 48.5 6.83301 61.5 20.5s19.5 29.834 19.5 48.501c0 24 -9.33301 44.833 -28 62.5
s-51.334 40.167 -98.001 67.5c-56.667 32.667 -100.167 68.5 -130.5 107.5s-45.5 87.5 -45.5 145.5c0 80 21.667 141 65 183s100.666 63 171.999 63c45.333 0 85.333 -8.66699 120 -26s62 -42.666 82 -75.999s30 -74 30 -122c0 -42.667 -8.5 -80 -25.5 -112
s-40.333 -58.667 -70 -80s-62.834 -38 -99.501 -50c34.667 -21.333 62.667 -44.666 84 -69.999s32 -56.666 32 -93.999c0 -46 -16.333 -80.833 -49 -104.5s-73.667 -35.5 -123 -35.5zM257.005 117.997c18.667 5.33301 38.001 12.666 58.001 21.999s38.5 21.833 55.5 37.5
s30.833 35.334 41.5 59.001s16 52.5 16 86.5c0 44 -12.333 80 -37 108s-59.334 42 -104.001 42c-46.667 0 -82.834 -14.833 -108.501 -44.5s-38.5 -72.167 -38.5 -127.5c0 -44.667 10.333 -81.167 31 -109.5s49.334 -52.833 86.001 -73.5z" />
    <glyph glyph-name="uni018E" unicode="&#x18e;" horiz-adv-x="523" 
d="M432 714v-714h-376v79h287v255h-270v78h270v223h-287v79h376z" />
    <glyph glyph-name="uni018F" unicode="&#x18f;" horiz-adv-x="700" 
d="M317 646c-43.333 0 -83.1689 -4.00098 -119.502 -12.001s-69.166 -17.667 -98.499 -29v82c27.333 10.667 58 19.667 92 27s76.667 11 128 11c70.667 0 130 -15.333 178 -46s84.167 -73.5 108.5 -128.5s36.5 -119.833 36.5 -194.5c0 -74 -11.667 -138.333 -35 -193
s-57.5 -97.167 -102.5 -127.5s-100.5 -45.5 -166.5 -45.5c-67.333 0 -121.666 15.167 -162.999 45.5s-71.333 73 -90 128s-28 119.5 -28 193.5v34h491c-4.66699 80.667 -25.667 143.334 -63 188.001s-93.333 67 -168 67zM337.997 68.999
c60.667 0 109.668 20.8311 147.001 62.498s58.333 101.834 63 180.501h-396c0 -75.333 13.667 -134.666 41 -177.999s75.666 -65 144.999 -65z" />
    <glyph glyph-name="uni0190" unicode="&#x190;" horiz-adv-x="557" 
d="M296 724c47.333 0 89.667 -7.16602 127 -21.499s69 -31.833 95 -52.5l-42 -61c-25.333 18 -51.166 32.667 -77.499 44s-59.5 17 -99.5 17c-38 0 -68.667 -9.66699 -92 -29s-35 -47 -35 -83c0 -40 15 -71.833 45 -95.5s76 -35.5 138 -35.5h88v-75h-93
c-65.333 0 -116.333 -10.333 -153 -31s-55 -53.667 -55 -99c0 -44 15.167 -78 45.5 -102s74.166 -36 131.499 -36c34 0 68.667 5 104 15s67.666 22.333 96.999 37v-82c-28 -14.667 -59.167 -25.667 -93.5 -33s-72.5 -11 -114.5 -11
c-62.667 0 -113.334 8.83301 -152.001 26.5s-66.667 42 -84 73s-26 66.167 -26 105.5c0 50.667 14.833 91 44.5 121s72.834 49 129.501 57v4c-43.333 8 -78.166 26.167 -104.499 54.5s-39.5 66.833 -39.5 115.5c0 51.333 18.5 93.666 55.5 126.999s90.5 50 160.5 50z" />
    <glyph glyph-name="uni0191" unicode="&#x191;" horiz-adv-x="490" 
d="M43 -240c-22 0 -39.999 4.33301 -53.999 13v76c13.333 -6.66699 27.666 -10 42.999 -10c18.667 0 33.167 5.83301 43.5 17.5s15.5 33.167 15.5 64.5v793h375v-79h-287v-253h270v-79h-270v-386c0 -55.333 -11.833 -95.333 -35.5 -120s-57.167 -37 -100.5 -37z" />
    <glyph glyph-name="florin" unicode="&#x192;" horiz-adv-x="538" 
d="M382 724c20.667 0 39.334 -2.33105 56.001 -6.99805s31 -9.33398 43 -14.001l-22 -68c-10 3.33301 -21.333 6.83301 -34 10.5s-25.667 5.5 -39 5.5c-26.667 0 -46 -7.83301 -58 -23.5s-18 -43.834 -18 -84.501v-69h125v-68h-124v-470c0 -65.333 -13.5 -111 -40.5 -137
s-65.833 -39 -116.5 -39c-12 0 -23.833 0.833008 -35.5 2.5s-21.834 3.83398 -30.501 6.50098v73c9.33301 -2.66699 18.833 -4.83398 28.5 -6.50098s19.834 -2.5 30.501 -2.5c25.333 0 44.166 7.33301 56.499 22s18.5 41.667 18.5 81v470h-97v41l97 30v65
c0 69.333 14 117 42 143s67.333 39 118 39z" />
    <glyph glyph-name="uni0193" unicode="&#x193;" horiz-adv-x="684" 
d="M642 858c11.333 0 22 -1.33105 32 -3.99805s18.333 -5.66699 25 -9v-72c-4.66699 2 -11.5 4.16699 -20.5 6.5s-18.5 3.5 -28.5 3.5c-30 0 -45 -16 -45 -48v-53l-33 -78c-23.333 10.667 -49.833 20.167 -79.5 28.5s-60.167 12.5 -91.5 12.5
c-79.333 0 -141 -25.833 -185 -77.5s-66 -121.834 -66 -210.501c0 -56.667 8.33301 -106.834 25 -150.501s43.167 -77.667 79.5 -102s83.833 -36.5 142.5 -36.5c28.667 0 53 1.66699 73 5s38.333 7.33301 55 12v212h-146v80h235v-350c-36 -12.667 -72.667 -22 -110 -28
s-79.333 -9 -126 -9c-69.333 0 -127.833 14.833 -175.5 44.5s-83.834 72 -108.501 127s-37 120.167 -37 195.5c0 74 13.667 138.5 41 193.5s67 97.667 119 128s114.667 45.5 188 45.5c44 0 86 -5.66699 126 -17v17c0 42.667 8.83301 75.667 26.5 99s45.834 35 84.501 35z
" />
    <glyph glyph-name="uni0194" unicode="&#x194;" horiz-adv-x="542" 
d="M270 -240c-34.667 0 -61.667 12.6699 -81 38.0029s-29 57 -29 95c0 29.333 6 63.333 18 102s26.667 76 44 112l-222 607h93l131 -373l27 -82.5c8 -25.667 14.333 -50.167 19 -73.5c4.66699 23.333 11 48.166 19 74.499s17.333 54.166 28 83.499l130 371h95l-224 -606
c20.667 -43.333 36.334 -83.833 47.001 -121.5s16 -68.834 16 -93.501c0 -37.333 -9.83301 -68.833 -29.5 -94.5s-46.834 -38.5 -81.501 -38.5zM270 -161.997c21.333 0 32 19 32 57c0 15.333 -2.5 35 -7.5 59s-13.167 47.667 -24.5 71
c-11.333 -24.667 -19.5 -48.5 -24.5 -71.5s-7.5 -41.833 -7.5 -56.5c0 -20.667 3 -35.667 9 -45s13.667 -14 23 -14z" />
    <glyph glyph-name="uni0195" unicode="&#x195;" horiz-adv-x="882" 
d="M602 -10c-66.667 0 -117.169 15.501 -151.502 46.501s-51.5 80.833 -51.5 149.5v157c0 86 -33.667 129 -101 129c-50 0 -84.5 -16.833 -103.5 -50.5s-28.5 -81.834 -28.5 -144.501v-277h-87v760h87v-223c0 -26.667 -1.66699 -51.667 -5 -75h6c15.333 27.333 36 48 62 62
s54.333 21 85 21c56.667 0 99.5 -15.5 128.5 -46.5s43.5 -80.833 43.5 -149.5v-157c0 -86 38.667 -129 116 -129c40.667 0 70.334 11.5 89.001 34.5s28 61.167 28 114.5v324h87v-327c0 -80 -17.167 -136.5 -51.5 -169.5s-85.166 -49.5 -152.499 -49.5z" />
    <glyph glyph-name="uni0196" unicode="&#x196;" horiz-adv-x="330" 
d="M230 -10c-28 0 -53.001 4.83398 -75.001 14.501s-39.333 26.667 -52 51s-19 58.166 -19 101.499v557h89v-549c0 -32 5.5 -56 16.5 -72s29.167 -24 54.5 -24c14 0 28.333 1.16699 43 3.5s26 4.83301 34 7.5v-74c-8.66699 -4.66699 -21.667 -8.5 -39 -11.5
s-34.666 -4.5 -51.999 -4.5z" />
    <glyph glyph-name="uni0197" unicode="&#x197;" horiz-adv-x="322" 
d="M284 714v-52l-79 -20v-237h85v-78h-85v-256l79 -19v-52h-247v52l79 19v256h-85v78h85v237l-79 20v52h247z" />
    <glyph glyph-name="uni0198" unicode="&#x198;" horiz-adv-x="585" 
d="M522 720c11.333 0 20.834 -0.666016 28.501 -1.99902s14.5 -3.33301 20.5 -6v-70c-4.66699 1.33301 -11.334 2.16602 -20.001 2.49902s-16 0.5 -22 0.5c-8.66699 0 -17.667 -2.5 -27 -7.5s-22 -17.833 -38 -38.5l-150 -194l271 -405h-104l-228 342l-73 -77v-265h-89v714
h89v-360l55 72l55 72l113 152c15.333 21.333 29.333 36.833 42 46.5s25 16 37 19s25.333 4.5 40 4.5z" />
    <glyph glyph-name="uni0199" unicode="&#x199;" horiz-adv-x="508" 
d="M197 765c12 0 23.668 -1.5 35.001 -4.5s20.333 -5.83301 27 -8.5v-73c-4.66699 2 -11.5 4.16699 -20.5 6.5s-18.5 3.5 -28.5 3.5c-14.667 0 -25.834 -4.5 -33.501 -13.5s-11.5 -23.833 -11.5 -44.5v-268c0 -10.667 -0.5 -24.667 -1.5 -42s-1.83301 -32.333 -2.5 -45h4
l17 23l23 30.5c8 10.333 15 18.833 21 25.5l159 181h101l-204 -229l218 -307h-104l-173 250l-58 -53v-197h-86v625c0 93.333 39.333 140 118 140z" />
    <glyph glyph-name="uni019A" unicode="&#x19a;" horiz-adv-x="248" 
d="M81 0v354h-67v66h67v340h87v-340h66v-66h-66v-354h-87z" />
    <glyph glyph-name="uni019B" unicode="&#x19b;" horiz-adv-x="514" 
d="M-5 0l217.003 526l-21 64l-99 -32l-18 63l92 30c-9.33301 16 -19.333 27 -30 33s-24.334 9 -41.001 9c-11.333 0 -21.166 -0.666992 -29.499 -2s-15.833 -2.66602 -22.5 -3.99902v71c8.66699 2 18.667 3.83301 30 5.5s22.333 2.5 33 2.5c36.667 0 65.5 -7.33301 86.5 -22
s38.833 -37.334 53.5 -68.001l102 33l18 -63l-95 -32l166 -498c12 -36 28.333 -54 49 -54c4.66699 0 9.66699 0.666992 15 2s9.66602 2.33301 12.999 3v-65c-6.66699 -3.33301 -14.834 -6.16602 -24.501 -8.49902s-19.834 -3.5 -30.501 -3.5c-24.667 0 -44 6.16699 -58 18.5
s-26 33.166 -36 62.499l-67 205l-17 53.5l-17 58c-5.33301 19 -9.33301 34.833 -12 47.5h-3c-5.33301 -23.333 -12.5 -48.333 -21.5 -75s-18.833 -53 -29.5 -79l-112 -281h-91z" />
    <glyph glyph-name="uni019C" unicode="&#x19c;" horiz-adv-x="969" 
d="M270 -10c-62.667 0 -109.336 17.167 -140.003 51.5s-46 89.833 -46 166.5v506h89v-506c0 -46.667 8.83301 -81.667 26.5 -105s45.834 -35 84.501 -35c54.667 0 93.667 16.667 117 50s35 81.333 35 144v452h89v-506c0 -46.667 9 -81.667 27 -105s46.667 -35 86 -35
c56.667 0 95.834 18.333 117.501 55s32.5 89.667 32.5 159v432h89v-714h-70l-15 82h-5c-16.667 -30.667 -40.667 -53.667 -72 -69s-63.666 -23 -96.999 -23c-82 0 -136.667 33.333 -164 100h-5c-18.667 -34 -44.167 -59.167 -76.5 -75.5s-66.5 -24.5 -102.5 -24.5z" />
    <glyph glyph-name="uni019D" unicode="&#x19d;" horiz-adv-x="718" 
d="M43 -240c-22 0 -39.9971 4.33398 -53.9971 13.001v76c13.333 -6.66699 27.666 -10 42.999 -10c18.667 0 33.167 5.83301 43.5 17.5s15.5 33.167 15.5 64.5v793h104l353 -591h3c-0.666992 10.667 -1.33398 26.667 -2.00098 48s-1.5 44.5 -2.5 69.5s-1.5 48.5 -1.5 70.5
v403h82v-714h-105l-354 593h-3c0.666992 -23.333 2 -52.333 4 -87s3 -70.334 3 -107.001v-482c0 -55.333 -10.833 -95.333 -32.5 -120s-53.834 -37 -96.501 -37z" />
    <glyph glyph-name="uni019E" unicode="&#x19e;" horiz-adv-x="584" 
d="M325 546c60 0 105.5 -15.668 136.5 -47.001s46.5 -81.333 46.5 -150v-589h-87v583c0 42.667 -8.83301 74.834 -26.5 96.501s-45.5 32.5 -83.5 32.5c-54.667 0 -92.5 -16.667 -113.5 -50s-31.5 -81.333 -31.5 -144v-278h-87v536h70l13 -73h5c16 28 38.333 48.833 67 62.5
s59 20.5 91 20.5z" />
    <glyph glyph-name="uni019F" unicode="&#x19f;" horiz-adv-x="736" 
d="M678 358c0 -74 -11.667 -138.5 -35 -193.5s-58 -97.833 -104 -128.5s-103 -46 -171 -46c-70 0 -128 15.333 -174 46s-80.333 73.667 -103 129s-34 120 -34 194c0 72.667 11.333 136.5 34 191.5s57.167 97.833 103.5 128.5s104.5 46 174.5 46
c67.333 0 124 -15.167 170 -45.5s80.667 -73 104 -128s35 -119.5 35 -193.5zM369 646c-68.667 0 -120.501 -21.5 -155.501 -64.5s-55.5 -102.5 -61.5 -178.5h430c-5.33301 76 -25.166 135.5 -59.499 178.5s-85.5 64.5 -153.5 64.5zM367.999 68
c70 0 122.332 22.667 156.999 68s54 108.333 58 189h-431c4 -80.667 23.333 -143.667 58 -189s87.334 -68 158.001 -68z" />
    <glyph glyph-name="Ohorn" unicode="&#x1a0;" horiz-adv-x="740" 
d="M677 358c0 -74 -11.666 -138.501 -34.999 -193.501s-57.833 -97.833 -103.5 -128.5s-102.5 -46 -170.5 -46c-70.667 0 -128.834 15.333 -174.501 46s-79.834 73.667 -102.501 129s-34 120 -34 194c0 72.667 11.333 136.5 34 191.5s57 97.833 103 128.5s104.333 46 175 46
c51.333 0 96.5 -9.16699 135.5 -27.5s71.5 -43.833 97.5 -76.5c25.333 7.33301 41.5 23.666 48.5 48.999s10.5 55.333 10.5 90h93l6 -11c-6.66699 -39.333 -19.167 -75.666 -37.5 -108.999s-47.166 -57.666 -86.499 -72.999c27.333 -58 41 -127.667 41 -209z
M151.001 357.999c0 -90 17.333 -160.833 52 -212.5s89.667 -77.5 165 -77.5s130 25.833 164 77.5s51 122.5 51 212.5c0 89.333 -16.833 159.666 -50.5 210.999s-88.167 77 -163.5 77c-76 0 -131.333 -25.667 -166 -77s-52 -121.666 -52 -210.999z" />
    <glyph glyph-name="ohorn" unicode="&#x1a1;" horiz-adv-x="584" 
d="M520 269c0 -88.667 -21.332 -157.333 -63.999 -206s-100.334 -73 -173.001 -73c-44.667 0 -84.5 10.833 -119.5 32.5s-62.5 53.334 -82.5 95.001s-30 92.167 -30 151.5c0 88.667 21 157 63 205s99.333 72 172 72c33.333 0 64 -6 92 -18s52.333 -29 73 -51
c28 8.66699 45.5 26 52.5 52s10.5 55.667 10.5 89h92l7 -11c-8.66699 -46 -22.167 -84.5 -40.5 -115.5s-46.5 -53.5 -84.5 -67.5c10 -21.333 17.833 -44.833 23.5 -70.5s8.5 -53.834 8.5 -84.501zM141.001 269.001c0 -67.333 11.332 -118.5 33.999 -153.5
s59.334 -52.5 110.001 -52.5c51.333 0 88.333 17.5 111 52.5s34 86.167 34 153.5s-11.667 118 -35 152s-60.333 51 -111 51s-87.167 -17 -109.5 -51s-33.5 -84.667 -33.5 -152z" />
    </font>
</defs>
</svg>
